<?xml version="1.0" encoding="utf-8"?>
<!-- Generator: Adobe Illustrator 15.1.0, SVG Export Plug-In . SVG Version: 6.00 Build 0)  -->
<!DOCTYPE svg PUBLIC "-//W3C//DTD SVG 1.1//EN" "http://www.w3.org/Graphics/SVG/1.1/DTD/svg11.dtd">
<svg version="1.1" id="Layer_1" xmlns="http://www.w3.org/2000/svg" xmlns:xlink="http://www.w3.org/1999/xlink" x="0px" y="0px"
	 width="550px" height="689.75px" viewBox="0 0 550 689.75" enable-background="new 0 0 550 689.75" xml:space="preserve">
<g>
	<rect x="25" y="25" width="500" height="639.753"/>
	<path fill="#FFFFFF" d="M178.704,313.159c-1.41,0-2.81,0.036-4.205,0.109H90.24H49.5v231.626h40.74v-70.97h83.193
		c1.743,0.114,3.502,0.192,5.271,0.192c44.451,0,80.481-36.03,80.481-80.481C259.186,349.19,223.155,313.159,178.704,313.159z
		 M178.704,433.044H90.24v-79.035h88.464v0.219c21.762,0,39.414,17.641,39.414,39.408S200.466,433.044,178.704,433.044z"/>
	<polygon fill="#FFFFFF" points="226.579,284.097 284.195,284.097 159.513,159.414 266.356,52.569 208.74,52.569 93.315,168 
		93.315,52.569 52.57,52.569 52.57,284.2 93.315,284.2 93.315,225.616 130.709,188.222 	"/>
	<g>
		<path fill="#FFFFFF" d="M428.48,471.791c35.172-8.612,61.274-40.329,61.274-78.155c0-44.445-36.031-80.477-80.481-80.477
			c-1.41,0-2.815,0.036-4.205,0.109h-84.26h-40.74v231.626h40.74v-70.97h52.189l70.964,70.97h57.616L428.48,471.791z
			 M320.809,433.044v-79.035h88.465v0.219c21.768,0,39.413,17.641,39.413,39.408s-17.646,39.408-39.413,39.408H320.809z"/>
	</g>
	<g>
		<path fill="#FFFFFF" d="M187.046,630.309c-0.406-0.91-0.937-1.686-1.582-2.336c-0.677-0.672-1.457-1.197-2.326-1.577
			c-0.9-0.4-1.868-0.608-2.878-0.608c-1.056,0-2.045,0.208-2.945,0.614c-0.853,0.374-1.634,0.91-2.295,1.576
			c-0.666,0.702-1.176,1.483-1.54,2.357c-0.375,0.89-0.567,1.868-0.567,2.894c0,0.994,0.193,1.951,0.573,2.847
			c0.359,0.868,0.874,1.654,1.535,2.32c0.656,0.661,1.442,1.182,2.332,1.556c0.916,0.38,1.889,0.567,2.909,0.567
			c0.974,0,1.931-0.188,2.836-0.557c0.911-0.385,1.696-0.9,2.357-1.546c0.651-0.635,1.187-1.41,1.587-2.315
			c0.396-0.905,0.598-1.868,0.598-2.872C187.639,632.192,187.436,631.209,187.046,630.309z"/>
		<polygon fill="#FFFFFF" points="499.777,571.975 479.774,571.975 478.791,571.975 478.255,572.802 442.141,629.455 
			405.406,572.792 404.881,571.975 403.902,571.975 383.998,571.975 382.203,571.975 382.203,573.77 382.203,579.072 
			382.203,580.873 383.998,580.873 395.806,580.873 395.806,631.734 383.998,631.734 382.203,631.734 382.203,633.535 
			382.203,638.885 382.203,640.686 383.998,640.686 417.079,640.686 418.874,640.686 418.874,638.885 418.874,633.535 
			418.874,631.734 417.079,631.734 405.323,631.734 405.323,589.371 437.795,639.857 438.326,640.686 439.31,640.686 
			444.57,640.686 445.549,640.686 446.085,639.857 478.504,589.595 478.504,631.734 466.702,631.734 464.901,631.734 
			464.901,633.535 464.901,638.885 464.901,640.686 466.702,640.686 499.777,640.686 501.578,640.686 501.578,638.885 
			501.578,633.535 501.578,631.734 499.777,631.734 487.975,631.734 487.975,580.873 499.777,580.873 501.578,580.873 
			501.578,579.072 501.578,573.77 501.578,571.975 		"/>
		<path fill="none" d="M100.528,584.714c-1.993-1.702-4.512-3.112-7.478-4.185c-2.981-1.077-6.599-1.623-10.767-1.623
			c-3.918,0-7.405,0.374-10.366,1.108c-2.915,0.718-5.355,1.743-7.275,3.039c-1.853,1.254-3.263,2.773-4.21,4.512
			c-0.952,1.759-1.416,3.674-1.416,5.849c0,2.237,0.437,4.257,1.301,5.995c0.869,1.743,2.175,3.185,4.007,4.407
			c1.899,1.265,4.366,2.253,7.348,2.945c3.049,0.708,6.78,1.062,11.094,1.062c3.612,0,6.822-0.432,9.554-1.29
			c2.758-0.854,5.193-1.926,7.249-3.175c2.024-1.249,3.71-2.586,5.011-3.971c1.119-1.187,2.014-2.279,2.68-3.268
			c-0.385-1.899-1.083-3.814-2.086-5.709C104.077,588.325,102.516,586.41,100.528,584.714z"/>
		<path fill="#FFFFFF" d="M115.119,589.054c-1.79-4.194-4.33-7.754-7.551-10.574c-3.206-2.789-7.041-4.907-11.396-6.286
			c-4.313-1.354-9.085-2.04-14.17-2.04c-5.079,0-9.647,0.588-13.587,1.748c-4.027,1.187-7.462,2.831-10.21,4.887
			c-2.799,2.076-4.979,4.579-6.468,7.426c-1.483,2.856-2.238,5.953-2.238,9.2c0,3.919,0.864,7.384,2.56,10.309
			c1.681,2.898,4.007,5.345,6.921,7.265c2.862,1.879,6.245,3.289,10.069,4.194c3.763,0.905,7.879,1.358,12.234,1.358
			c4.553,0,8.607-0.448,12.047-1.343c3.492-0.896,6.359-1.92,8.768-3.138c2.436-1.229,4.34-2.42,5.839-3.648
			c-0.219,2.353-0.625,4.626-1.212,6.812c-0.885,3.377-2.363,6.385-4.397,8.945c-2.009,2.523-4.704,4.579-7.998,6.099
			c-3.305,1.524-7.483,2.295-12.416,2.295c-3.487,0-6.625-0.317-9.32-0.947c-2.612-0.609-4.839-1.515-6.619-2.69
			c-1.723-1.145-2.992-2.514-3.882-4.179c-0.62-1.171-0.947-2.545-1.129-4.007h-9.705c0.239,3.195,1.056,6.042,2.529,8.445
			c1.712,2.811,4.043,5.162,6.927,6.983c2.831,1.78,6.119,3.102,9.783,3.93c3.612,0.816,7.457,1.232,11.417,1.232
			c5.911,0,11.177-0.931,15.653-2.773c4.501-1.853,8.31-4.48,11.318-7.8c3.008-3.325,5.277-7.343,6.75-11.933
			c1.457-4.554,2.201-9.606,2.201-15.028C117.835,598.207,116.925,593.248,115.119,589.054z M104.582,599.388
			c-1.301,1.385-2.987,2.722-5.011,3.971c-2.056,1.249-4.491,2.321-7.249,3.175c-2.732,0.858-5.942,1.29-9.554,1.29
			c-4.314,0-8.045-0.354-11.094-1.062c-2.982-0.692-5.448-1.681-7.348-2.945c-1.832-1.223-3.138-2.664-4.007-4.407
			c-0.864-1.738-1.301-3.758-1.301-5.995c0-2.175,0.463-4.09,1.416-5.849c0.947-1.738,2.357-3.258,4.21-4.512
			c1.92-1.296,4.36-2.321,7.275-3.039c2.961-0.734,6.447-1.108,10.366-1.108c4.168,0,7.785,0.546,10.767,1.623
			c2.966,1.072,5.485,2.482,7.478,4.185c1.988,1.696,3.549,3.611,4.647,5.697c1.004,1.895,1.702,3.81,2.086,5.709
			C106.595,597.108,105.7,598.201,104.582,599.388z"/>
		<polygon fill="#FFFFFF" points="367.564,573.77 367.564,571.975 365.77,571.975 296.861,571.975 295.061,571.975 295.061,573.77 
			295.061,579.072 295.061,580.873 296.861,580.873 308.658,580.873 308.658,631.734 296.861,631.734 295.061,631.734 
			295.061,633.535 295.061,638.885 295.061,640.686 296.861,640.686 329.941,640.686 331.736,640.686 331.736,638.885 
			331.736,633.535 331.736,631.734 329.941,631.734 318.181,631.734 318.181,610.02 352.88,610.02 354.675,610.02 354.675,608.219 
			354.675,602.677 354.675,600.876 352.88,600.876 318.181,600.876 318.181,581.117 358.614,581.117 358.614,593.237 
			367.564,593.237 		"/>
		<polygon fill="#FFFFFF" points="151.332,631.1 151.332,573.13 151.332,571.329 149.537,571.329 143.75,571.329 143.49,571.329 
			143.246,571.402 127.155,576.106 127.213,576.106 127.213,585.094 127.723,584.947 141.95,580.743 141.95,631.1 129.164,631.1 
			129.154,631.1 129.154,640.045 129.164,640.045 164.128,640.045 164.128,631.1 		"/>
		<path fill="#FFFFFF" d="M259.534,613.979c-0.234-1.551-0.723-3.133-1.457-4.693c-0.713-1.562-1.753-3.076-3.169-4.621
			c-1.374-1.494-3.195-2.878-5.422-4.122c-2.165-1.218-4.871-2.264-8.035-3.127c-1.936-0.531-4.147-0.963-6.598-1.307l23.531-17.453
			l0.729-0.541v-0.905v-4.08v-1.801h-1.8h-57.59h-1.795v1.801v17.521h8.951v-10.319h34.896l-20.654,15.335l-0.724,0.536v0.905v5.116
			v1.79l1.785,0.01c5.771,0.037,10.563,0.433,14.258,1.171c3.627,0.734,6.51,1.749,8.565,3.019c1.967,1.207,3.299,2.591,4.069,4.235
			c0.775,1.702,1.171,3.622,1.171,5.704c0,1.904-0.437,3.652-1.353,5.354c-0.9,1.712-2.315,3.236-4.194,4.537
			c-1.946,1.358-4.475,2.462-7.524,3.273c-3.044,0.822-6.765,1.244-11.053,1.244c-3.731,0-7.093-0.333-10.012-0.979
			c-2.852-0.625-5.292-1.598-7.265-2.894c-1.93-1.265-3.367-2.825-4.408-4.771c-1.025-1.926-1.54-4.272-1.54-6.952v-0.026h-9.611
			v0.026c0,4.434,0.926,8.253,2.753,11.364c1.806,3.081,4.262,5.631,7.316,7.588c2.966,1.899,6.432,3.304,10.293,4.163
			c3.793,0.827,7.764,1.248,11.812,1.248c4.85,0,9.414-0.494,13.556-1.473c4.2-0.999,7.858-2.477,10.897-4.402
			c3.102-1.972,5.558-4.438,7.301-7.348c1.759-2.939,2.654-6.322,2.654-10.048C259.867,616.82,259.753,615.447,259.534,613.979z"/>
	</g>
	<g>
		<circle cx="379.614" cy="168.375" r="134.411"/>
		<path fill="#FFFFFF" d="M379.669,251.364c-45.835,0-82.99-37.155-82.99-82.995c0-45.835,37.155-82.99,82.99-82.99
			c26.722,0,50.477,12.64,65.656,32.258l35.511-20.503c-22.402-31.753-59.359-52.49-101.172-52.49
			c-68.331,0-123.726,55.394-123.726,123.725c0,68.336,55.395,123.73,123.726,123.73c41.786,0,78.723-20.711,101.13-52.428
			l-35.516-20.503C430.094,238.75,406.364,251.364,379.669,251.364z"/>
		<g>
			<g>
				<path fill="#00928F" d="M486.596,106.621l-2.356,1.358l-1.349,0.78c10.257,17.631,16.221,38.045,16.221,59.901
					c0,21.679-5.865,41.947-15.955,59.469l1.083,0.63l2.617,1.509c10.465-18.146,16.537-39.153,16.537-61.607
					C503.394,146.035,497.212,124.876,486.596,106.621z"/>
			</g>
			<g>
				<path fill="#00928F" d="M491.165,168.661c0-20.404-5.573-39.476-15.153-55.931l-3.689,2.134
					c9.205,15.825,14.57,34.168,14.57,53.797c0,19.446-5.256,37.634-14.311,53.364l3.7,2.139
					C485.696,207.809,491.165,188.888,491.165,168.661z"/>
			</g>
			<g>
				<path fill="#00928F" d="M465.438,118.84l-3.508,2.019c8.191,14.066,12.963,30.359,12.963,47.802
					c0,17.261-4.662,33.408-12.691,47.375l3.491,2.019c8.384-14.555,13.244-31.395,13.244-49.394
					C478.937,150.479,473.967,133.494,465.438,118.84z"/>
			</g>
			<g>
				<path fill="#00928F" d="M455.056,124.829l-3.699,2.144c7.145,12.26,11.308,26.477,11.308,41.688
					c0,15.033-4.059,29.094-11.053,41.255l3.71,2.145c7.358-12.791,11.625-27.586,11.625-43.399
					C466.946,152.669,462.565,137.719,455.056,124.829z"/>
			</g>
			<g>
				<path fill="#00928F" d="M444.472,130.938l-3.7,2.144c6.109,10.459,9.658,22.595,9.658,35.579
					c0,12.801-3.444,24.785-9.397,35.151l3.71,2.139c6.307-10.996,9.976-23.703,9.976-37.29
					C454.718,154.896,450.95,142.028,444.472,130.938z"/>
			</g>
			<g>
				<path fill="#00928F" d="M433.622,137.214l-3.435,1.983c5.068,8.659,8.019,18.707,8.019,29.464
					c0,10.579-2.847,20.477-7.754,29.037l3.435,1.982c5.24-9.148,8.285-19.723,8.285-31.02
					C442.172,157.181,439.023,146.456,433.622,137.214z"/>
			</g>
			<g>
				<path fill="#00928F" d="M419.524,145.348c4.018,6.849,6.359,14.8,6.359,23.313c0,8.336-2.237,16.132-6.099,22.886l3.788,2.186
					c4.235-7.399,6.687-15.944,6.687-25.071c0-9.305-2.555-18-6.947-25.504L419.524,145.348z"/>
			</g>
			<g>
				<path fill="#00928F" d="M408.935,151.462c2.987,5.068,4.819,10.896,4.819,17.199c0,6.124-1.749,11.786-4.58,16.756l3.82,2.212
					c3.189-5.604,5.037-12.062,5.037-18.968c0-7.078-1.946-13.691-5.292-19.395L408.935,151.462z"/>
			</g>
		</g>
		<path fill="#E8573F" d="M379.664,142.517c-14.441,0-26.145,11.703-26.145,26.144c0,14.445,11.703,26.148,26.145,26.148
			c9.601,0,17.979-5.173,22.526-12.879c2.301-3.893,3.622-8.425,3.622-13.27c0-5.022-1.421-9.71-3.877-13.697
			C397.336,147.492,389.082,142.517,379.664,142.517z M387.922,168.369c0,4.559-3.679,8.259-8.258,8.259
			c-4.569,0-8.254-3.7-8.254-8.259s3.685-8.253,8.254-8.253C384.243,160.116,387.922,163.811,387.922,168.369z"/>
		<path d="M379.664,160.116c-4.569,0-8.254,3.694-8.254,8.253s3.685,8.259,8.254,8.259c4.579,0,8.258-3.7,8.258-8.259
			S384.243,160.116,379.664,160.116z M383.64,168.369c0,2.191-1.774,3.971-3.976,3.971c-2.196,0-3.966-1.779-3.966-3.971
			c0-2.195,1.77-3.971,3.966-3.971C381.865,164.398,383.64,166.174,383.64,168.369z"/>
		<path fill="#FFFFFF" d="M379.664,164.398c-2.196,0-3.966,1.775-3.966,3.971c0,2.191,1.77,3.971,3.966,3.971
			c2.201,0,3.976-1.779,3.976-3.971C383.64,166.174,381.865,164.398,379.664,164.398z"/>
		<g>
			<path fill="#818385" d="M414.55,108.406c-9.383-8.071-21.575-12.979-34.97-12.979c-13.321,0-25.441,4.876-34.781,12.9
				c10.199-5.984,22.048-9.46,34.766-9.46C392.361,98.868,404.288,102.385,414.55,108.406z"/>
			<path fill="#818385" d="M410.949,114.479c-8.326-7.436-19.28-11.99-31.358-11.99c-12.011,0-22.907,4.527-31.191,11.912
				c9.148-5.349,19.774-8.466,31.171-8.466C391.055,105.935,401.748,109.083,410.949,114.479z"/>
			<path fill="#818385" d="M407.093,120.401c-7.196-6.718-16.834-10.845-27.491-10.845c-10.596,0-20.17,4.106-27.341,10.772
				c8.045-4.637,17.35-7.327,27.319-7.327C389.624,113.001,399.006,115.723,407.093,120.401z"/>
			<path fill="#818385" d="M403.43,126.432c-6.094-6.062-14.509-9.804-23.818-9.804c-9.257,0-17.609,3.716-23.688,9.736
				c6.974-3.986,15.034-6.302,23.667-6.302C388.297,120.062,396.42,122.404,403.43,126.432z"/>
			<path fill="#818385" d="M399.881,132.531c-5.069-5.407-12.225-8.836-20.264-8.836c-7.993,0-15.117,3.409-20.17,8.794
				c5.938-3.393,12.807-5.36,20.154-5.36C386.996,127.129,393.906,129.112,399.881,132.531z"/>
			<path fill="#818385" d="M396.357,138.661c-4.002-4.798-9.965-7.91-16.73-7.91c-6.733,0-12.66,3.097-16.657,7.874
				c4.902-2.805,10.574-4.423,16.642-4.423C385.721,134.201,391.424,135.835,396.357,138.661z"/>
		</g>
		<g>
			<path fill="#818385" d="M414.55,228.26c-9.383,8.071-21.575,12.979-34.97,12.979c-13.321,0-25.441-4.876-34.781-12.9
				c10.199,5.984,22.048,9.46,34.766,9.46C392.361,237.798,404.288,234.28,414.55,228.26z"/>
			<path fill="#818385" d="M410.949,222.187c-8.326,7.437-19.28,11.99-31.358,11.99c-12.011,0-22.907-4.527-31.191-11.912
				c9.148,5.35,19.774,8.467,31.171,8.467C391.055,230.731,401.748,227.583,410.949,222.187z"/>
			<path fill="#818385" d="M407.093,216.265c-7.196,6.719-16.834,10.845-27.491,10.845c-10.596,0-20.17-4.105-27.341-10.771
				c8.045,4.637,17.35,7.327,27.319,7.327C389.624,223.665,399.006,220.943,407.093,216.265z"/>
			<path fill="#818385" d="M403.43,210.233c-6.094,6.062-14.509,9.805-23.818,9.805c-9.257,0-17.609-3.716-23.688-9.736
				c6.974,3.985,15.034,6.302,23.667,6.302C388.297,216.604,396.42,214.262,403.43,210.233z"/>
			<path fill="#818385" d="M399.881,204.135c-5.069,5.407-12.225,8.836-20.264,8.836c-7.993,0-15.117-3.408-20.17-8.794
				c5.938,3.393,12.807,5.359,20.154,5.359C386.996,209.536,393.906,207.554,399.881,204.135z"/>
			<path fill="#818385" d="M396.357,198.005c-4.002,4.798-9.965,7.91-16.73,7.91c-6.733,0-12.66-3.097-16.657-7.874
				c4.902,2.805,10.574,4.424,16.642,4.424C385.721,202.465,391.424,200.83,396.357,198.005z"/>
		</g>
	</g>
</g>
</svg>
