<?xml version="1.0" encoding="utf-8"?>
<!-- Generator: Adobe Illustrator 15.1.0, SVG Export Plug-In . SVG Version: 6.00 Build 0)  -->
<!DOCTYPE svg PUBLIC "-//W3C//DTD SVG 1.1//EN" "http://www.w3.org/Graphics/SVG/1.1/DTD/svg11.dtd">
<svg version="1.1" id="Layer_1" xmlns="http://www.w3.org/2000/svg" xmlns:xlink="http://www.w3.org/1999/xlink" x="0px" y="0px"
	 width="550px" height="689.75px" viewBox="0 0 550 689.75" enable-background="new 0 0 550 689.75" xml:space="preserve">
<path fill="#FFFFFF" d="M90.24,473.925h83.193c1.743,0.114,3.502,0.192,5.271,0.192c44.451,0,80.481-36.03,80.481-80.481
	c0-44.445-36.031-80.477-80.481-80.477c-1.41,0-2.81,0.036-4.205,0.109H90.24H49.5v231.626h40.74V473.925z M90.24,354.009h88.464
	v0.219c21.762,0,39.414,17.641,39.414,39.408s-17.651,39.408-39.414,39.408H90.24V354.009z"/>
<polygon fill="#FFFFFF" points="93.315,225.616 130.709,188.222 226.579,284.097 284.195,284.097 159.513,159.414 266.356,52.569 
	208.74,52.569 93.315,168 93.315,52.569 52.57,52.569 52.57,284.2 93.315,284.2 "/>
<path fill="#FFFFFF" d="M489.755,393.636c0-44.445-36.031-80.477-80.481-80.477c-1.41,0-2.815,0.036-4.205,0.109h-84.26h-40.74
	v231.626h40.74v-70.97h52.189l70.964,70.97h57.616l-73.098-73.104C463.652,463.179,489.755,431.462,489.755,393.636z
	 M320.809,433.044v-79.035h88.465v0.219c21.768,0,39.413,17.641,39.413,39.408s-17.646,39.408-39.413,39.408H320.809z"/>
<path fill="#FFFFFF" d="M185.464,627.973c-0.677-0.672-1.457-1.197-2.326-1.577c-0.9-0.4-1.868-0.608-2.878-0.608
	c-1.056,0-2.045,0.208-2.945,0.614c-0.853,0.374-1.634,0.91-2.295,1.576c-0.666,0.702-1.176,1.483-1.54,2.357
	c-0.375,0.89-0.567,1.868-0.567,2.894c0,0.994,0.193,1.951,0.573,2.847c0.359,0.868,0.874,1.654,1.535,2.32
	c0.656,0.661,1.442,1.182,2.332,1.556c0.916,0.38,1.889,0.567,2.909,0.567c0.974,0,1.931-0.188,2.836-0.557
	c0.911-0.385,1.696-0.9,2.357-1.546c0.651-0.635,1.187-1.41,1.587-2.315c0.396-0.905,0.598-1.868,0.598-2.872
	c0-1.036-0.203-2.02-0.593-2.92C186.64,629.398,186.109,628.623,185.464,627.973z"/>
<polygon fill="#FFFFFF" points="479.774,571.975 478.791,571.975 478.255,572.802 442.141,629.455 405.406,572.792 404.881,571.975 
	403.902,571.975 383.998,571.975 382.203,571.975 382.203,573.77 382.203,579.072 382.203,580.873 383.998,580.873 395.806,580.873 
	395.806,631.734 383.998,631.734 382.203,631.734 382.203,633.535 382.203,638.885 382.203,640.686 383.998,640.686 
	417.079,640.686 418.874,640.686 418.874,638.885 418.874,633.535 418.874,631.734 417.079,631.734 405.323,631.734 
	405.323,589.371 437.795,639.857 438.326,640.686 439.31,640.686 444.57,640.686 445.549,640.686 446.085,639.857 478.504,589.595 
	478.504,631.734 466.702,631.734 464.901,631.734 464.901,633.535 464.901,638.885 464.901,640.686 466.702,640.686 
	499.777,640.686 501.578,640.686 501.578,638.885 501.578,633.535 501.578,631.734 499.777,631.734 487.975,631.734 
	487.975,580.873 499.777,580.873 501.578,580.873 501.578,579.072 501.578,573.77 501.578,571.975 499.777,571.975 "/>
<path fill="#FFFFFF" d="M107.568,578.479c-3.206-2.789-7.041-4.907-11.396-6.286c-4.313-1.354-9.085-2.04-14.17-2.04
	c-5.079,0-9.647,0.588-13.587,1.748c-4.027,1.187-7.462,2.831-10.21,4.887c-2.799,2.076-4.979,4.579-6.468,7.426
	c-1.483,2.856-2.238,5.953-2.238,9.2c0,3.919,0.864,7.384,2.56,10.309c1.681,2.898,4.007,5.345,6.921,7.265
	c2.862,1.879,6.245,3.289,10.069,4.194c3.763,0.905,7.879,1.358,12.234,1.358c4.553,0,8.607-0.448,12.047-1.343
	c3.492-0.896,6.359-1.92,8.768-3.138c2.436-1.229,4.34-2.42,5.839-3.648c-0.219,2.353-0.625,4.626-1.212,6.812
	c-0.885,3.377-2.363,6.385-4.397,8.945c-2.009,2.523-4.704,4.579-7.998,6.099c-3.305,1.524-7.483,2.295-12.416,2.295
	c-3.487,0-6.625-0.317-9.32-0.947c-2.612-0.609-4.839-1.515-6.619-2.69c-1.723-1.145-2.992-2.514-3.882-4.179
	c-0.62-1.171-0.947-2.545-1.129-4.007h-9.705c0.239,3.195,1.056,6.042,2.529,8.445c1.712,2.811,4.043,5.162,6.927,6.983
	c2.831,1.78,6.119,3.102,9.783,3.93c3.612,0.816,7.457,1.232,11.417,1.232c5.911,0,11.177-0.931,15.653-2.773
	c4.501-1.853,8.31-4.48,11.318-7.8c3.008-3.325,5.277-7.343,6.75-11.933c1.457-4.554,2.201-9.606,2.201-15.028
	c0-5.589-0.911-10.548-2.716-14.742C113.329,584.859,110.79,581.3,107.568,578.479z M104.582,599.388
	c-1.301,1.385-2.987,2.722-5.011,3.971c-2.056,1.249-4.491,2.321-7.249,3.175c-2.732,0.858-5.942,1.29-9.554,1.29
	c-4.314,0-8.045-0.354-11.094-1.062c-2.982-0.692-5.448-1.681-7.348-2.945c-1.832-1.223-3.138-2.664-4.007-4.407
	c-0.864-1.738-1.301-3.758-1.301-5.995c0-2.175,0.463-4.09,1.416-5.849c0.947-1.738,2.357-3.258,4.21-4.512
	c1.92-1.296,4.36-2.321,7.275-3.039c2.961-0.734,6.447-1.108,10.366-1.108c4.168,0,7.785,0.546,10.767,1.623
	c2.966,1.072,5.485,2.482,7.478,4.185c1.988,1.696,3.549,3.611,4.647,5.697c1.004,1.895,1.702,3.81,2.086,5.709
	C106.595,597.108,105.7,598.201,104.582,599.388z"/>
<polygon fill="#FFFFFF" points="296.861,571.975 295.061,571.975 295.061,573.77 295.061,579.072 295.061,580.873 296.861,580.873 
	308.658,580.873 308.658,631.734 296.861,631.734 295.061,631.734 295.061,633.535 295.061,638.885 295.061,640.686 
	296.861,640.686 329.941,640.686 331.736,640.686 331.736,638.885 331.736,633.535 331.736,631.734 329.941,631.734 
	318.181,631.734 318.181,610.02 352.88,610.02 354.675,610.02 354.675,608.219 354.675,602.677 354.675,600.876 352.88,600.876 
	318.181,600.876 318.181,581.117 358.614,581.117 358.614,593.237 367.564,593.237 367.564,573.77 367.564,571.975 365.77,571.975 
	"/>
<polygon fill="#FFFFFF" points="151.332,573.13 151.332,571.329 149.537,571.329 143.75,571.329 143.49,571.329 143.246,571.402 
	127.155,576.106 127.213,576.106 127.213,585.094 127.723,584.947 141.95,580.743 141.95,631.1 129.164,631.1 129.154,631.1 
	129.154,640.045 129.164,640.045 164.128,640.045 164.128,631.1 151.332,631.1 "/>
<path fill="#FFFFFF" d="M258.077,609.286c-0.713-1.562-1.753-3.076-3.169-4.621c-1.374-1.494-3.195-2.878-5.422-4.122
	c-2.165-1.218-4.871-2.264-8.035-3.127c-1.936-0.531-4.147-0.963-6.598-1.307l23.531-17.453l0.729-0.541v-0.905v-4.08v-1.801h-1.8
	h-57.59h-1.795v1.801v17.521h8.951v-10.319h34.896l-20.654,15.335l-0.724,0.536v0.905v5.116v1.79l1.785,0.01
	c5.771,0.037,10.563,0.433,14.258,1.171c3.627,0.734,6.51,1.749,8.565,3.019c1.967,1.207,3.299,2.591,4.069,4.235
	c0.775,1.702,1.171,3.622,1.171,5.704c0,1.904-0.437,3.652-1.353,5.354c-0.9,1.712-2.315,3.236-4.194,4.537
	c-1.946,1.358-4.475,2.462-7.524,3.273c-3.044,0.822-6.765,1.244-11.053,1.244c-3.731,0-7.093-0.333-10.012-0.979
	c-2.852-0.625-5.292-1.598-7.265-2.894c-1.93-1.265-3.367-2.825-4.408-4.771c-1.025-1.926-1.54-4.272-1.54-6.952v-0.026h-9.611
	v0.026c0,4.434,0.926,8.253,2.753,11.364c1.806,3.081,4.262,5.631,7.316,7.588c2.966,1.899,6.432,3.304,10.293,4.163
	c3.793,0.827,7.764,1.248,11.812,1.248c4.85,0,9.414-0.494,13.556-1.473c4.2-0.999,7.858-2.477,10.897-4.402
	c3.102-1.972,5.558-4.438,7.301-7.348c1.759-2.939,2.654-6.322,2.654-10.048c0-1.239-0.114-2.612-0.333-4.08
	C259.3,612.429,258.811,610.847,258.077,609.286z"/>
<path fill="#FFFFFF" d="M379.664,44.645c-68.331,0-123.726,55.394-123.726,123.725c0,68.336,55.395,123.73,123.726,123.73
	c41.786,0,78.723-20.711,101.13-52.428l-35.516-20.503c-15.185,19.581-38.914,32.195-65.609,32.195
	c-45.835,0-82.99-37.155-82.99-82.995c0-45.835,37.155-82.99,82.99-82.99c26.722,0,50.477,12.64,65.656,32.258l35.511-20.503
	C458.434,65.381,421.477,44.645,379.664,44.645z"/>
<g>
	<path fill="#00928F" d="M483.156,228.13l1.083,0.63l2.617,1.509c10.465-18.146,16.537-39.153,16.537-61.607
		c0-22.626-6.182-43.785-16.798-62.04l-2.356,1.358l-1.349,0.78c10.257,17.631,16.221,38.045,16.221,59.901
		C499.111,190.34,493.246,210.608,483.156,228.13z"/>
</g>
<g>
	<path fill="#00928F" d="M491.165,168.661c0-20.404-5.573-39.476-15.153-55.931l-3.689,2.134
		c9.205,15.825,14.57,34.168,14.57,53.797c0,19.446-5.256,37.634-14.311,53.364l3.7,2.139
		C485.696,207.809,491.165,188.888,491.165,168.661z"/>
</g>
<g>
	<path fill="#00928F" d="M478.937,168.661c0-18.183-4.97-35.167-13.499-49.821l-3.508,2.019
		c8.191,14.066,12.963,30.359,12.963,47.802c0,17.261-4.662,33.408-12.691,47.375l3.491,2.019
		C474.076,203.5,478.937,186.66,478.937,168.661z"/>
</g>
<g>
	<path fill="#00928F" d="M466.946,168.661c0-15.992-4.381-30.942-11.891-43.832l-3.699,2.144
		c7.145,12.26,11.308,26.477,11.308,41.688c0,15.033-4.059,29.094-11.053,41.255l3.71,2.145
		C462.68,199.27,466.946,184.475,466.946,168.661z"/>
</g>
<g>
	<path fill="#00928F" d="M454.718,168.661c0-13.765-3.768-26.633-10.246-37.723l-3.7,2.144c6.109,10.459,9.658,22.595,9.658,35.579
		c0,12.801-3.444,24.785-9.397,35.151l3.71,2.139C451.049,194.955,454.718,182.248,454.718,168.661z"/>
</g>
<g>
	<path fill="#00928F" d="M433.887,199.681c5.24-9.148,8.285-19.723,8.285-31.02c0-11.48-3.148-22.205-8.55-31.447l-3.435,1.983
		c5.068,8.659,8.019,18.707,8.019,29.464c0,10.579-2.847,20.477-7.754,29.037L433.887,199.681z"/>
</g>
<g>
	<path fill="#00928F" d="M423.573,193.732c4.235-7.399,6.687-15.944,6.687-25.071c0-9.305-2.555-18-6.947-25.504l-3.788,2.19
		c4.018,6.849,6.359,14.8,6.359,23.313c0,8.336-2.237,16.132-6.099,22.886L423.573,193.732z"/>
</g>
<g>
	<path fill="#00928F" d="M412.739,149.266l-3.805,2.196c2.987,5.068,4.819,10.896,4.819,17.199c0,6.124-1.749,11.786-4.58,16.756
		l3.82,2.212c3.189-5.604,5.037-12.062,5.037-18.968C418.031,161.583,416.085,154.97,412.739,149.266z"/>
</g>
<path fill="#E8573F" d="M379.664,194.81c9.601,0,17.979-5.173,22.526-12.879c2.301-3.893,3.622-8.425,3.622-13.27
	c0-5.022-1.421-9.71-3.877-13.697c-4.6-7.473-12.854-12.447-22.271-12.447c-14.441,0-26.145,11.703-26.145,26.144
	C353.52,183.106,365.223,194.81,379.664,194.81z M379.664,160.116c4.579,0,8.258,3.694,8.258,8.253s-3.679,8.259-8.258,8.259
	c-4.569,0-8.254-3.7-8.254-8.259S375.095,160.116,379.664,160.116z"/>
<path fill="#FFFFFF" d="M379.664,172.34c2.201,0,3.976-1.779,3.976-3.971c0-2.195-1.774-3.971-3.976-3.971
	c-2.196,0-3.966,1.775-3.966,3.971C375.698,170.561,377.468,172.34,379.664,172.34z"/>
<path fill="#676767" d="M379.58,95.428c-13.321,0-25.441,4.876-34.781,12.9c10.199-5.984,22.048-9.46,34.766-9.46
	c12.797,0,24.724,3.518,34.985,9.539C405.167,100.335,392.975,95.428,379.58,95.428z"/>
<path fill="#676767" d="M379.591,102.489c-12.011,0-22.907,4.527-31.191,11.912c9.148-5.349,19.774-8.466,31.171-8.466
	c11.484,0,22.178,3.148,31.379,8.544C402.623,107.043,391.669,102.489,379.591,102.489z"/>
<path fill="#676767" d="M352.261,120.328c8.045-4.637,17.35-7.327,27.319-7.327c10.044,0,19.426,2.722,27.513,7.4
	c-7.196-6.718-16.834-10.845-27.491-10.845C369.006,109.556,359.432,113.662,352.261,120.328z"/>
<path fill="#676767" d="M379.611,116.628c-9.257,0-17.609,3.716-23.688,9.736c6.974-3.986,15.034-6.302,23.667-6.302
	c8.706,0,16.829,2.342,23.839,6.37C397.336,120.37,388.921,116.628,379.611,116.628z"/>
<path fill="#676767" d="M379.617,123.695c-7.993,0-15.117,3.409-20.17,8.794c5.938-3.393,12.807-5.36,20.154-5.36
	c7.395,0,14.305,1.983,20.279,5.401C394.812,127.124,387.656,123.695,379.617,123.695z"/>
<path fill="#676767" d="M362.97,138.625c4.902-2.805,10.574-4.423,16.642-4.423c6.109,0,11.812,1.634,16.746,4.46
	c-4.002-4.798-9.965-7.91-16.73-7.91C372.894,130.751,366.967,133.848,362.97,138.625z"/>
<path fill="#676767" d="M379.58,241.238c13.395,0,25.587-4.907,34.97-12.979c-10.262,6.021-22.188,9.538-34.985,9.538
	c-12.718,0-24.566-3.476-34.766-9.46C354.139,236.362,366.259,241.238,379.58,241.238z"/>
<path fill="#676767" d="M379.591,234.177c12.078,0,23.032-4.554,31.358-11.99c-9.201,5.396-19.895,8.545-31.379,8.545
	c-11.396,0-22.022-3.117-31.171-8.467C356.684,229.649,367.58,234.177,379.591,234.177z"/>
<path fill="#676767" d="M379.602,227.109c10.657,0,20.295-4.126,27.491-10.845c-8.087,4.679-17.469,7.4-27.513,7.4
	c-9.97,0-19.274-2.69-27.319-7.327C359.432,223.004,369.006,227.109,379.602,227.109z"/>
<path fill="#676767" d="M379.611,220.038c9.31,0,17.725-3.742,23.818-9.805c-7.01,4.028-15.133,6.37-23.839,6.37
	c-8.633,0-16.693-2.316-23.667-6.302C362.002,216.322,370.354,220.038,379.611,220.038z"/>
<path fill="#676767" d="M379.617,212.971c8.039,0,15.194-3.429,20.264-8.836c-5.975,3.419-12.885,5.401-20.279,5.401
	c-7.348,0-14.217-1.967-20.154-5.359C364.5,209.562,371.624,212.971,379.617,212.971z"/>
<path fill="#676767" d="M396.357,198.005c-4.934,2.825-10.637,4.46-16.746,4.46c-6.067,0-11.739-1.619-16.642-4.424
	c3.997,4.777,9.924,7.874,16.657,7.874C386.393,205.915,392.355,202.803,396.357,198.005z"/>
</svg>
