<?xml version="1.0" encoding="utf-8"?>
<!-- Generator: Adobe Illustrator 15.1.0, SVG Export Plug-In . SVG Version: 6.00 Build 0)  -->
<!DOCTYPE svg PUBLIC "-//W3C//DTD SVG 1.1//EN" "http://www.w3.org/Graphics/SVG/1.1/DTD/svg11.dtd">
<svg version="1.1" id="Layer_1" xmlns="http://www.w3.org/2000/svg" xmlns:xlink="http://www.w3.org/1999/xlink" x="0px" y="0px"
	 width="550px" height="156.16px" viewBox="0 0 550 156.16" enable-background="new 0 0 550 156.16" xml:space="preserve">
<path fill="#FFFFFF" d="M266.799,32.326c-0.557,0-1.11,0.014-1.661,0.043h-33.272h-16.087v91.463h16.087V95.809h32.851
	c0.688,0.045,1.383,0.076,2.082,0.076c17.552,0,31.78-14.229,31.78-31.78C298.579,46.554,284.352,32.326,266.799,32.326z
	 M266.799,79.665h-34.933V48.457h34.933v0.086c8.593,0,15.563,6.966,15.563,15.562C282.362,72.699,275.393,79.665,266.799,79.665z"
	/>
<polygon fill="#FFFFFF" points="101.056,123.772 123.807,123.772 74.573,74.539 116.763,32.349 94.012,32.349 48.434,77.929 
	48.434,32.349 32.344,32.349 32.344,123.813 48.434,123.813 48.434,100.68 63.199,85.914 "/>
<g>
	<path fill="#FFFFFF" d="M365.43,94.966c13.889-3.401,24.195-15.925,24.195-30.861c0-17.551-14.228-31.778-31.78-31.778
		c-0.557,0-1.111,0.014-1.66,0.043h-33.271h-16.088v91.463h16.088V95.809h20.607l28.022,28.023h22.751L365.43,94.966z
		 M322.913,79.665V48.457h34.932v0.086c8.596,0,15.563,6.966,15.563,15.562c0,8.595-6.968,15.561-15.563,15.561H322.913z"/>
</g>
<path fill="#FFFFFF" d="M407.956,80.697v43.116h109.7V80.697H407.956z M448.306,86.617v9.348h-4.298v-5.821h-19.424v9.495h16.667
	h0.863v0.863v2.665v0.863h-0.863h-16.667v10.43h5.648h0.863v0.863v2.572v0.863h-0.863h-15.89h-0.863v-0.863v-2.572v-0.863h0.863
	h5.669V90.028h-5.669h-0.863v-0.863v-2.548v-0.863h0.863h33.1h0.863V86.617z M512.678,86.617v2.548v0.863h-0.863h-5.669v24.432
	h5.669h0.863v0.863v2.572v0.863h-0.863h-15.889h-0.863v-0.863v-2.572v-0.863h0.863h5.669V94.215l-15.575,24.148l-0.255,0.396h-0.471
	h-2.527h-0.472l-0.255-0.396l-15.597-24.255v20.353h5.646h0.863v0.863v2.572v0.863h-0.863H456.2h-0.863v-0.863v-2.572v-0.863h0.863
	h5.671V90.028H456.2h-0.863v-0.863v-2.548v-0.863h0.863h9.561h0.469l0.256,0.394l17.643,27.215l17.353-27.21l0.254-0.399h0.474
	h9.606h0.863V86.617z"/>
<g>
	<path fill="#FFFFFF" d="M478.407,65.621c-0.185-0.419-0.439-0.794-0.756-1.113c-0.317-0.317-0.691-0.572-1.114-0.761
		c-0.442-0.193-0.908-0.29-1.39-0.29c-0.498,0-0.971,0.097-1.405,0.288c-0.429,0.191-0.802,0.449-1.113,0.768
		c-0.316,0.33-0.562,0.708-0.736,1.128c-0.18,0.422-0.271,0.892-0.271,1.388c0,0.482,0.093,0.944,0.274,1.373
		c0.171,0.415,0.421,0.792,0.738,1.113c0.313,0.313,0.688,0.563,1.117,0.746c0.438,0.182,0.906,0.272,1.396,0.272
		c0.474,0,0.934-0.09,1.367-0.269c0.437-0.186,0.812-0.433,1.126-0.739c0.323-0.315,0.581-0.69,0.768-1.114
		c0.19-0.432,0.288-0.897,0.288-1.382C478.696,66.529,478.599,66.056,478.407,65.621z"/>
	<path fill="none" d="M436.85,43.725c-0.955-0.816-2.163-1.491-3.591-2.007c-1.432-0.517-3.172-0.779-5.171-0.779
		c-1.881,0-3.558,0.179-4.982,0.531c-1.397,0.347-2.572,0.838-3.49,1.458c-0.891,0.605-1.571,1.334-2.023,2.167
		c-0.453,0.834-0.683,1.779-0.683,2.811c0,1.07,0.212,2.041,0.628,2.883c0.415,0.835,1.044,1.526,1.925,2.113
		c0.907,0.606,2.095,1.082,3.528,1.414c1.471,0.34,3.264,0.512,5.327,0.512c1.724,0,3.269-0.209,4.591-0.62
		c1.335-0.417,2.508-0.931,3.482-1.529c0.972-0.597,1.78-1.237,2.405-1.904c0.534-0.569,0.967-1.096,1.289-1.569
		c-0.185-0.908-0.521-1.829-1.001-2.741C438.554,45.46,437.802,44.538,436.85,43.725z"/>
	<path fill="#FFFFFF" d="M443.86,45.813c-0.861-2.018-2.082-3.727-3.627-5.079c-1.534-1.34-3.377-2.356-5.477-3.019
		c-2.075-0.654-4.364-0.985-6.805-0.985c-2.43,0-4.625,0.284-6.526,0.845c-1.924,0.563-3.575,1.352-4.904,2.343
		c-1.352,1.005-2.396,2.207-3.106,3.571c-0.716,1.369-1.078,2.856-1.078,4.418c0,1.876,0.415,3.542,1.232,4.952
		c0.809,1.394,1.927,2.567,3.323,3.487c1.368,0.9,2.996,1.579,4.84,2.017c1.811,0.433,3.789,0.652,5.879,0.652
		c2.185,0,4.13-0.216,5.782-0.644c1.638-0.422,3.054-0.93,4.21-1.509c1.144-0.572,2.087-1.161,2.805-1.75
		c-0.104,1.125-0.297,2.22-0.577,3.271c-0.43,1.621-1.142,3.066-2.117,4.297c-0.965,1.212-2.258,2.197-3.84,2.926
		c-1.593,0.733-3.601,1.104-5.967,1.104c-1.668,0-3.173-0.153-4.474-0.456c-1.257-0.293-2.326-0.728-3.18-1.291
		c-0.826-0.547-1.436-1.205-1.863-2.007c-0.304-0.569-0.493-1.219-0.58-1.926h-0.876h-2.888h-0.866l0.006,0.068
		c0.12,1.527,0.528,2.869,1.212,3.989c0.826,1.355,1.945,2.483,3.327,3.354c1.353,0.854,2.935,1.49,4.7,1.887
		c1.728,0.393,3.572,0.592,5.481,0.592c2.843,0,5.373-0.447,7.521-1.328c2.16-0.89,3.989-2.151,5.435-3.748
		c1.441-1.596,2.532-3.525,3.244-5.735c0.699-2.181,1.054-4.609,1.054-7.219C445.161,50.205,444.724,47.823,443.86,45.813z
		 M438.796,50.775c-0.625,0.667-1.434,1.307-2.405,1.904c-0.975,0.598-2.147,1.112-3.482,1.529c-1.322,0.411-2.867,0.62-4.591,0.62
		c-2.063,0-3.856-0.172-5.327-0.512c-1.434-0.333-2.621-0.808-3.528-1.414c-0.881-0.586-1.51-1.277-1.925-2.113
		c-0.416-0.842-0.628-1.812-0.628-2.883c0-1.031,0.229-1.977,0.683-2.811c0.452-0.833,1.133-1.562,2.023-2.167
		c0.918-0.621,2.093-1.112,3.49-1.458c1.425-0.353,3.102-0.531,4.982-0.531c1.999,0,3.739,0.262,5.171,0.779
		c1.428,0.516,2.636,1.191,3.591,2.007c0.952,0.813,1.704,1.735,2.234,2.741c0.48,0.912,0.816,1.833,1.001,2.741
		C439.763,49.68,439.33,50.207,438.796,50.775z"/>
	<polygon fill="#FFFFFF" points="461.255,66.007 461.255,38.162 461.255,37.299 460.392,37.299 457.613,37.299 457.489,37.299 
		457.371,37.333 449.67,39.584 449.67,43.911 449.914,43.839 456.75,41.822 456.75,66.007 450.604,66.007 450.601,66.007 
		450.601,70.304 450.604,70.304 467.403,70.304 467.403,66.007 	"/>
	<path fill="#FFFFFF" d="M513.229,57.783c-0.11-0.746-0.347-1.504-0.699-2.254c-0.352-0.755-0.864-1.503-1.521-2.22
		c-0.66-0.719-1.537-1.385-2.606-1.98c-1.044-0.583-2.342-1.088-3.857-1.503c-0.938-0.254-1.999-0.464-3.169-0.626l11.299-8.386
		l0.349-0.259V40.12v-1.958v-0.863h-0.863h-27.66h-0.863v0.863v8.414h4.299V41.62h16.765l-9.923,7.368l-0.349,0.259v0.434v2.457
		v0.858l0.858,0.005c2.758,0.016,5.062,0.207,6.846,0.565c1.743,0.349,3.13,0.836,4.121,1.448c0.934,0.573,1.588,1.255,1.948,2.03
		c0.376,0.817,0.567,1.741,0.567,2.744c0,0.898-0.219,1.765-0.65,2.576c-0.432,0.813-1.11,1.546-2.02,2.18
		c-0.935,0.651-2.149,1.179-3.61,1.569c-1.479,0.396-3.264,0.597-5.309,0.597c-1.788,0-3.405-0.158-4.808-0.47
		c-1.371-0.301-2.546-0.769-3.495-1.392c-0.923-0.606-1.614-1.355-2.114-2.292c-0.491-0.923-0.74-2.047-0.74-3.337v-0.011h-4.616
		v0.011c0,2.123,0.445,3.959,1.324,5.458c0.869,1.484,2.051,2.712,3.512,3.647c1.424,0.913,3.088,1.583,4.946,1.994
		c1.812,0.399,3.721,0.601,5.673,0.601c2.341,0,4.533-0.238,6.516-0.707c2.005-0.474,3.764-1.186,5.228-2.115
		c1.497-0.947,2.679-2.135,3.511-3.531c0.845-1.41,1.273-3.033,1.273-4.823C513.389,59.152,513.335,58.493,513.229,57.783z"/>
</g>
<g>
	<path fill="#FFFFFF" d="M160.013,110.848c-18.099,0-32.771-14.672-32.771-32.774c0-18.1,14.671-32.771,32.771-32.771
		c10.552,0,19.932,4.993,25.926,12.739l14.022-8.096c-8.846-12.539-23.439-20.729-39.95-20.729
		c-26.982,0-48.856,21.876-48.856,48.856c0,26.983,21.874,48.859,48.856,48.859c16.5,0,31.085-8.178,39.934-20.704l-14.024-8.097
		C179.925,105.867,170.555,110.848,160.013,110.848z"/>
	<g>
		<g>
			<path fill="#FFFFFF" d="M202.236,53.69l-0.931,0.538l-0.532,0.309c4.05,6.961,6.405,15.021,6.405,23.65
				c0,8.561-2.315,16.566-6.3,23.483l0.427,0.251l1.034,0.596c4.132-7.168,6.53-15.461,6.53-24.33
				C208.869,69.254,206.428,60.898,202.236,53.69z"/>
		</g>
		<g>
			<path fill="#FFFFFF" d="M204.04,78.188c0-8.055-2.201-15.588-5.983-22.085l-1.457,0.843c3.635,6.25,5.753,13.492,5.753,21.242
				c0,7.682-2.075,14.861-5.651,21.075l1.461,0.842C201.88,93.648,204.04,86.177,204.04,78.188z"/>
		</g>
		<g>
			<path fill="#FFFFFF" d="M193.881,58.515l-1.385,0.798c3.234,5.556,5.119,11.987,5.119,18.875c0,6.818-1.841,13.192-5.012,18.708
				l1.379,0.797c3.31-5.745,5.229-12.395,5.229-19.505C199.211,71.008,197.249,64.302,193.881,58.515z"/>
		</g>
		<g>
			<path fill="#FFFFFF" d="M189.782,60.882l-1.461,0.847c2.821,4.842,4.465,10.455,4.465,16.459c0,5.939-1.603,11.491-4.365,16.291
				l1.465,0.847c2.905-5.051,4.59-10.891,4.59-17.138C194.477,71.875,192.747,65.97,189.782,60.882z"/>
		</g>
		<g>
			<path fill="#FFFFFF" d="M185.602,63.295l-1.461,0.846c2.413,4.131,3.814,8.923,3.814,14.047c0,5.056-1.36,9.79-3.711,13.883
				l1.465,0.843c2.49-4.34,3.939-9.358,3.939-14.726C189.648,72.755,188.16,67.671,185.602,63.295z"/>
		</g>
		<g>
			<path fill="#FFFFFF" d="M181.318,65.772l-1.356,0.781c2.001,3.419,3.167,7.389,3.167,11.634c0,4.18-1.124,8.088-3.062,11.467
				l1.356,0.785c2.069-3.613,3.271-7.788,3.271-12.252C184.694,73.655,183.451,69.422,181.318,65.772z"/>
		</g>
		<g>
			<path fill="#FFFFFF" d="M175.751,68.982c1.586,2.704,2.511,5.844,2.511,9.205c0,3.292-0.883,6.37-2.408,9.037l1.496,0.863
				c1.672-2.922,2.64-6.296,2.64-9.9c0-3.674-1.009-7.105-2.743-10.068L175.751,68.982z"/>
		</g>
		<g>
			<path fill="#FFFFFF" d="M171.57,71.398c1.179,2.002,1.903,4.303,1.903,6.789c0,2.421-0.69,4.656-1.809,6.617l1.508,0.875
				c1.26-2.215,1.989-4.763,1.989-7.492c0-2.794-0.769-5.404-2.09-7.656L171.57,71.398z"/>
		</g>
	</g>
	<path fill="#FFFFFF" d="M168.806,72.779c-1.816-2.95-5.075-4.915-8.794-4.915c-5.702,0-10.324,4.624-10.324,10.323
		c0,5.705,4.622,10.328,10.324,10.328c3.791,0,7.1-2.043,8.896-5.088c0.908-1.537,1.43-3.324,1.43-5.24
		C170.337,76.207,169.776,74.354,168.806,72.779z M160.011,81.336c-1.804,0-3.259-1.463-3.259-3.263
		c0-1.801,1.455-3.259,3.259-3.259c1.808,0,3.261,1.458,3.261,3.259C163.272,79.873,161.819,81.336,160.011,81.336z"/>
	<path fill="#FFFFFF" d="M160.011,76.507c-0.867,0-1.566,0.699-1.566,1.566s0.699,1.569,1.566,1.569c0.869,0,1.57-0.702,1.57-1.569
		S160.88,76.507,160.011,76.507z"/>
	<g>
		<path fill="#FFFFFF" d="M173.787,54.396c-3.705-3.188-8.519-5.124-13.808-5.124c-5.261,0-10.046,1.923-13.735,5.092
			c4.028-2.363,8.707-3.735,13.729-3.735C165.025,50.629,169.735,52.018,173.787,54.396z"/>
		<path fill="#FFFFFF" d="M172.365,56.793c-3.288-2.935-7.613-4.734-12.382-4.734c-4.743,0-9.045,1.788-12.317,4.705
			c3.613-2.111,7.809-3.345,12.309-3.345C164.509,53.419,168.732,54.664,172.365,56.793z"/>
		<path fill="#FFFFFF" d="M170.842,59.131c-2.842-2.65-6.647-4.281-10.856-4.281c-4.184,0-7.964,1.623-10.796,4.253
			c3.177-1.829,6.851-2.894,10.788-2.894C163.944,56.209,167.649,57.286,170.842,59.131z"/>
		<path fill="#FFFFFF" d="M169.396,61.515c-2.406-2.396-5.729-3.871-9.405-3.871c-3.656,0-6.954,1.468-9.354,3.843
			c2.754-1.574,5.937-2.486,9.346-2.486C163.42,59,166.628,59.925,169.396,61.515z"/>
		<path fill="#FFFFFF" d="M167.994,63.923c-2.001-2.137-4.827-3.488-8.001-3.488c-3.156,0-5.969,1.344-7.964,3.473
			c2.344-1.34,5.057-2.117,7.958-2.117C162.906,61.79,165.635,62.571,167.994,63.923z"/>
		<path fill="#FFFFFF" d="M166.603,66.344c-1.58-1.895-3.935-3.123-6.606-3.123c-2.659,0-4.999,1.221-6.577,3.106
			c1.936-1.105,4.175-1.746,6.571-1.746C162.403,64.581,164.655,65.227,166.603,66.344z"/>
	</g>
	<g>
		<path fill="#FFFFFF" d="M173.787,101.725c-3.705,3.185-8.519,5.124-13.808,5.124c-5.261,0-10.046-1.927-13.735-5.096
			c4.028,2.363,8.707,3.735,13.729,3.735C165.025,105.488,169.735,104.1,173.787,101.725z"/>
		<path fill="#FFFFFF" d="M172.365,99.324c-3.288,2.938-7.613,4.734-12.382,4.734c-4.743,0-9.045-1.788-12.317-4.701
			c3.613,2.111,7.809,3.341,12.309,3.341C164.509,102.698,168.732,101.457,172.365,99.324z"/>
		<path fill="#FFFFFF" d="M170.842,96.985c-2.842,2.655-6.647,4.282-10.856,4.282c-4.184,0-7.964-1.619-10.796-4.253
			c3.177,1.833,6.851,2.893,10.788,2.893C163.944,99.907,167.649,98.835,170.842,96.985z"/>
		<path fill="#FFFFFF" d="M169.396,94.606c-2.406,2.392-5.729,3.871-9.405,3.871c-3.656,0-6.954-1.468-9.354-3.847
			c2.754,1.574,5.937,2.49,9.346,2.49C163.42,97.121,166.628,96.196,169.396,94.606z"/>
		<path fill="#FFFFFF" d="M167.994,92.198c-2.001,2.133-4.827,3.489-8.001,3.489c-3.156,0-5.969-1.349-7.964-3.473
			c2.344,1.339,5.057,2.116,7.958,2.116C162.906,94.331,165.635,93.546,167.994,92.198z"/>
		<path fill="#FFFFFF" d="M166.603,89.777c-1.58,1.895-3.935,3.123-6.606,3.123c-2.659,0-4.999-1.225-6.577-3.111
			c1.936,1.11,4.175,1.747,6.571,1.747C162.403,91.536,164.655,90.891,166.603,89.777z"/>
	</g>
</g>
</svg>
