<?xml version="1.0" encoding="UTF-8" standalone="no"?>
<!-- Generator: Adobe Illustrator 15.1.0, SVG Export Plug-In . SVG Version: 6.00 Build 0)  -->

<svg
   xmlns:dc="http://purl.org/dc/elements/1.1/"
   xmlns:cc="http://creativecommons.org/ns#"
   xmlns:rdf="http://www.w3.org/1999/02/22-rdf-syntax-ns#"
   xmlns:svg="http://www.w3.org/2000/svg"
   xmlns="http://www.w3.org/2000/svg"
   xmlns:sodipodi="http://sodipodi.sourceforge.net/DTD/sodipodi-0.dtd"
   xmlns:inkscape="http://www.inkscape.org/namespaces/inkscape"
   sodipodi:docname="kcpr_colored_sdjsjd.svg"
   inkscape:version="0.48.4 r9939"
   xml:space="preserve"
   enable-background="new 0 0 550 156.16"
   viewBox="0 0 537 110.16"
   height="110.16"
   width="537"
   y="0px"
   x="0px"
   id="Layer_1"
   version="1.1"><metadata
   id="metadata3082"><rdf:RDF><cc:Work
       rdf:about=""><dc:format>image/svg+xml</dc:format><dc:type
         rdf:resource="http://purl.org/dc/dcmitype/StillImage" /><dc:title></dc:title></cc:Work></rdf:RDF></metadata><defs
   id="defs3080" /><sodipodi:namedview
   pagecolor="#ffffff"
   bordercolor="#666666"
   borderopacity="1"
   objecttolerance="10"
   gridtolerance="10"
   guidetolerance="10"
   inkscape:pageopacity="0"
   inkscape:pageshadow="2"
   inkscape:window-width="1596"
   inkscape:window-height="881"
   id="namedview3078"
   showgrid="false"
   showguides="true"
   inkscape:guide-bbox="true"
   inkscape:zoom="1.8513341"
   inkscape:cx="279.94396"
   inkscape:cy="88.186678"
   inkscape:window-x="0"
   inkscape:window-y="15"
   inkscape:window-maximized="0"
   inkscape:current-layer="g4021"><sodipodi:guide
     orientation="1,0"
     position="-0.38194444,158.125"
     id="guide3084" /></sodipodi:namedview>





<g
   id="g3999"
   style="fill:#461818;fill-opacity:1"
   transform="matrix(1.0997475,0,0,1.0997475,-26.308295,-73.355832)"><path
     style="fill:#461818;fill-opacity:1"
     id="path4001"
     d="m 260.90509,72.109889 c -0.557,0 -1.11,0.014 -1.661,0.043 h -33.272 -16.087 v 91.463001 h 16.087 v -28.023 h 32.851 c 0.688,0.045 1.383,0.076 2.082,0.076 17.552,0 31.78,-14.229 31.78,-31.78 0,-17.551001 -14.227,-31.779001 -31.78,-31.779001 z m 0,47.339001 h -34.933 V 88.240889 h 34.933 v 0.086 c 8.593,0 15.563,6.966 15.563,15.562001 0,8.594 -6.969,15.56 -15.563,15.56 z"
     inkscape:connector-curvature="0" /><polygon
     style="fill:#461818;fill-opacity:1"
     id="polygon4003"
     points="123.807,123.772 74.573,74.539 116.763,32.349 94.012,32.349 48.434,77.929 48.434,32.349 32.344,32.349 32.344,123.813 48.434,123.813 48.434,100.68 63.199,85.914 101.056,123.772 "
     transform="translate(-5.8939095,39.783889)" /><g
     style="fill:#461818;fill-opacity:1"
     id="g4005"
     transform="translate(-5.8939095,39.783889)">
	<path
   style="fill:#461818;fill-opacity:1"
   id="path4007"
   d="m 365.43,94.966 c 13.889,-3.401 24.195,-15.925 24.195,-30.861 0,-17.551 -14.228,-31.778 -31.78,-31.778 -0.557,0 -1.111,0.014 -1.66,0.043 h -33.271 -16.088 v 91.463 h 16.088 V 95.809 h 20.607 l 28.022,28.023 h 22.751 L 365.43,94.966 z M 322.913,79.665 V 48.457 h 34.932 v 0.086 c 8.596,0 15.563,6.966 15.563,15.562 0,8.595 -6.968,15.561 -15.563,15.561 h -34.932 z"
   inkscape:connector-curvature="0" />
</g><path
     style="fill:#461818;fill-opacity:1"
     id="path4009"
     d="m 402.06209,120.48089 v 43.116 h 109.7 v -43.116 h -109.7 z m 40.35,5.92 v 9.348 h -4.298 v -5.821 h -19.424 v 9.495 h 16.667 0.863 v 0.863 2.665 0.863 h -0.863 -16.667 v 10.43 h 5.648 0.863 v 0.863 2.572 0.863 h -0.863 -15.89 -0.863 v -0.863 -2.572 -0.863 h 0.863 5.669 v -24.432 h -5.669 -0.863 v -0.863 -2.548 -0.863 h 0.863 33.1 0.863 v 0.863 z m 64.372,0 v 2.548 0.863 h -0.863 -5.669 v 24.432 h 5.669 0.863 v 0.863 2.572 0.863 h -0.863 -15.889 -0.863 v -0.863 -2.572 -0.863 h 0.863 5.669 v -20.245 l -15.575,24.148 -0.255,0.396 h -0.471 -2.527 -0.472 l -0.255,-0.396 -15.597,-24.255 v 20.353 h 5.646 0.863 v 0.863 2.572 0.863 h -0.863 -15.889 -0.863 v -0.863 -2.572 -0.863 h 0.863 5.671 v -24.433 h -5.671 -0.863 v -0.863 -2.548 -0.863 h 0.863 9.561 0.469 l 0.256,0.394 17.643,27.215 17.353,-27.21 0.254,-0.399 h 0.474 9.606 0.863 v 0.863 z"
     inkscape:connector-curvature="0" /><g
     style="fill:#461818;fill-opacity:1"
     id="g4011"
     transform="translate(-5.8939095,39.783889)">
	<path
   style="fill:#461818;fill-opacity:1"
   id="path4013"
   d="m 478.407,65.621 c -0.185,-0.419 -0.439,-0.794 -0.756,-1.113 -0.317,-0.317 -0.691,-0.572 -1.114,-0.761 -0.442,-0.193 -0.908,-0.29 -1.39,-0.29 -0.498,0 -0.971,0.097 -1.405,0.288 -0.429,0.191 -0.802,0.449 -1.113,0.768 -0.316,0.33 -0.562,0.708 -0.736,1.128 -0.18,0.422 -0.271,0.892 -0.271,1.388 0,0.482 0.093,0.944 0.274,1.373 0.171,0.415 0.421,0.792 0.738,1.113 0.313,0.313 0.688,0.563 1.117,0.746 0.438,0.182 0.906,0.272 1.396,0.272 0.474,0 0.934,-0.09 1.367,-0.269 0.437,-0.186 0.812,-0.433 1.126,-0.739 0.323,-0.315 0.581,-0.69 0.768,-1.114 0.19,-0.432 0.288,-0.897 0.288,-1.382 0,-0.5 -0.097,-0.973 -0.289,-1.408 z"
   inkscape:connector-curvature="0" />
	
	<path
   style="fill:#461818;fill-opacity:1"
   id="path4015"
   d="m 443.86,45.813 c -0.861,-2.018 -2.082,-3.727 -3.627,-5.079 -1.534,-1.34 -3.377,-2.356 -5.477,-3.019 -2.075,-0.654 -4.364,-0.985 -6.805,-0.985 -2.43,0 -4.625,0.284 -6.526,0.845 -1.924,0.563 -3.575,1.352 -4.904,2.343 -1.352,1.005 -2.396,2.207 -3.106,3.571 -0.716,1.369 -1.078,2.856 -1.078,4.418 0,1.876 0.415,3.542 1.232,4.952 0.809,1.394 1.927,2.567 3.323,3.487 1.368,0.9 2.996,1.579 4.84,2.017 1.811,0.433 3.789,0.652 5.879,0.652 2.185,0 4.13,-0.216 5.782,-0.644 1.638,-0.422 3.054,-0.93 4.21,-1.509 1.144,-0.572 2.087,-1.161 2.805,-1.75 -0.104,1.125 -0.297,2.22 -0.577,3.271 -0.43,1.621 -1.142,3.066 -2.117,4.297 -0.965,1.212 -2.258,2.197 -3.84,2.926 -1.593,0.733 -3.601,1.104 -5.967,1.104 -1.668,0 -3.173,-0.153 -4.474,-0.456 -1.257,-0.293 -2.326,-0.728 -3.18,-1.291 -0.826,-0.547 -1.436,-1.205 -1.863,-2.007 -0.304,-0.569 -0.493,-1.219 -0.58,-1.926 h -0.876 -2.888 -0.866 l 0.006,0.068 c 0.12,1.527 0.528,2.869 1.212,3.989 0.826,1.355 1.945,2.483 3.327,3.354 1.353,0.854 2.935,1.49 4.7,1.887 1.728,0.393 3.572,0.592 5.481,0.592 2.843,0 5.373,-0.447 7.521,-1.328 2.16,-0.89 3.989,-2.151 5.435,-3.748 1.441,-1.596 2.532,-3.525 3.244,-5.735 0.699,-2.181 1.054,-4.609 1.054,-7.219 10e-4,-2.685 -0.436,-5.067 -1.3,-7.077 z m -5.064,4.962 c -0.625,0.667 -1.434,1.307 -2.405,1.904 -0.975,0.598 -2.147,1.112 -3.482,1.529 -1.322,0.411 -2.867,0.62 -4.591,0.62 -2.063,0 -3.856,-0.172 -5.327,-0.512 -1.434,-0.333 -2.621,-0.808 -3.528,-1.414 -0.881,-0.586 -1.51,-1.277 -1.925,-2.113 -0.416,-0.842 -0.628,-1.812 -0.628,-2.883 0,-1.031 0.229,-1.977 0.683,-2.811 0.452,-0.833 1.133,-1.562 2.023,-2.167 0.918,-0.621 2.093,-1.112 3.49,-1.458 1.425,-0.353 3.102,-0.531 4.982,-0.531 1.999,0 3.739,0.262 5.171,0.779 1.428,0.516 2.636,1.191 3.591,2.007 0.952,0.813 1.704,1.735 2.234,2.741 0.48,0.912 0.816,1.833 1.001,2.741 -0.322,0.473 -0.755,1 -1.289,1.568 z"
   inkscape:connector-curvature="0" />
	<polygon
   style="fill:#461818;fill-opacity:1"
   id="polygon4017"
   points="461.255,38.162 461.255,37.299 460.392,37.299 457.613,37.299 457.489,37.299 457.371,37.333 449.67,39.584 449.67,43.911 449.914,43.839 456.75,41.822 456.75,66.007 450.604,66.007 450.601,66.007 450.601,70.304 450.604,70.304 467.403,70.304 467.403,66.007 461.255,66.007 " />
	<path
   style="fill:#461818;fill-opacity:1"
   id="path4019"
   d="m 513.229,57.783 c -0.11,-0.746 -0.347,-1.504 -0.699,-2.254 -0.352,-0.755 -0.864,-1.503 -1.521,-2.22 -0.66,-0.719 -1.537,-1.385 -2.606,-1.98 -1.044,-0.583 -2.342,-1.088 -3.857,-1.503 -0.938,-0.254 -1.999,-0.464 -3.169,-0.626 l 11.299,-8.386 0.349,-0.259 V 40.12 38.162 37.299 h -0.863 -27.66 -0.863 v 0.863 8.414 h 4.299 V 41.62 h 16.765 l -9.923,7.368 -0.349,0.259 v 0.434 2.457 0.858 l 0.858,0.005 c 2.758,0.016 5.062,0.207 6.846,0.565 1.743,0.349 3.13,0.836 4.121,1.448 0.934,0.573 1.588,1.255 1.948,2.03 0.376,0.817 0.567,1.741 0.567,2.744 0,0.898 -0.219,1.765 -0.65,2.576 -0.432,0.813 -1.11,1.546 -2.02,2.18 -0.935,0.651 -2.149,1.179 -3.61,1.569 -1.479,0.396 -3.264,0.597 -5.309,0.597 -1.788,0 -3.405,-0.158 -4.808,-0.47 -1.371,-0.301 -2.546,-0.769 -3.495,-1.392 -0.923,-0.606 -1.614,-1.355 -2.114,-2.292 -0.491,-0.923 -0.74,-2.047 -0.74,-3.337 v -0.011 h -4.616 v 0.011 c 0,2.123 0.445,3.959 1.324,5.458 0.869,1.484 2.051,2.712 3.512,3.647 1.424,0.913 3.088,1.583 4.946,1.994 1.812,0.399 3.721,0.601 5.673,0.601 2.341,0 4.533,-0.238 6.516,-0.707 2.005,-0.474 3.764,-1.186 5.228,-2.115 1.497,-0.947 2.679,-2.135 3.511,-3.531 0.845,-1.41 1.273,-3.033 1.273,-4.823 -0.003,-0.591 -0.057,-1.25 -0.163,-1.96 z"
   inkscape:connector-curvature="0" />
</g><g
     style="fill:#461818;fill-opacity:1"
     id="g4021">
	<path
   sodipodi:type="arc"
   style="fill:#000f0b;fill-opacity:1"
   id="path6021"
   sodipodi:cx="222.00208"
   sodipodi:cy="-15.60802"
   sodipodi:rx="53.474949"
   sodipodi:ry="51.314346"
   d="m 271.25102,-35.601539 c 11.50704,26.1004735 -1.21415,56.210491 -28.41359,67.252607 -27.19944,11.042115 -58.57725,-1.165096 -70.0843,-27.2655689 -11.50704,-26.1004731 1.21415,-56.2104911 28.41359,-67.2526061 26.8622,-10.905204 57.87624,0.857193 69.71071,26.438509"
   transform="matrix(0.639852,0,0,0.639852,10.285949,126.18211)"
   sodipodi:start="5.8829574"
   sodipodi:end="12.148576"
   sodipodi:open="true" /><path
   style="fill:#461818;fill-opacity:1"
   id="path4023"
   d="m 154.11909,150.63189 c -18.099,0 -36.05436,-15.36323 -36.05436,-33.46523 0,-18.100004 17.26313,-35.881555 35.36313,-35.881555 10.552,0 20.62323,8.794784 26.61723,16.540784 l 14.022,-8.096 c -8.846,-12.539 -23.439,-20.729 -39.95,-20.729 -26.982,0 -48.856,21.876 -48.856,48.856001 0,26.983 21.874,48.859 48.856,48.859 16.5,0 31.085,-8.178 39.934,-20.704 l -14.024,-8.097 c -5.996,7.736 -15.366,12.717 -25.908,12.717 z"
   inkscape:connector-curvature="0"
   sodipodi:nodetypes="sssccsssccs" />
	
	
	
	<g
   style="fill:#461818;fill-opacity:1"
   id="g4063">
		
		
		
		
		
		
	</g>
	
</g></g><g
   id="g3090"
   style="fill:#e04c4c;fill-opacity:1"
   transform="matrix(1.0997475,0,0,1.0997475,-34.686124,-31.421434)"><path
     style="fill:#e04c4c;fill-opacity:1"
     id="path2986"
     d="m 266.799,32.326 c -0.557,0 -1.11,0.014 -1.661,0.043 h -33.272 -16.087 v 91.463 h 16.087 V 95.809 h 32.851 c 0.688,0.045 1.383,0.076 2.082,0.076 17.552,0 31.78,-14.229 31.78,-31.78 0,-17.551 -14.227,-31.779 -31.78,-31.779 z m 0,47.339 H 231.866 V 48.457 h 34.933 v 0.086 c 8.593,0 15.563,6.966 15.563,15.562 0,8.594 -6.969,15.56 -15.563,15.56 z"
     inkscape:connector-curvature="0" /><polygon
     style="fill:#e04c4c;fill-opacity:1"
     id="polygon2988"
     points="32.344,123.813 48.434,123.813 48.434,100.68 63.199,85.914 101.056,123.772 123.807,123.772 74.573,74.539 116.763,32.349 94.012,32.349 48.434,77.929 48.434,32.349 32.344,32.349 " /><g
     style="fill:#e04c4c;fill-opacity:1"
     id="g2990">
	<path
   style="fill:#e04c4c;fill-opacity:1"
   id="path2992"
   d="m 365.43,94.966 c 13.889,-3.401 24.195,-15.925 24.195,-30.861 0,-17.551 -14.228,-31.778 -31.78,-31.778 -0.557,0 -1.111,0.014 -1.66,0.043 h -33.271 -16.088 v 91.463 h 16.088 V 95.809 h 20.607 l 28.022,28.023 h 22.751 L 365.43,94.966 z M 322.913,79.665 V 48.457 h 34.932 v 0.086 c 8.596,0 15.563,6.966 15.563,15.562 0,8.595 -6.968,15.561 -15.563,15.561 h -34.932 z"
   inkscape:connector-curvature="0" />
</g><path
     style="fill:#e04c4c;fill-opacity:1"
     id="path2994"
     d="m 407.956,80.697 v 43.116 h 109.7 V 80.697 h -109.7 z m 40.35,5.92 v 9.348 h -4.298 v -5.821 h -19.424 v 9.495 h 16.667 0.863 v 0.863 2.665 0.863 h -0.863 -16.667 v 10.43 h 5.648 0.863 v 0.863 2.572 0.863 h -0.863 -15.89 -0.863 v -0.863 -2.572 -0.863 h 0.863 5.669 V 90.028 h -5.669 -0.863 v -0.863 -2.548 -0.863 h 0.863 33.1 0.863 v 0.863 z m 64.372,0 v 2.548 0.863 h -0.863 -5.669 v 24.432 h 5.669 0.863 v 0.863 2.572 0.863 h -0.863 -15.889 -0.863 v -0.863 -2.572 -0.863 h 0.863 5.669 V 94.215 l -15.575,24.148 -0.255,0.396 h -0.471 -2.527 -0.472 l -0.255,-0.396 -15.597,-24.255 v 20.353 h 5.646 0.863 v 0.863 2.572 0.863 h -0.863 -15.889 -0.863 v -0.863 -2.572 -0.863 h 0.863 5.671 V 90.028 h -5.671 -0.863 v -0.863 -2.548 -0.863 h 0.863 9.561 0.469 l 0.256,0.394 17.643,27.215 17.353,-27.21 0.254,-0.399 h 0.474 9.606 0.863 v 0.863 z"
     inkscape:connector-curvature="0" /><g
     style="fill:#e04c4c;fill-opacity:1"
     id="g2996">
	<path
   style="fill:#e04c4c;fill-opacity:1"
   id="path2998"
   d="m 478.407,65.621 c -0.185,-0.419 -0.439,-0.794 -0.756,-1.113 -0.317,-0.317 -0.691,-0.572 -1.114,-0.761 -0.442,-0.193 -0.908,-0.29 -1.39,-0.29 -0.498,0 -0.971,0.097 -1.405,0.288 -0.429,0.191 -0.802,0.449 -1.113,0.768 -0.316,0.33 -0.562,0.708 -0.736,1.128 -0.18,0.422 -0.271,0.892 -0.271,1.388 0,0.482 0.093,0.944 0.274,1.373 0.171,0.415 0.421,0.792 0.738,1.113 0.313,0.313 0.688,0.563 1.117,0.746 0.438,0.182 0.906,0.272 1.396,0.272 0.474,0 0.934,-0.09 1.367,-0.269 0.437,-0.186 0.812,-0.433 1.126,-0.739 0.323,-0.315 0.581,-0.69 0.768,-1.114 0.19,-0.432 0.288,-0.897 0.288,-1.382 0,-0.5 -0.097,-0.973 -0.289,-1.408 z"
   inkscape:connector-curvature="0" />
	
	<path
   style="fill:#e04c4c;fill-opacity:1"
   id="path3002"
   d="m 443.86,45.813 c -0.861,-2.018 -2.082,-3.727 -3.627,-5.079 -1.534,-1.34 -3.377,-2.356 -5.477,-3.019 -2.075,-0.654 -4.364,-0.985 -6.805,-0.985 -2.43,0 -4.625,0.284 -6.526,0.845 -1.924,0.563 -3.575,1.352 -4.904,2.343 -1.352,1.005 -2.396,2.207 -3.106,3.571 -0.716,1.369 -1.078,2.856 -1.078,4.418 0,1.876 0.415,3.542 1.232,4.952 0.809,1.394 1.927,2.567 3.323,3.487 1.368,0.9 2.996,1.579 4.84,2.017 1.811,0.433 3.789,0.652 5.879,0.652 2.185,0 4.13,-0.216 5.782,-0.644 1.638,-0.422 3.054,-0.93 4.21,-1.509 1.144,-0.572 2.087,-1.161 2.805,-1.75 -0.104,1.125 -0.297,2.22 -0.577,3.271 -0.43,1.621 -1.142,3.066 -2.117,4.297 -0.965,1.212 -2.258,2.197 -3.84,2.926 -1.593,0.733 -3.601,1.104 -5.967,1.104 -1.668,0 -3.173,-0.153 -4.474,-0.456 -1.257,-0.293 -2.326,-0.728 -3.18,-1.291 -0.826,-0.547 -1.436,-1.205 -1.863,-2.007 -0.304,-0.569 -0.493,-1.219 -0.58,-1.926 h -0.876 -2.888 -0.866 l 0.006,0.068 c 0.12,1.527 0.528,2.869 1.212,3.989 0.826,1.355 1.945,2.483 3.327,3.354 1.353,0.854 2.935,1.49 4.7,1.887 1.728,0.393 3.572,0.592 5.481,0.592 2.843,0 5.373,-0.447 7.521,-1.328 2.16,-0.89 3.989,-2.151 5.435,-3.748 1.441,-1.596 2.532,-3.525 3.244,-5.735 0.699,-2.181 1.054,-4.609 1.054,-7.219 10e-4,-2.685 -0.436,-5.067 -1.3,-7.077 z m -5.064,4.962 c -0.625,0.667 -1.434,1.307 -2.405,1.904 -0.975,0.598 -2.147,1.112 -3.482,1.529 -1.322,0.411 -2.867,0.62 -4.591,0.62 -2.063,0 -3.856,-0.172 -5.327,-0.512 -1.434,-0.333 -2.621,-0.808 -3.528,-1.414 -0.881,-0.586 -1.51,-1.277 -1.925,-2.113 -0.416,-0.842 -0.628,-1.812 -0.628,-2.883 0,-1.031 0.229,-1.977 0.683,-2.811 0.452,-0.833 1.133,-1.562 2.023,-2.167 0.918,-0.621 2.093,-1.112 3.49,-1.458 1.425,-0.353 3.102,-0.531 4.982,-0.531 1.999,0 3.739,0.262 5.171,0.779 1.428,0.516 2.636,1.191 3.591,2.007 0.952,0.813 1.704,1.735 2.234,2.741 0.48,0.912 0.816,1.833 1.001,2.741 -0.322,0.473 -0.755,1 -1.289,1.568 z"
   inkscape:connector-curvature="0" />
	<polygon
   style="fill:#e04c4c;fill-opacity:1"
   id="polygon3004"
   points="449.67,43.911 449.914,43.839 456.75,41.822 456.75,66.007 450.604,66.007 450.601,66.007 450.601,70.304 450.604,70.304 467.403,70.304 467.403,66.007 461.255,66.007 461.255,38.162 461.255,37.299 460.392,37.299 457.613,37.299 457.489,37.299 457.371,37.333 449.67,39.584 " />
	<path
   style="fill:#e04c4c;fill-opacity:1"
   id="path3006"
   d="m 513.229,57.783 c -0.11,-0.746 -0.347,-1.504 -0.699,-2.254 -0.352,-0.755 -0.864,-1.503 -1.521,-2.22 -0.66,-0.719 -1.537,-1.385 -2.606,-1.98 -1.044,-0.583 -2.342,-1.088 -3.857,-1.503 -0.938,-0.254 -1.999,-0.464 -3.169,-0.626 l 11.299,-8.386 0.349,-0.259 V 40.12 38.162 37.299 h -0.863 -27.66 -0.863 v 0.863 8.414 h 4.299 V 41.62 h 16.765 l -9.923,7.368 -0.349,0.259 v 0.434 2.457 0.858 l 0.858,0.005 c 2.758,0.016 5.062,0.207 6.846,0.565 1.743,0.349 3.13,0.836 4.121,1.448 0.934,0.573 1.588,1.255 1.948,2.03 0.376,0.817 0.567,1.741 0.567,2.744 0,0.898 -0.219,1.765 -0.65,2.576 -0.432,0.813 -1.11,1.546 -2.02,2.18 -0.935,0.651 -2.149,1.179 -3.61,1.569 -1.479,0.396 -3.264,0.597 -5.309,0.597 -1.788,0 -3.405,-0.158 -4.808,-0.47 -1.371,-0.301 -2.546,-0.769 -3.495,-1.392 -0.923,-0.606 -1.614,-1.355 -2.114,-2.292 -0.491,-0.923 -0.74,-2.047 -0.74,-3.337 v -0.011 h -4.616 v 0.011 c 0,2.123 0.445,3.959 1.324,5.458 0.869,1.484 2.051,2.712 3.512,3.647 1.424,0.913 3.088,1.583 4.946,1.994 1.812,0.399 3.721,0.601 5.673,0.601 2.341,0 4.533,-0.238 6.516,-0.707 2.005,-0.474 3.764,-1.186 5.228,-2.115 1.497,-0.947 2.679,-2.135 3.511,-3.531 0.845,-1.41 1.273,-3.033 1.273,-4.823 -0.003,-0.591 -0.057,-1.25 -0.163,-1.96 z"
   inkscape:connector-curvature="0" />
</g><g
     style="fill:#e04c4c;fill-opacity:1"
     id="g3008">
	<path
   style="fill:#e04c4c;fill-opacity:1"
   id="path3010"
   d="m 160.013,110.848 c -18.099,0 -32.771,-14.672 -32.771,-32.774 0,-18.1 14.671,-32.771 32.771,-32.771 10.552,0 19.932,4.993 25.926,12.739 l 14.022,-8.096 c -8.846,-12.539 -23.439,-20.729 -39.95,-20.729 -26.982,0 -48.856,21.876 -48.856,48.856 0,26.983 21.874,48.859 48.856,48.859 16.5,0 31.085,-8.178 39.934,-20.704 l -14.024,-8.097 c -5.996,7.736 -15.366,12.717 -25.908,12.717 z"
   inkscape:connector-curvature="0" />
	<g
   style="fill:#89a02c;fill-opacity:1"
   id="g3012">
		<g
   style="fill:#89a02c;fill-opacity:1"
   id="g3014">
			<path
   style="fill:#89a02c;fill-opacity:1"
   id="path3016"
   d="m 202.236,53.69 -0.931,0.538 -0.532,0.309 c 4.05,6.961 6.405,15.021 6.405,23.65 0,8.561 -2.315,16.566 -6.3,23.483 l 0.427,0.251 1.034,0.596 c 4.132,-7.168 6.53,-15.461 6.53,-24.33 0,-8.933 -2.441,-17.289 -6.633,-24.497 z"
   inkscape:connector-curvature="0" />
		</g>
		<g
   style="fill:#89a02c;fill-opacity:1"
   id="g3018">
			<path
   style="fill:#89a02c;fill-opacity:1"
   id="path3020"
   d="m 204.04,78.188 c 0,-8.055 -2.201,-15.588 -5.983,-22.085 l -1.457,0.843 c 3.635,6.25 5.753,13.492 5.753,21.242 0,7.682 -2.075,14.861 -5.651,21.075 l 1.461,0.842 c 3.717,-6.457 5.877,-13.928 5.877,-21.917 z"
   inkscape:connector-curvature="0" />
		</g>
		<g
   style="fill:#89a02c;fill-opacity:1"
   id="g3022">
			<path
   style="fill:#89a02c;fill-opacity:1"
   id="path3024"
   d="m 193.881,58.515 -1.385,0.798 c 3.234,5.556 5.119,11.987 5.119,18.875 0,6.818 -1.841,13.192 -5.012,18.708 l 1.379,0.797 c 3.31,-5.745 5.229,-12.395 5.229,-19.505 0,-7.18 -1.962,-13.886 -5.33,-19.673 z"
   inkscape:connector-curvature="0" />
		</g>
		<g
   style="fill:#89a02c;fill-opacity:1"
   id="g3026">
			<path
   style="fill:#89a02c;fill-opacity:1"
   id="path3028"
   d="m 189.782,60.882 -1.461,0.847 c 2.821,4.842 4.465,10.455 4.465,16.459 0,5.939 -1.603,11.491 -4.365,16.291 l 1.465,0.847 c 2.905,-5.051 4.59,-10.891 4.59,-17.138 0.001,-6.313 -1.729,-12.218 -4.694,-17.306 z"
   inkscape:connector-curvature="0" />
		</g>
		<g
   style="fill:#89a02c;fill-opacity:1"
   id="g3030">
			<path
   style="fill:#89a02c;fill-opacity:1"
   id="path3032"
   d="m 185.602,63.295 -1.461,0.846 c 2.413,4.131 3.814,8.923 3.814,14.047 0,5.056 -1.36,9.79 -3.711,13.883 l 1.465,0.843 c 2.49,-4.34 3.939,-9.358 3.939,-14.726 0,-5.433 -1.488,-10.517 -4.046,-14.893 z"
   inkscape:connector-curvature="0" />
		</g>
		<g
   style="fill:#89a02c;fill-opacity:1"
   id="g3034">
			<path
   style="fill:#89a02c;fill-opacity:1"
   id="path3036"
   d="m 181.318,65.772 -1.356,0.781 c 2.001,3.419 3.167,7.389 3.167,11.634 0,4.18 -1.124,8.088 -3.062,11.467 l 1.356,0.785 c 2.069,-3.613 3.271,-7.788 3.271,-12.252 0,-4.532 -1.243,-8.765 -3.376,-12.415 z"
   inkscape:connector-curvature="0" />
		</g>
		<g
   style="fill:#89a02c;fill-opacity:1"
   id="g3038">
			<path
   style="fill:#89a02c;fill-opacity:1"
   id="path3040"
   d="m 175.751,68.982 c 1.586,2.704 2.511,5.844 2.511,9.205 0,3.292 -0.883,6.37 -2.408,9.037 l 1.496,0.863 c 1.672,-2.922 2.64,-6.296 2.64,-9.9 0,-3.674 -1.009,-7.105 -2.743,-10.068 l -1.496,0.863 z"
   inkscape:connector-curvature="0" />
		</g>
		<g
   style="fill:#89a02c;fill-opacity:1"
   id="g3042">
			<path
   style="fill:#89a02c;fill-opacity:1"
   id="path3044"
   d="m 171.57,71.398 c 1.179,2.002 1.903,4.303 1.903,6.789 0,2.421 -0.69,4.656 -1.809,6.617 l 1.508,0.875 c 1.26,-2.215 1.989,-4.763 1.989,-7.492 0,-2.794 -0.769,-5.404 -2.09,-7.656 l -1.501,0.867 z"
   inkscape:connector-curvature="0" />
		</g>
	</g>
	<path
   style="fill:#89a02c;fill-opacity:1"
   id="path3046"
   d="m 168.806,72.779 c -1.816,-2.95 -5.075,-4.915 -8.794,-4.915 -5.702,0 -10.324,4.624 -10.324,10.323 0,5.705 4.622,10.328 10.324,10.328 3.791,0 7.1,-2.043 8.896,-5.088 0.908,-1.537 1.43,-3.324 1.43,-5.24 -0.001,-1.98 -0.562,-3.833 -1.532,-5.408 z m -8.795,8.557 c -1.804,0 -3.259,-1.463 -3.259,-3.263 0,-1.801 1.455,-3.259 3.259,-3.259 1.808,0 3.261,1.458 3.261,3.259 0,1.8 -1.453,3.263 -3.261,3.263 z"
   inkscape:connector-curvature="0" />
	<path
   style="fill:#88aa00;fill-opacity:1"
   id="path3048"
   d="m 160.011,76.507 c -0.867,0 -1.566,0.699 -1.566,1.566 0,0.867 0.699,1.569 1.566,1.569 0.869,0 1.57,-0.702 1.57,-1.569 0,-0.867 -0.701,-1.566 -1.57,-1.566 z"
   inkscape:connector-curvature="0" />
	<g
   style="fill:#3d3d3d;fill-opacity:1"
   id="g3050">
		<path
   style="fill:#3d3d3d;fill-opacity:1"
   id="path3052"
   d="m 173.787,54.396 c -3.705,-3.188 -8.519,-5.124 -13.808,-5.124 -5.261,0 -10.046,1.923 -13.735,5.092 4.028,-2.363 8.707,-3.735 13.729,-3.735 5.052,0 9.762,1.389 13.814,3.767 z"
   inkscape:connector-curvature="0" />
		<path
   style="fill:#3d3d3d;fill-opacity:1"
   id="path3054"
   d="m 172.365,56.793 c -3.288,-2.935 -7.613,-4.734 -12.382,-4.734 -4.743,0 -9.045,1.788 -12.317,4.705 3.613,-2.111 7.809,-3.345 12.309,-3.345 4.534,0 8.757,1.245 12.39,3.374 z"
   inkscape:connector-curvature="0" />
		<path
   style="fill:#3d3d3d;fill-opacity:1"
   id="path3056"
   d="M 170.842,59.131 C 168,56.481 164.195,54.85 159.986,54.85 c -4.184,0 -7.964,1.623 -10.796,4.253 3.177,-1.829 6.851,-2.894 10.788,-2.894 3.966,0 7.671,1.077 10.864,2.922 z"
   inkscape:connector-curvature="0" />
		<path
   style="fill:#3d3d3d;fill-opacity:1"
   id="path3058"
   d="m 169.396,61.515 c -2.406,-2.396 -5.729,-3.871 -9.405,-3.871 -3.656,0 -6.954,1.468 -9.354,3.843 2.754,-1.574 5.937,-2.486 9.346,-2.486 3.437,-10e-4 6.645,0.924 9.413,2.514 z"
   inkscape:connector-curvature="0" />
		<path
   style="fill:#3d3d3d;fill-opacity:1"
   id="path3060"
   d="m 167.994,63.923 c -2.001,-2.137 -4.827,-3.488 -8.001,-3.488 -3.156,0 -5.969,1.344 -7.964,3.473 2.344,-1.34 5.057,-2.117 7.958,-2.117 2.919,-10e-4 5.648,0.78 8.007,2.132 z"
   inkscape:connector-curvature="0" />
		<path
   style="fill:#3d3d3d;fill-opacity:1"
   id="path3062"
   d="m 166.603,66.344 c -1.58,-1.895 -3.935,-3.123 -6.606,-3.123 -2.659,0 -4.999,1.221 -6.577,3.106 1.936,-1.105 4.175,-1.746 6.571,-1.746 2.412,0 4.664,0.646 6.612,1.763 z"
   inkscape:connector-curvature="0" />
	</g>
	<g
   style="fill:#3d3d3d;fill-opacity:1"
   id="g3064">
		<path
   style="fill:#3d3d3d;fill-opacity:1"
   id="path3066"
   d="m 173.787,101.725 c -3.705,3.185 -8.519,5.124 -13.808,5.124 -5.261,0 -10.046,-1.927 -13.735,-5.096 4.028,2.363 8.707,3.735 13.729,3.735 5.052,0 9.762,-1.388 13.814,-3.763 z"
   inkscape:connector-curvature="0" />
		<path
   style="fill:#3d3d3d;fill-opacity:1"
   id="path3068"
   d="m 172.365,99.324 c -3.288,2.938 -7.613,4.734 -12.382,4.734 -4.743,0 -9.045,-1.788 -12.317,-4.701 3.613,2.111 7.809,3.341 12.309,3.341 4.534,0 8.757,-1.241 12.39,-3.374 z"
   inkscape:connector-curvature="0" />
		<path
   style="fill:#3d3d3d;fill-opacity:1"
   id="path3070"
   d="m 170.842,96.985 c -2.842,2.655 -6.647,4.282 -10.856,4.282 -4.184,0 -7.964,-1.619 -10.796,-4.253 3.177,1.833 6.851,2.893 10.788,2.893 3.966,0 7.671,-1.072 10.864,-2.922 z"
   inkscape:connector-curvature="0" />
		<path
   style="fill:#3d3d3d;fill-opacity:1"
   id="path3072"
   d="m 169.396,94.606 c -2.406,2.392 -5.729,3.871 -9.405,3.871 -3.656,0 -6.954,-1.468 -9.354,-3.847 2.754,1.574 5.937,2.49 9.346,2.49 3.437,10e-4 6.645,-0.924 9.413,-2.514 z"
   inkscape:connector-curvature="0" />
		<path
   style="fill:#3d3d3d;fill-opacity:1"
   id="path3074"
   d="m 167.994,92.198 c -2.001,2.133 -4.827,3.489 -8.001,3.489 -3.156,0 -5.969,-1.349 -7.964,-3.473 2.344,1.339 5.057,2.116 7.958,2.116 2.919,0.001 5.648,-0.784 8.007,-2.132 z"
   inkscape:connector-curvature="0" />
		<path
   style="fill:#3d3d3d;fill-opacity:1"
   id="path3076"
   d="m 166.603,89.777 c -1.58,1.895 -3.935,3.123 -6.606,3.123 -2.659,0 -4.999,-1.225 -6.577,-3.111 1.936,1.11 4.175,1.747 6.571,1.747 2.412,0 4.664,-0.645 6.612,-1.759 z"
   inkscape:connector-curvature="0" />
	</g>
</g></g>
<rect
   y="178.1461"
   x="-33.993057"
   height="164.23613"
   width="2256.1458"
   id="rect3905"
   style="fill:#004b4c;fill-opacity:1" /><g
   transform="matrix(1.5628614,0,0,1.5628614,-61.592432,137.6937)"
   style="fill:#55d400;fill-opacity:1"
   id="g3907"><path
     inkscape:connector-curvature="0"
     d="m 266.799,32.326 c -0.557,0 -1.11,0.014 -1.661,0.043 h -33.272 -16.087 v 91.463 h 16.087 V 95.809 h 32.851 c 0.688,0.045 1.383,0.076 2.082,0.076 17.552,0 31.78,-14.229 31.78,-31.78 0,-17.551 -14.227,-31.779 -31.78,-31.779 z m 0,47.339 H 231.866 V 48.457 h 34.933 v 0.086 c 8.593,0 15.563,6.966 15.563,15.562 0,8.594 -6.969,15.56 -15.563,15.56 z"
     id="path3909"
     style="fill:#55d400;fill-opacity:1" /><polygon
     points="116.763,32.349 94.012,32.349 48.434,77.929 48.434,32.349 32.344,32.349 32.344,123.813 48.434,123.813 48.434,100.68 63.199,85.914 101.056,123.772 123.807,123.772 74.573,74.539 "
     id="polygon3911"
     style="fill:#55d400;fill-opacity:1" /><g
     id="g3913"
     style="fill:#55d400;fill-opacity:1">
	<path
   inkscape:connector-curvature="0"
   d="m 365.43,94.966 c 13.889,-3.401 24.195,-15.925 24.195,-30.861 0,-17.551 -14.228,-31.778 -31.78,-31.778 -0.557,0 -1.111,0.014 -1.66,0.043 h -33.271 -16.088 v 91.463 h 16.088 V 95.809 h 20.607 l 28.022,28.023 h 22.751 L 365.43,94.966 z M 322.913,79.665 V 48.457 h 34.932 v 0.086 c 8.596,0 15.563,6.966 15.563,15.562 0,8.595 -6.968,15.561 -15.563,15.561 h -34.932 z"
   id="path3915"
   style="fill:#55d400;fill-opacity:1" />
</g><path
     inkscape:connector-curvature="0"
     d="m 407.956,80.697 v 43.116 h 109.7 V 80.697 h -109.7 z m 40.35,5.92 v 9.348 h -4.298 v -5.821 h -19.424 v 9.495 h 16.667 0.863 v 0.863 2.665 0.863 h -0.863 -16.667 v 10.43 h 5.648 0.863 v 0.863 2.572 0.863 h -0.863 -15.89 -0.863 v -0.863 -2.572 -0.863 h 0.863 5.669 V 90.028 h -5.669 -0.863 v -0.863 -2.548 -0.863 h 0.863 33.1 0.863 v 0.863 z m 64.372,0 v 2.548 0.863 h -0.863 -5.669 v 24.432 h 5.669 0.863 v 0.863 2.572 0.863 h -0.863 -15.889 -0.863 v -0.863 -2.572 -0.863 h 0.863 5.669 V 94.215 l -15.575,24.148 -0.255,0.396 h -0.471 -2.527 -0.472 l -0.255,-0.396 -15.597,-24.255 v 20.353 h 5.646 0.863 v 0.863 2.572 0.863 h -0.863 -15.889 -0.863 v -0.863 -2.572 -0.863 h 0.863 5.671 V 90.028 h -5.671 -0.863 v -0.863 -2.548 -0.863 h 0.863 9.561 0.469 l 0.256,0.394 17.643,27.215 17.353,-27.21 0.254,-0.399 h 0.474 9.606 0.863 v 0.863 z"
     id="path3917"
     style="fill:#55d400;fill-opacity:1" /><g
     id="g3919"
     style="fill:#55d400;fill-opacity:1">
	<path
   inkscape:connector-curvature="0"
   d="m 478.407,65.621 c -0.185,-0.419 -0.439,-0.794 -0.756,-1.113 -0.317,-0.317 -0.691,-0.572 -1.114,-0.761 -0.442,-0.193 -0.908,-0.29 -1.39,-0.29 -0.498,0 -0.971,0.097 -1.405,0.288 -0.429,0.191 -0.802,0.449 -1.113,0.768 -0.316,0.33 -0.562,0.708 -0.736,1.128 -0.18,0.422 -0.271,0.892 -0.271,1.388 0,0.482 0.093,0.944 0.274,1.373 0.171,0.415 0.421,0.792 0.738,1.113 0.313,0.313 0.688,0.563 1.117,0.746 0.438,0.182 0.906,0.272 1.396,0.272 0.474,0 0.934,-0.09 1.367,-0.269 0.437,-0.186 0.812,-0.433 1.126,-0.739 0.323,-0.315 0.581,-0.69 0.768,-1.114 0.19,-0.432 0.288,-0.897 0.288,-1.382 0,-0.5 -0.097,-0.973 -0.289,-1.408 z"
   id="path3921"
   style="fill:#55d400;fill-opacity:1" />
	
	<path
   inkscape:connector-curvature="0"
   d="m 443.86,45.813 c -0.861,-2.018 -2.082,-3.727 -3.627,-5.079 -1.534,-1.34 -3.377,-2.356 -5.477,-3.019 -2.075,-0.654 -4.364,-0.985 -6.805,-0.985 -2.43,0 -4.625,0.284 -6.526,0.845 -1.924,0.563 -3.575,1.352 -4.904,2.343 -1.352,1.005 -2.396,2.207 -3.106,3.571 -0.716,1.369 -1.078,2.856 -1.078,4.418 0,1.876 0.415,3.542 1.232,4.952 0.809,1.394 1.927,2.567 3.323,3.487 1.368,0.9 2.996,1.579 4.84,2.017 1.811,0.433 3.789,0.652 5.879,0.652 2.185,0 4.13,-0.216 5.782,-0.644 1.638,-0.422 3.054,-0.93 4.21,-1.509 1.144,-0.572 2.087,-1.161 2.805,-1.75 -0.104,1.125 -0.297,2.22 -0.577,3.271 -0.43,1.621 -1.142,3.066 -2.117,4.297 -0.965,1.212 -2.258,2.197 -3.84,2.926 -1.593,0.733 -3.601,1.104 -5.967,1.104 -1.668,0 -3.173,-0.153 -4.474,-0.456 -1.257,-0.293 -2.326,-0.728 -3.18,-1.291 -0.826,-0.547 -1.436,-1.205 -1.863,-2.007 -0.304,-0.569 -0.493,-1.219 -0.58,-1.926 h -0.876 -2.888 -0.866 l 0.006,0.068 c 0.12,1.527 0.528,2.869 1.212,3.989 0.826,1.355 1.945,2.483 3.327,3.354 1.353,0.854 2.935,1.49 4.7,1.887 1.728,0.393 3.572,0.592 5.481,0.592 2.843,0 5.373,-0.447 7.521,-1.328 2.16,-0.89 3.989,-2.151 5.435,-3.748 1.441,-1.596 2.532,-3.525 3.244,-5.735 0.699,-2.181 1.054,-4.609 1.054,-7.219 10e-4,-2.685 -0.436,-5.067 -1.3,-7.077 z m -5.064,4.962 c -0.625,0.667 -1.434,1.307 -2.405,1.904 -0.975,0.598 -2.147,1.112 -3.482,1.529 -1.322,0.411 -2.867,0.62 -4.591,0.62 -2.063,0 -3.856,-0.172 -5.327,-0.512 -1.434,-0.333 -2.621,-0.808 -3.528,-1.414 -0.881,-0.586 -1.51,-1.277 -1.925,-2.113 -0.416,-0.842 -0.628,-1.812 -0.628,-2.883 0,-1.031 0.229,-1.977 0.683,-2.811 0.452,-0.833 1.133,-1.562 2.023,-2.167 0.918,-0.621 2.093,-1.112 3.49,-1.458 1.425,-0.353 3.102,-0.531 4.982,-0.531 1.999,0 3.739,0.262 5.171,0.779 1.428,0.516 2.636,1.191 3.591,2.007 0.952,0.813 1.704,1.735 2.234,2.741 0.48,0.912 0.816,1.833 1.001,2.741 -0.322,0.473 -0.755,1 -1.289,1.568 z"
   id="path3923"
   style="fill:#55d400;fill-opacity:1" />
	<polygon
   points="450.604,70.304 467.403,70.304 467.403,66.007 461.255,66.007 461.255,38.162 461.255,37.299 460.392,37.299 457.613,37.299 457.489,37.299 457.371,37.333 449.67,39.584 449.67,43.911 449.914,43.839 456.75,41.822 456.75,66.007 450.604,66.007 450.601,66.007 450.601,70.304 "
   id="polygon3925"
   style="fill:#55d400;fill-opacity:1" />
	<path
   inkscape:connector-curvature="0"
   d="m 513.229,57.783 c -0.11,-0.746 -0.347,-1.504 -0.699,-2.254 -0.352,-0.755 -0.864,-1.503 -1.521,-2.22 -0.66,-0.719 -1.537,-1.385 -2.606,-1.98 -1.044,-0.583 -2.342,-1.088 -3.857,-1.503 -0.938,-0.254 -1.999,-0.464 -3.169,-0.626 l 11.299,-8.386 0.349,-0.259 V 40.12 38.162 37.299 h -0.863 -27.66 -0.863 v 0.863 8.414 h 4.299 V 41.62 h 16.765 l -9.923,7.368 -0.349,0.259 v 0.434 2.457 0.858 l 0.858,0.005 c 2.758,0.016 5.062,0.207 6.846,0.565 1.743,0.349 3.13,0.836 4.121,1.448 0.934,0.573 1.588,1.255 1.948,2.03 0.376,0.817 0.567,1.741 0.567,2.744 0,0.898 -0.219,1.765 -0.65,2.576 -0.432,0.813 -1.11,1.546 -2.02,2.18 -0.935,0.651 -2.149,1.179 -3.61,1.569 -1.479,0.396 -3.264,0.597 -5.309,0.597 -1.788,0 -3.405,-0.158 -4.808,-0.47 -1.371,-0.301 -2.546,-0.769 -3.495,-1.392 -0.923,-0.606 -1.614,-1.355 -2.114,-2.292 -0.491,-0.923 -0.74,-2.047 -0.74,-3.337 v -0.011 h -4.616 v 0.011 c 0,2.123 0.445,3.959 1.324,5.458 0.869,1.484 2.051,2.712 3.512,3.647 1.424,0.913 3.088,1.583 4.946,1.994 1.812,0.399 3.721,0.601 5.673,0.601 2.341,0 4.533,-0.238 6.516,-0.707 2.005,-0.474 3.764,-1.186 5.228,-2.115 1.497,-0.947 2.679,-2.135 3.511,-3.531 0.845,-1.41 1.273,-3.033 1.273,-4.823 -0.003,-0.591 -0.057,-1.25 -0.163,-1.96 z"
   id="path3927"
   style="fill:#55d400;fill-opacity:1" />
</g><g
     id="g3929"
     style="fill:#55d400;fill-opacity:1">
	<path
   inkscape:connector-curvature="0"
   d="m 160.013,110.848 c -18.099,0 -32.771,-14.672 -32.771,-32.774 0,-18.1 14.671,-32.771 32.771,-32.771 10.552,0 19.932,4.993 25.926,12.739 l 14.022,-8.096 c -8.846,-12.539 -23.439,-20.729 -39.95,-20.729 -26.982,0 -48.856,21.876 -48.856,48.856 0,26.983 21.874,48.859 48.856,48.859 16.5,0 31.085,-8.178 39.934,-20.704 l -14.024,-8.097 c -5.996,7.736 -15.366,12.717 -25.908,12.717 z"
   id="path3931"
   style="fill:#55d400;fill-opacity:1" />
	<g
   id="g3933"
   style="fill:#55d400;fill-opacity:1">
		<g
   id="g3935"
   style="fill:#55d400;fill-opacity:1">
			<path
   inkscape:connector-curvature="0"
   d="m 202.236,53.69 -0.931,0.538 -0.532,0.309 c 4.05,6.961 6.405,15.021 6.405,23.65 0,8.561 -2.315,16.566 -6.3,23.483 l 0.427,0.251 1.034,0.596 c 4.132,-7.168 6.53,-15.461 6.53,-24.33 0,-8.933 -2.441,-17.289 -6.633,-24.497 z"
   id="path3937"
   style="fill:#55d400;fill-opacity:1" />
		</g>
		<g
   id="g3939"
   style="fill:#55d400;fill-opacity:1">
			<path
   inkscape:connector-curvature="0"
   d="m 204.04,78.188 c 0,-8.055 -2.201,-15.588 -5.983,-22.085 l -1.457,0.843 c 3.635,6.25 5.753,13.492 5.753,21.242 0,7.682 -2.075,14.861 -5.651,21.075 l 1.461,0.842 c 3.717,-6.457 5.877,-13.928 5.877,-21.917 z"
   id="path3941"
   style="fill:#55d400;fill-opacity:1" />
		</g>
		<g
   id="g3943"
   style="fill:#55d400;fill-opacity:1">
			<path
   inkscape:connector-curvature="0"
   d="m 193.881,58.515 -1.385,0.798 c 3.234,5.556 5.119,11.987 5.119,18.875 0,6.818 -1.841,13.192 -5.012,18.708 l 1.379,0.797 c 3.31,-5.745 5.229,-12.395 5.229,-19.505 0,-7.18 -1.962,-13.886 -5.33,-19.673 z"
   id="path3945"
   style="fill:#55d400;fill-opacity:1" />
		</g>
		<g
   id="g3947"
   style="fill:#55d400;fill-opacity:1">
			<path
   inkscape:connector-curvature="0"
   d="m 189.782,60.882 -1.461,0.847 c 2.821,4.842 4.465,10.455 4.465,16.459 0,5.939 -1.603,11.491 -4.365,16.291 l 1.465,0.847 c 2.905,-5.051 4.59,-10.891 4.59,-17.138 0.001,-6.313 -1.729,-12.218 -4.694,-17.306 z"
   id="path3949"
   style="fill:#55d400;fill-opacity:1" />
		</g>
		<g
   id="g3951"
   style="fill:#55d400;fill-opacity:1">
			<path
   inkscape:connector-curvature="0"
   d="m 185.602,63.295 -1.461,0.846 c 2.413,4.131 3.814,8.923 3.814,14.047 0,5.056 -1.36,9.79 -3.711,13.883 l 1.465,0.843 c 2.49,-4.34 3.939,-9.358 3.939,-14.726 0,-5.433 -1.488,-10.517 -4.046,-14.893 z"
   id="path3953"
   style="fill:#55d400;fill-opacity:1" />
		</g>
		<g
   id="g3955"
   style="fill:#55d400;fill-opacity:1">
			<path
   inkscape:connector-curvature="0"
   d="m 181.318,65.772 -1.356,0.781 c 2.001,3.419 3.167,7.389 3.167,11.634 0,4.18 -1.124,8.088 -3.062,11.467 l 1.356,0.785 c 2.069,-3.613 3.271,-7.788 3.271,-12.252 0,-4.532 -1.243,-8.765 -3.376,-12.415 z"
   id="path3957"
   style="fill:#55d400;fill-opacity:1" />
		</g>
		<g
   id="g3959"
   style="fill:#55d400;fill-opacity:1">
			<path
   inkscape:connector-curvature="0"
   d="m 175.751,68.982 c 1.586,2.704 2.511,5.844 2.511,9.205 0,3.292 -0.883,6.37 -2.408,9.037 l 1.496,0.863 c 1.672,-2.922 2.64,-6.296 2.64,-9.9 0,-3.674 -1.009,-7.105 -2.743,-10.068 l -1.496,0.863 z"
   id="path3961"
   style="fill:#55d400;fill-opacity:1" />
		</g>
		<g
   id="g3963"
   style="fill:#55d400;fill-opacity:1">
			<path
   inkscape:connector-curvature="0"
   d="m 171.57,71.398 c 1.179,2.002 1.903,4.303 1.903,6.789 0,2.421 -0.69,4.656 -1.809,6.617 l 1.508,0.875 c 1.26,-2.215 1.989,-4.763 1.989,-7.492 0,-2.794 -0.769,-5.404 -2.09,-7.656 l -1.501,0.867 z"
   id="path3965"
   style="fill:#55d400;fill-opacity:1" />
		</g>
	</g>
	<path
   inkscape:connector-curvature="0"
   d="m 168.806,72.779 c -1.816,-2.95 -5.075,-4.915 -8.794,-4.915 -5.702,0 -10.324,4.624 -10.324,10.323 0,5.705 4.622,10.328 10.324,10.328 3.791,0 7.1,-2.043 8.896,-5.088 0.908,-1.537 1.43,-3.324 1.43,-5.24 -0.001,-1.98 -0.562,-3.833 -1.532,-5.408 z m -8.795,8.557 c -1.804,0 -3.259,-1.463 -3.259,-3.263 0,-1.801 1.455,-3.259 3.259,-3.259 1.808,0 3.261,1.458 3.261,3.259 0,1.8 -1.453,3.263 -3.261,3.263 z"
   id="path3967"
   style="fill:#55d400;fill-opacity:1" />
	<path
   inkscape:connector-curvature="0"
   d="m 160.011,76.507 c -0.867,0 -1.566,0.699 -1.566,1.566 0,0.867 0.699,1.569 1.566,1.569 0.869,0 1.57,-0.702 1.57,-1.569 0,-0.867 -0.701,-1.566 -1.57,-1.566 z"
   id="path3969"
   style="fill:#55d400;fill-opacity:1" />
	<g
   id="g3971"
   style="fill:#55d400;fill-opacity:1">
		<path
   inkscape:connector-curvature="0"
   d="m 173.787,54.396 c -3.705,-3.188 -8.519,-5.124 -13.808,-5.124 -5.261,0 -10.046,1.923 -13.735,5.092 4.028,-2.363 8.707,-3.735 13.729,-3.735 5.052,0 9.762,1.389 13.814,3.767 z"
   id="path3973"
   style="fill:#55d400;fill-opacity:1" />
		<path
   inkscape:connector-curvature="0"
   d="m 172.365,56.793 c -3.288,-2.935 -7.613,-4.734 -12.382,-4.734 -4.743,0 -9.045,1.788 -12.317,4.705 3.613,-2.111 7.809,-3.345 12.309,-3.345 4.534,0 8.757,1.245 12.39,3.374 z"
   id="path3975"
   style="fill:#55d400;fill-opacity:1" />
		<path
   inkscape:connector-curvature="0"
   d="M 170.842,59.131 C 168,56.481 164.195,54.85 159.986,54.85 c -4.184,0 -7.964,1.623 -10.796,4.253 3.177,-1.829 6.851,-2.894 10.788,-2.894 3.966,0 7.671,1.077 10.864,2.922 z"
   id="path3977"
   style="fill:#55d400;fill-opacity:1" />
		<path
   inkscape:connector-curvature="0"
   d="m 169.396,61.515 c -2.406,-2.396 -5.729,-3.871 -9.405,-3.871 -3.656,0 -6.954,1.468 -9.354,3.843 2.754,-1.574 5.937,-2.486 9.346,-2.486 3.437,-10e-4 6.645,0.924 9.413,2.514 z"
   id="path3979"
   style="fill:#55d400;fill-opacity:1" />
		<path
   inkscape:connector-curvature="0"
   d="m 167.994,63.923 c -2.001,-2.137 -4.827,-3.488 -8.001,-3.488 -3.156,0 -5.969,1.344 -7.964,3.473 2.344,-1.34 5.057,-2.117 7.958,-2.117 2.919,-10e-4 5.648,0.78 8.007,2.132 z"
   id="path3981"
   style="fill:#55d400;fill-opacity:1" />
		<path
   inkscape:connector-curvature="0"
   d="m 166.603,66.344 c -1.58,-1.895 -3.935,-3.123 -6.606,-3.123 -2.659,0 -4.999,1.221 -6.577,3.106 1.936,-1.105 4.175,-1.746 6.571,-1.746 2.412,0 4.664,0.646 6.612,1.763 z"
   id="path3983"
   style="fill:#55d400;fill-opacity:1" />
	</g>
	<g
   id="g3985"
   style="fill:#55d400;fill-opacity:1">
		<path
   inkscape:connector-curvature="0"
   d="m 173.787,101.725 c -3.705,3.185 -8.519,5.124 -13.808,5.124 -5.261,0 -10.046,-1.927 -13.735,-5.096 4.028,2.363 8.707,3.735 13.729,3.735 5.052,0 9.762,-1.388 13.814,-3.763 z"
   id="path3987"
   style="fill:#55d400;fill-opacity:1" />
		<path
   inkscape:connector-curvature="0"
   d="m 172.365,99.324 c -3.288,2.938 -7.613,4.734 -12.382,4.734 -4.743,0 -9.045,-1.788 -12.317,-4.701 3.613,2.111 7.809,3.341 12.309,3.341 4.534,0 8.757,-1.241 12.39,-3.374 z"
   id="path3989"
   style="fill:#55d400;fill-opacity:1" />
		<path
   inkscape:connector-curvature="0"
   d="m 170.842,96.985 c -2.842,2.655 -6.647,4.282 -10.856,4.282 -4.184,0 -7.964,-1.619 -10.796,-4.253 3.177,1.833 6.851,2.893 10.788,2.893 3.966,0 7.671,-1.072 10.864,-2.922 z"
   id="path3991"
   style="fill:#55d400;fill-opacity:1" />
		<path
   inkscape:connector-curvature="0"
   d="m 169.396,94.606 c -2.406,2.392 -5.729,3.871 -9.405,3.871 -3.656,0 -6.954,-1.468 -9.354,-3.847 2.754,1.574 5.937,2.49 9.346,2.49 3.437,10e-4 6.645,-0.924 9.413,-2.514 z"
   id="path3993"
   style="fill:#55d400;fill-opacity:1" />
		<path
   inkscape:connector-curvature="0"
   d="m 167.994,92.198 c -2.001,2.133 -4.827,3.489 -8.001,3.489 -3.156,0 -5.969,-1.349 -7.964,-3.473 2.344,1.339 5.057,2.116 7.958,2.116 2.919,0.001 5.648,-0.784 8.007,-2.132 z"
   id="path3995"
   style="fill:#55d400;fill-opacity:1" />
		<path
   inkscape:connector-curvature="0"
   d="m 166.603,89.777 c -1.58,1.895 -3.935,3.123 -6.606,3.123 -2.659,0 -4.999,-1.225 -6.577,-3.111 1.936,1.11 4.175,1.747 6.571,1.747 2.412,0 4.664,-0.645 6.612,-1.759 z"
   id="path3997"
   style="fill:#55d400;fill-opacity:1" />
	</g>
</g></g></svg>