<?xml version="1.0" encoding="utf-8"?>
<!-- Generator: Adobe Illustrator 15.1.0, SVG Export Plug-In . SVG Version: 6.00 Build 0)  -->
<!DOCTYPE svg PUBLIC "-//W3C//DTD SVG 1.1//EN" "http://www.w3.org/Graphics/SVG/1.1/DTD/svg11.dtd">
<svg version="1.1" id="Layer_1" xmlns="http://www.w3.org/2000/svg" xmlns:xlink="http://www.w3.org/1999/xlink" x="0px" y="0px"
	 width="19px" height="19px" viewBox="0 0 19 19" enable-background="new 0 0 19 19" xml:space="preserve">
<g>
	<circle cx="9.5" cy="9.5" r="9.5"/>
	<path fill="#FFFFFF" d="M9.503,15.366c-3.239,0-5.865-2.626-5.865-5.866s2.626-5.866,5.865-5.866c1.889,0,3.568,0.894,4.641,2.28
		l2.51-1.449c-1.583-2.244-4.195-3.71-7.151-3.71c-4.829,0-8.745,3.915-8.745,8.745c0,4.83,3.916,8.745,8.745,8.745
		c2.954,0,5.564-1.464,7.148-3.706l-2.51-1.449C13.068,14.475,11.391,15.366,9.503,15.366z"/>
	<g>
		<g>
			<path fill="#00928F" d="M17.062,5.136l-0.167,0.096L16.8,5.287c0.725,1.246,1.146,2.689,1.146,4.233
				c0,1.532-0.414,2.965-1.127,4.204l0.076,0.044l0.186,0.106c0.739-1.283,1.168-2.767,1.168-4.354
				C18.249,7.921,17.812,6.426,17.062,5.136z"/>
		</g>
		<g>
			<path fill="#00928F" d="M17.384,9.521c0-1.442-0.394-2.79-1.071-3.953l-0.261,0.151c0.65,1.119,1.03,2.415,1.03,3.802
				c0,1.375-0.371,2.66-1.011,3.771l0.262,0.152C16.998,12.287,17.384,10.95,17.384,9.521z"/>
		</g>
		<g>
			<path fill="#00928F" d="M15.566,5.999l-0.248,0.143c0.579,0.994,0.916,2.146,0.916,3.378c0,1.22-0.329,2.361-0.897,3.349
				l0.247,0.143c0.592-1.029,0.936-2.219,0.936-3.491C16.52,8.235,16.169,7.035,15.566,5.999z"/>
		</g>
		<g>
			<path fill="#00928F" d="M14.832,6.423l-0.261,0.151c0.505,0.866,0.799,1.871,0.799,2.946c0,1.062-0.287,2.057-0.781,2.916
				l0.262,0.151c0.521-0.904,0.822-1.95,0.822-3.067C15.672,8.391,15.363,7.334,14.832,6.423z"/>
		</g>
		<g>
			<path fill="#00928F" d="M14.084,6.854l-0.261,0.152c0.432,0.739,0.682,1.597,0.682,2.514c0,0.905-0.243,1.752-0.664,2.484
				l0.262,0.151c0.446-0.777,0.705-1.675,0.705-2.636C14.808,8.547,14.542,7.638,14.084,6.854z"/>
		</g>
		<g>
			<path fill="#00928F" d="M13.317,7.298l-0.243,0.14c0.358,0.612,0.567,1.322,0.567,2.083c0,0.748-0.201,1.447-0.548,2.052
				l0.243,0.14c0.37-0.646,0.586-1.394,0.586-2.192C13.922,8.709,13.699,7.951,13.317,7.298z"/>
		</g>
		<g>
			<path fill="#00928F" d="M12.321,7.873c0.284,0.483,0.45,1.046,0.45,1.647c0,0.589-0.158,1.14-0.431,1.618l0.268,0.154
				c0.299-0.523,0.473-1.127,0.473-1.772c0-0.658-0.181-1.272-0.491-1.803L12.321,7.873z"/>
		</g>
		<g>
			<path fill="#00928F" d="M11.572,8.305c0.211,0.358,0.34,0.77,0.34,1.215c0,0.433-0.124,0.833-0.324,1.185l0.27,0.156
				c0.226-0.396,0.356-0.853,0.356-1.341c0-0.5-0.138-0.968-0.374-1.371L11.572,8.305z"/>
		</g>
	</g>
	<path fill="#E8573F" d="M9.503,7.673c-1.021,0-1.848,0.827-1.848,1.848c0,1.021,0.828,1.848,1.848,1.848
		c0.678,0,1.271-0.366,1.592-0.91c0.162-0.275,0.256-0.596,0.256-0.938c0-0.354-0.101-0.687-0.274-0.968
		C10.752,8.024,10.169,7.673,9.503,7.673z M10.087,9.5c0,0.322-0.26,0.583-0.583,0.583c-0.323,0-0.583-0.261-0.583-0.583
		s0.261-0.583,0.583-0.583C9.827,8.917,10.087,9.178,10.087,9.5z"/>
	<path d="M9.503,8.917C9.181,8.917,8.92,9.178,8.92,9.5s0.261,0.583,0.583,0.583c0.324,0,0.583-0.261,0.583-0.583
		S9.827,8.917,9.503,8.917z M9.785,9.5c0,0.155-0.125,0.281-0.281,0.281c-0.155,0-0.28-0.126-0.28-0.281
		c0-0.155,0.125-0.281,0.28-0.281C9.659,9.219,9.785,9.345,9.785,9.5z"/>
	<circle fill="#FFFFFF" cx="9.503" cy="9.5" r="0.281"/>
	<g>
		<path fill="#818385" d="M11.969,5.262c-0.663-0.571-1.525-0.917-2.472-0.917c-0.941,0-1.798,0.344-2.458,0.912
			C7.76,4.833,8.598,4.588,9.497,4.588C10.401,4.588,11.244,4.836,11.969,5.262z"/>
		<path fill="#818385" d="M11.715,5.691c-0.589-0.526-1.363-0.847-2.216-0.847c-0.849,0-1.62,0.32-2.205,0.842
			C7.94,5.308,8.691,5.087,9.497,5.087C10.309,5.087,11.064,5.31,11.715,5.691z"/>
		<path fill="#818385" d="M11.442,6.109c-0.509-0.475-1.19-0.766-1.943-0.766c-0.749,0-1.425,0.29-1.932,0.761
			c0.568-0.328,1.226-0.518,1.931-0.518C10.208,5.587,10.871,5.779,11.442,6.109z"/>
		<path fill="#818385" d="M11.183,6.536C10.752,6.107,10.158,5.843,9.5,5.843c-0.654,0-1.244,0.263-1.674,0.688
			C8.318,6.25,8.888,6.086,9.499,6.086C10.114,6.086,10.688,6.251,11.183,6.536z"/>
		<path fill="#818385" d="M10.932,6.967C10.574,6.584,10.068,6.342,9.5,6.342c-0.565,0-1.069,0.241-1.426,0.622
			c0.42-0.24,0.905-0.379,1.424-0.379C10.022,6.585,10.51,6.725,10.932,6.967z"/>
		<path fill="#818385" d="M10.684,7.4C10.4,7.061,9.979,6.841,9.501,6.841c-0.476,0-0.895,0.219-1.178,0.557
			C8.67,7.199,9.071,7.085,9.5,7.085C9.932,7.085,10.334,7.201,10.684,7.4z"/>
	</g>
	<g>
		<path fill="#818385" d="M11.969,13.733c-0.663,0.57-1.525,0.917-2.472,0.917c-0.941,0-1.798-0.345-2.458-0.912
			c0.721,0.423,1.559,0.669,2.458,0.669C10.401,14.407,11.244,14.158,11.969,13.733z"/>
		<path fill="#818385" d="M11.715,13.304c-0.589,0.525-1.363,0.847-2.216,0.847c-0.849,0-1.62-0.32-2.205-0.842
			c0.647,0.378,1.398,0.599,2.204,0.599C10.309,13.908,11.064,13.685,11.715,13.304z"/>
		<path fill="#818385" d="M11.442,12.885c-0.509,0.476-1.19,0.767-1.943,0.767c-0.749,0-1.425-0.291-1.932-0.762
			c0.568,0.328,1.226,0.518,1.931,0.518C10.208,13.408,10.871,13.216,11.442,12.885z"/>
		<path fill="#818385" d="M11.183,12.459c-0.431,0.428-1.025,0.693-1.684,0.693c-0.654,0-1.244-0.263-1.674-0.688
			c0.493,0.282,1.063,0.446,1.673,0.446C10.114,12.909,10.688,12.744,11.183,12.459z"/>
		<path fill="#818385" d="M10.932,12.028c-0.358,0.382-0.864,0.625-1.432,0.625c-0.565,0-1.069-0.241-1.426-0.622
			c0.42,0.24,0.905,0.379,1.424,0.379C10.022,12.41,10.51,12.27,10.932,12.028z"/>
		<path fill="#818385" d="M10.684,11.594c-0.283,0.339-0.705,0.56-1.183,0.56c-0.476,0-0.895-0.219-1.178-0.557
			C8.67,11.795,9.071,11.91,9.5,11.91C9.932,11.91,10.334,11.794,10.684,11.594z"/>
	</g>
</g>
</svg>
