<?xml version="1.0" encoding="utf-8"?>
<!-- Generator: Adobe Illustrator 16.0.0, SVG Export Plug-In . SVG Version: 6.00 Build 0)  -->
<!DOCTYPE svg PUBLIC "-//W3C//DTD SVG 1.1//EN" "http://www.w3.org/Graphics/SVG/1.1/DTD/svg11.dtd">
<svg version="1.1" id="Layer_1" xmlns="http://www.w3.org/2000/svg" xmlns:xlink="http://www.w3.org/1999/xlink" x="0px" y="0px"
	 width="612px" height="792px" viewBox="0 0 612 792" enable-background="new 0 0 612 792" xml:space="preserve">
<g>
	<defs>
		<path id="SVGID_1_" d="M150.646,207.895c7.983-1.215,16.311-1.215,23.595,2.253c7.122,3.646,12.321,15.79,8.337,23.773
			c-4.515,10.589-13.19,18.049-25.511,22.041C155.16,239.65,152.729,224.031,150.646,207.895 M139.017,196.443
			c-2.776,1.215-9.714,3.815-11.105,5.207c-1.215,0.515-2.43,1.215-2.43,2.077c-2.078,11.805,0,24.125,1.215,35.923
			c1.914,15.613,4.337,31.925,6.421,47.368c0.692,8.506,1.392,16.313,2.607,23.949c0.516,1.738,3.292,3.992,5.376,4.684
			c3.992,0.523,7.637,0.523,11.628,1.215c7.115,1.215,9.545,0,9.545-7.114c-0.523-9.714-1.215-19.434-3.123-28.632
			c-1.045-6.768-0.522-10.237-0.522-14.229c0-2.254,4.337-2.6,10.759-5.376c9.89-3.645,17.004-9.545,22.211-18.565
			c5.722-8.853,3.469-18.919,0.692-27.941c-2.253-7.114-6.422-10.759-13.013-13.359c-10.589-4.861-22.387-6.945-31.062-5.207
			c-0.693,0-1.908,0.516-2.601,0.516c0,0-2.084-1.384-3.299-1.384C141.101,195.575,140.233,195.92,139.017,196.443"/>
	</defs>
	<clipPath id="SVGID_2_">
		<use xlink:href="#SVGID_1_"  overflow="visible"/>
	</clipPath>
	
		<linearGradient id="SVGID_3_" gradientUnits="userSpaceOnUse" x1="0" y1="791.9219" x2="1" y2="791.9219" gradientTransform="matrix(383.8062 586.5173 586.5173 -383.8062 -464416.2188 304047.5)">
		<stop  offset="0" style="stop-color:#F7E43D"/>
		<stop  offset="0.1937" style="stop-color:#F2A631"/>
		<stop  offset="0.3552" style="stop-color:#F18E4F"/>
		<stop  offset="0.5181" style="stop-color:#EB4E30"/>
		<stop  offset="0.6934" style="stop-color:#E73143"/>
		<stop  offset="0.8546" style="stop-color:#E41761"/>
		<stop  offset="1" style="stop-color:#E41B7E"/>
	</linearGradient>
	<polygon clip-path="url(#SVGID_2_)" fill="url(#SVGID_3_)" points="175.159,160.838 253.85,281.09 145.566,351.948 66.875,231.696 
			"/>
</g>
<g>
	<defs>
		<path id="SVGID_4_" d="M201.355,196.443c-1.385,0.516-1.385,0.516-2.6,1.907c0,7.461,0.692,11.975,1.215,18.743
			c1.039,12.666,2.077,26.202,3.469,39.562c2.084,15.443,3.991,31.578,6.068,47.891c0.523,3.821,2.085,7.636,6.076,9.198
			c13.19,5.375,27.418,3.991,40.777,0.692c0.522,0,2.26-3.992,0.522-6.069c-0.522-1.391-3.123-2.606-5.03-3.298
			c-4.86-0.523-9.544,0-14.927-0.523c-0.692-6.245-2.077-12.321-2.777-18.39c-1.907-14.058-3.991-28.809-6.067-42.861
			c-1.916-13.536-3.123-26.724-4.515-40.43c-0.693-3.13-3.991-7.121-9.368-7.983C206.039,194.882,205.523,195.052,201.355,196.443"
			/>
	</defs>
	<clipPath id="SVGID_5_">
		<use xlink:href="#SVGID_4_"  overflow="visible"/>
	</clipPath>
	
		<linearGradient id="SVGID_6_" gradientUnits="userSpaceOnUse" x1="0" y1="791.957" x2="1" y2="791.957" gradientTransform="matrix(383.8062 586.5173 586.5173 -383.8062 -464389.7188 304030)">
		<stop  offset="0" style="stop-color:#F7E43D"/>
		<stop  offset="0.1937" style="stop-color:#F2A631"/>
		<stop  offset="0.3552" style="stop-color:#F18E4F"/>
		<stop  offset="0.5181" style="stop-color:#EB4E30"/>
		<stop  offset="0.6934" style="stop-color:#E73143"/>
		<stop  offset="0.8546" style="stop-color:#E41761"/>
		<stop  offset="1" style="stop-color:#E41B7E"/>
	</linearGradient>
	<polygon clip-path="url(#SVGID_5_)" fill="url(#SVGID_6_)" points="240.671,167.453 315.543,281.87 216.704,346.548 
		141.832,232.131 	"/>
</g>
<g>
	<defs>
		<path id="SVGID_7_" d="M294.403,194.536c-9.891,1.907-19.611,4.337-29.326,5.552c-2.606,0.517-3.645,1.209-3.645,3.469
			c0,14.229-0.692,28.802,0,43.03c0,9.721,1.039,18.743,1.039,27.941c0,10.929,0,22.035,2.084,32.448
			c1.215,6.075,9.021,11.451,13.882,10.236c7.283-1.215,15.266-3.468,19.088-11.451c0.515-1.215,0.515-4.338,0-5.553
			c-0.869-0.692-3.122-1.215-5.037-0.692c-2.253,0-4.853,1.907-7.976,3.122v-28.633c0-2.43,0.693-3.815,3.638-5.03
			c3.122-1.215,6.253-2.953,8.506-5.383c1.384-1.385,1.384-4.338,0.869-5.553c-0.869-1.215-3.822-1.215-5.037-1.215
			c-2.253,1.215-4.853,2.43-7.283,3.645h-1.738c0-6.068,0.523-12.144,0-17.697c0-9.721,0.523-19.434-0.693-28.632
			c-0.522-3.815,0.693-4.337,2.946-5.552c4.515-1.216,7.983-2.947,11.805-5.031c2.43-1.214,4.161-4.168,4.161-5.383
			c-0.344-3.235-1.848-4.084-3.891-4.084C296.773,194.09,295.616,194.303,294.403,194.536"/>
	</defs>
	<clipPath id="SVGID_8_">
		<use xlink:href="#SVGID_7_"  overflow="visible"/>
	</clipPath>
	
		<linearGradient id="SVGID_9_" gradientUnits="userSpaceOnUse" x1="0" y1="791.9219" x2="1" y2="791.9219" gradientTransform="matrix(383.8062 586.5173 586.5173 -383.8062 -464331.7188 303992.125)">
		<stop  offset="0" style="stop-color:#F7E43D"/>
		<stop  offset="0.1937" style="stop-color:#F2A631"/>
		<stop  offset="0.3552" style="stop-color:#F18E4F"/>
		<stop  offset="0.5181" style="stop-color:#EB4E30"/>
		<stop  offset="0.6934" style="stop-color:#E73143"/>
		<stop  offset="0.8546" style="stop-color:#E41761"/>
		<stop  offset="1" style="stop-color:#E41B7E"/>
	</linearGradient>
	<polygon clip-path="url(#SVGID_8_)" fill="url(#SVGID_9_)" points="289.409,175.329 358.655,281.147 273.017,337.188 
		203.771,231.37 	"/>
</g>
<g>
	<defs>
		<path id="SVGID_10_" d="M327.394,205.987c6.414,1.908,12.145,2.601,17.175,4.508c7.637,3.122,10.066,10.244,12.666,17.181
			c6.423,15.789,6.945,32.447,1.216,48.935c-4.338,12.668-13.359,22.212-25.334,28.458L327.394,205.987z M305.183,197.136
			c0.515,1.214,1.215,2.599,1.908,3.814c0,1.215,0.517,1.915,0.517,2.607c0,9.544,0.698,18.389,0.698,27.241
			c0.692,24.119,0,48.936,3.814,73.055c0.692,2.6,1.908,5.03,3.123,8.329c0,0-0.517,0.523-1.907,1.215
			c0.692,0,0.692,0.692,0.692,1.215c1.914,0.692,3.82,2.6,5.729,2.6c6.422,0,12.145,0,17.873-1.215
			c13.19-3.292,22.212-12.837,29.149-24.119c6.943-10.929,8.329-23.595,10.244-36.262c0.515-2.607,1.207-5.729,0.515-8.329
			c-1.215-6.253-1.907-12.674-4.338-19.088c-4.515-12.667-12.835-21.519-25.509-27.249c-11.969-4.507-24.119-6.414-36.786-6.937
			C308.998,194.013,307.091,195.92,305.183,197.136"/>
	</defs>
	<clipPath id="SVGID_11_">
		<use xlink:href="#SVGID_10_"  overflow="visible"/>
	</clipPath>
	
		<linearGradient id="SVGID_12_" gradientUnits="userSpaceOnUse" x1="0" y1="791.9326" x2="1" y2="791.9326" gradientTransform="matrix(383.8062 586.5173 586.5173 -383.8062 -464294.7188 303967.875)">
		<stop  offset="0" style="stop-color:#F7E43D"/>
		<stop  offset="0.1937" style="stop-color:#F2A631"/>
		<stop  offset="0.3552" style="stop-color:#F18E4F"/>
		<stop  offset="0.5181" style="stop-color:#EB4E30"/>
		<stop  offset="0.6934" style="stop-color:#E73143"/>
		<stop  offset="0.8546" style="stop-color:#E41761"/>
		<stop  offset="1" style="stop-color:#E41B7E"/>
	</linearGradient>
	<polygon clip-path="url(#SVGID_11_)" fill="url(#SVGID_12_)" points="356.329,160.544 434.678,280.274 327.084,350.681 
		248.735,230.951 	"/>
</g>
<g>
	<defs>
		<path id="SVGID_13_" d="M415.235,200.258c-1.907,0.692-4.685,1.907-6.593,3.992c-9.374,6.59-15.272,16.489-19.957,27.241
			c-4.684,9.89-7.981,20.479-8.675,31.755c-0.7,10.759-0.7,21.342,3.991,30.716c6.069,12.491,16.658,19.259,29.326,23.773
			c6.59,2.084,12.49,1.384,18.564-1.215c2.601-0.693,5.206-1.385,7.291-0.693c5.898,0.693,8.676-2.083,7.977-7.983
			c0-5.383-1.385-10.582-1.385-16.658c-0.693-5.899-0.693-12.667-0.693-19.265c0-9.191-4.514-14.574-13.881-11.967
			c-0.7,13.359-2.085,27.24-2.607,41.815c-3.992,0-7.982,1.391-10.759-1.908c-1.908-3.298-3.815-5.899-5.207-9.367
			c-5.899-14.927-4.161-33.147,0-46.506c2.607-9.199,7.29-17.874,11.282-26.549c1.908-3.991,3.991-7.291,5.898-11.282
			c-2.719-4.962-3.26-8.074-6.896-8.074C421.211,198.083,418.831,198.765,415.235,200.258"/>
	</defs>
	<clipPath id="SVGID_14_">
		<use xlink:href="#SVGID_13_"  overflow="visible"/>
	</clipPath>
	
		<linearGradient id="SVGID_15_" gradientUnits="userSpaceOnUse" x1="0" y1="791.9316" x2="1" y2="791.9316" gradientTransform="matrix(383.8062 586.5173 586.5173 -383.8062 -464245.2188 303935.375)">
		<stop  offset="0" style="stop-color:#F7E43D"/>
		<stop  offset="0.1937" style="stop-color:#F2A631"/>
		<stop  offset="0.3552" style="stop-color:#F18E4F"/>
		<stop  offset="0.5181" style="stop-color:#EB4E30"/>
		<stop  offset="0.6934" style="stop-color:#E73143"/>
		<stop  offset="0.8546" style="stop-color:#E41761"/>
		<stop  offset="1" style="stop-color:#E41B7E"/>
	</linearGradient>
	<polygon clip-path="url(#SVGID_14_)" fill="url(#SVGID_15_)" points="427.307,166.676 503.636,283.319 399.863,351.227 
		323.534,234.583 	"/>
</g>
<g>
	<defs>
		<path id="SVGID_16_" d="M483.994,194.536c-9.891,1.907-19.611,4.337-29.325,5.552c-2.606,0.517-3.645,1.209-3.645,3.469
			c0,14.229-0.699,28.802,0,43.03c0,9.721,1.038,18.743,1.038,27.941c0,10.929,0,22.035,2.084,32.448
			c1.215,6.075,9.021,11.451,13.882,10.236c7.291-1.215,15.267-3.468,19.089-11.451c0.516-1.215,0.516-4.338,0-5.553
			c-0.87-0.692-3.123-1.215-5.037-0.692c-2.254,0-4.854,1.907-7.977,3.122v-28.633c0-2.43,0.692-3.815,3.639-5.03
			c3.13-1.215,6.252-2.953,8.505-5.383c1.386-1.385,1.386-4.338,0.87-5.553c-0.87-1.215-3.822-1.215-5.037-1.215
			c-2.254,1.215-4.854,2.43-7.284,3.645h-1.738c0-6.068,0.523-12.144,0-17.697c0-9.721,0.523-19.434-0.691-28.632
			c-0.523-3.815,0.691-4.337,2.953-5.552c4.507-1.216,7.976-2.947,11.798-5.031c1.155-0.576,2.15-1.547,2.879-2.536v-6.077
			c-0.678-0.637-1.574-0.854-2.609-0.854C486.365,194.09,485.207,194.303,483.994,194.536"/>
	</defs>
	<clipPath id="SVGID_17_">
		<use xlink:href="#SVGID_16_"  overflow="visible"/>
	</clipPath>
	
		<linearGradient id="SVGID_18_" gradientUnits="userSpaceOnUse" x1="0" y1="791.9219" x2="1" y2="791.9219" gradientTransform="matrix(383.8062 586.5173 586.5173 -383.8062 -464199.2188 303905.25)">
		<stop  offset="0" style="stop-color:#F7E43D"/>
		<stop  offset="0.1937" style="stop-color:#F2A631"/>
		<stop  offset="0.3552" style="stop-color:#F18E4F"/>
		<stop  offset="0.5181" style="stop-color:#EB4E30"/>
		<stop  offset="0.6934" style="stop-color:#E73143"/>
		<stop  offset="0.8546" style="stop-color:#E41761"/>
		<stop  offset="1" style="stop-color:#E41B7E"/>
	</linearGradient>
	<polygon clip-path="url(#SVGID_17_)" fill="url(#SVGID_18_)" points="478.102,175.914 546.965,281.147 462.22,336.604 
		393.356,231.37 	"/>
</g>
<g>
	<defs>
		<path id="SVGID_19_" d="M156.342,345.763c6.833,2.032,12.938,2.769,18.298,4.801c8.136,3.328,10.725,10.915,13.495,18.306
			c6.842,16.822,7.399,34.571,1.294,52.139c-4.621,13.496-14.233,23.664-26.991,30.318L156.342,345.763z M132.677,336.332
			c0.549,1.294,1.294,2.769,2.032,4.064c0,1.294,0.557,2.04,0.557,2.778c0,10.168,0.737,19.592,0.737,29.023
			c0.739,25.697,0,52.139,4.065,77.835c0.738,2.771,2.032,5.359,3.327,8.874c0,0-0.55,0.558-2.032,1.296
			c0.737,0,0.737,0.737,0.737,1.294c2.032,0.738,4.073,2.77,6.105,2.77c6.842,0,12.938,0,19.043-1.295
			c14.052-3.507,23.664-13.677,31.055-25.696c7.4-11.644,8.875-25.141,10.907-38.636c0.557-2.778,1.295-6.104,0.557-8.874
			c-1.295-6.661-2.032-13.504-4.621-20.338c-4.802-13.496-13.684-22.927-27.18-29.031c-12.75-4.802-25.697-6.834-39.192-7.391
			C136.742,333.005,134.709,335.037,132.677,336.332"/>
	</defs>
	<clipPath id="SVGID_20_">
		<use xlink:href="#SVGID_19_"  overflow="visible"/>
	</clipPath>
	
		<linearGradient id="SVGID_21_" gradientUnits="userSpaceOnUse" x1="0" y1="791.9277" x2="1" y2="791.9277" gradientTransform="matrix(383.8062 586.5173 586.5173 -383.8062 -464476.7188 304087.25)">
		<stop  offset="0" style="stop-color:#F7E43D"/>
		<stop  offset="0.1937" style="stop-color:#F2A631"/>
		<stop  offset="0.3552" style="stop-color:#F18E4F"/>
		<stop  offset="0.5181" style="stop-color:#EB4E30"/>
		<stop  offset="0.6934" style="stop-color:#E73143"/>
		<stop  offset="0.8546" style="stop-color:#E41761"/>
		<stop  offset="1" style="stop-color:#E41B7E"/>
	</linearGradient>
	<polygon clip-path="url(#SVGID_20_)" fill="url(#SVGID_21_)" points="187.17,297.346 270.646,424.911 156.012,499.926 
		72.536,372.36 	"/>
</g>
<g>
	<defs>
		<path id="SVGID_22_" d="M242.163,348.72c5.916,0,11.651-0.745,17.379,0c12.946,2.033,17.937,11.465,15.16,25.141
			c-2.959,13.683-12.202,22.927-23.665,31.432C248.079,386.061,245.121,367.944,242.163,348.72 M241.613,335.775
			c-7.211,0.745-15.167,2.039-22.369,0.745c-4.253-1.483-7.768,2.032-7.211,7.023c0.737,10.725,2.213,21.632,2.958,32.538
			c1.294,13.684,2.769,27.179,4.253,40.856c1.475,13.683,3.695,27.18,5.727,40.862c0,3.696,1.475,4.435,7.949,5.916
			c2.958,1.477,12.201,2.213,16.642,2.213c1.475,0,2.032,0.745,2.769,0c5.736-1.475,4.991-5.916,4.991-9.423
			c-1.475-12.389-2.77-24.591-4.246-36.054c0-1.483,0-2.777,0.738-3.515c3.508-2.032,7.949-4.254,11.464-6.467
			c4.252,7.762,7.949,14.414,12.201,21.444c4.99,10.349,10.906,21.076,16.454,30.319c2.22,3.694,5.915,5.915,9.612,7.768
			c1.294,0.737,4.064-0.746,5.546-1.295c1.478-0.558,0.738-3.515,0.738-4.991c-1.476-2.957-2.22-5.178-3.695-7.955
			c-5.548-10.169-11.464-20.149-17.749-30.13c-4.44-7.398-8.693-14.422-12.938-20.896c2.032-2.77,4.99-5.728,7.022-9.431
			c6.654-7.76,8.136-17.191,7.391-28.098c-0.737-12.938-6.653-20.706-17.372-25.885c-7.772-4.033-16.713-5.725-25.729-5.725
			C245.044,335.596,243.326,335.657,241.613,335.775"/>
	</defs>
	<clipPath id="SVGID_23_">
		<use xlink:href="#SVGID_22_"  overflow="visible"/>
	</clipPath>
	
		<linearGradient id="SVGID_24_" gradientUnits="userSpaceOnUse" x1="0" y1="791.9238" x2="1" y2="791.9238" gradientTransform="matrix(383.8062 586.5173 586.5173 -383.8062 -464414.2188 304046)">
		<stop  offset="0" style="stop-color:#F7E43D"/>
		<stop  offset="0.1937" style="stop-color:#F2A631"/>
		<stop  offset="0.3552" style="stop-color:#F18E4F"/>
		<stop  offset="0.5181" style="stop-color:#EB4E30"/>
		<stop  offset="0.6934" style="stop-color:#E73143"/>
		<stop  offset="0.8546" style="stop-color:#E41761"/>
		<stop  offset="1" style="stop-color:#E41B7E"/>
	</linearGradient>
	<polygon clip-path="url(#SVGID_23_)" fill="url(#SVGID_24_)" points="280.857,289.635 372.744,430.052 241.187,516.142 
		149.3,375.724 	"/>
</g>
<g>
	<defs>
		<path id="SVGID_25_" d="M306.186,357.038c0,12.2,1.483,24.771,2.033,37.529c0.745,18.305,1.483,36.792,2.958,54.359
			c0.558,3.508,1.294,7.211,3.516,9.243c3.515,2.771,8.505,4.802,12.758,6.285c4.809,2.032,8.316-0.738,8.316-6.285
			c-0.737-8.694-0.737-17.011-1.295-26.073c-1.475-28.467-2.958-56.572-3.507-84.858c-0.745-5.548-2.958-8.505-7.768-9.981
			c-4.252-1.294-9.243-2.032-15.528-2.032C305.449,335.594,306.186,350.015,306.186,357.038"/>
	</defs>
	<clipPath id="SVGID_26_">
		<use xlink:href="#SVGID_25_"  overflow="visible"/>
	</clipPath>
	
		<linearGradient id="SVGID_27_" gradientUnits="userSpaceOnUse" x1="0" y1="791.9385" x2="1" y2="791.9385" gradientTransform="matrix(383.8062 586.5173 586.5173 -383.8062 -464379.7188 304023.375)">
		<stop  offset="0" style="stop-color:#F7E43D"/>
		<stop  offset="0.1937" style="stop-color:#F2A631"/>
		<stop  offset="0.3552" style="stop-color:#F18E4F"/>
		<stop  offset="0.5181" style="stop-color:#EB4E30"/>
		<stop  offset="0.6934" style="stop-color:#E73143"/>
		<stop  offset="0.8546" style="stop-color:#E41761"/>
		<stop  offset="1" style="stop-color:#E41B7E"/>
	</linearGradient>
	<polygon clip-path="url(#SVGID_26_)" fill="url(#SVGID_27_)" points="326.677,321.334 395.908,427.131 314.539,480.377 
		245.308,374.581 	"/>
</g>
<g>
	<defs>
		<path id="SVGID_28_" d="M423.229,337.814c-8.873,16.266-16.821,33.826-21.256,52.132c-2.22,8.875-5.915,17.749-8.874,27.917
			c-3.694-14.604-6.661-27.18-11.094-39.562c-3.515-11.833-7.949-23.484-12.389-35.316c-1.476-5.917-5.917-8.137-11.833-8.137
			c-3.695,0-18.298,3.703-18.298,6.661c3.695,16.085,6.653,32.351,11.087,48.436c3.516,14.052,7.211,27.179,12.39,39.75
			c4.44,12.568,6.654,25.696,18.486,33.833c4.252,2.958,9.431,3.695,12.389-1.476c2.958-7.398,6.654-14.798,8.874-22.001
			c5.916-17.749,10.906-35.316,16.823-52.327c5.916-16.085,11.832-31.425,17.748-46.96c2.22-5.916-1.476-10.35-7.393-10.35
			C423.975,330.415,424.713,334.849,423.229,337.814"/>
	</defs>
	<clipPath id="SVGID_29_">
		<use xlink:href="#SVGID_28_"  overflow="visible"/>
	</clipPath>
	
		<linearGradient id="SVGID_30_" gradientUnits="userSpaceOnUse" x1="0" y1="791.8857" x2="1" y2="791.8857" gradientTransform="matrix(383.8062 586.5173 586.5173 -383.8062 -464299.7188 303971.25)">
		<stop  offset="0" style="stop-color:#F7E43D"/>
		<stop  offset="0.1937" style="stop-color:#F2A631"/>
		<stop  offset="0.3552" style="stop-color:#F18E4F"/>
		<stop  offset="0.5181" style="stop-color:#EB4E30"/>
		<stop  offset="0.6934" style="stop-color:#E73143"/>
		<stop  offset="0.8546" style="stop-color:#E41761"/>
		<stop  offset="1" style="stop-color:#E41B7E"/>
	</linearGradient>
	<polygon clip-path="url(#SVGID_29_)" fill="url(#SVGID_30_)" points="409.515,284.589 502.186,426.205 369.473,513.05 
		276.802,371.434 	"/>
</g>
<g>
	<defs>
		<path id="SVGID_31_" d="M477.273,333.562c-10.538,2.032-20.896,4.621-31.245,5.915c-2.777,0.55-3.884,1.288-3.884,3.697
			c0,15.158-0.744,30.687,0,45.846c0,10.357,1.106,19.969,1.106,29.768c0,11.644,0,23.476,2.22,34.572
			c1.295,6.473,9.612,12.199,14.791,10.905c7.769-1.295,16.266-3.695,20.337-12.2c0.551-1.296,0.551-4.622,0-5.916
			c-0.925-0.738-3.325-1.296-5.366-0.738c-2.401,0-5.17,2.032-8.497,3.327v-30.506c0-2.59,0.737-4.065,3.876-5.36
			c3.334-1.295,6.662-3.146,9.062-5.735c1.476-1.476,1.476-4.622,0.925-5.916c-0.925-1.295-4.071-1.295-5.366-1.295
			c-2.401,1.295-5.17,2.589-7.76,3.884h-1.853c0-6.465,0.557-12.938,0-18.854c0-10.357,0.557-20.706-0.737-30.506
			c-0.557-4.065,0.737-4.622,3.147-5.917c4.801-1.294,8.497-3.138,12.568-5.358c2.589-1.295,4.435-4.441,4.435-5.736
			c-0.367-3.446-1.969-4.352-4.146-4.352C479.798,333.086,478.566,333.313,477.273,333.562"/>
	</defs>
	<clipPath id="SVGID_32_">
		<use xlink:href="#SVGID_31_"  overflow="visible"/>
	</clipPath>
	
		<linearGradient id="SVGID_33_" gradientUnits="userSpaceOnUse" x1="0" y1="791.918" x2="1" y2="791.918" gradientTransform="matrix(383.8062 586.5173 586.5173 -383.8062 -464267.2188 303949.875)">
		<stop  offset="0" style="stop-color:#F7E43D"/>
		<stop  offset="0.1937" style="stop-color:#F2A631"/>
		<stop  offset="0.3552" style="stop-color:#F18E4F"/>
		<stop  offset="0.5181" style="stop-color:#EB4E30"/>
		<stop  offset="0.6934" style="stop-color:#E73143"/>
		<stop  offset="0.8546" style="stop-color:#E41761"/>
		<stop  offset="1" style="stop-color:#E41B7E"/>
	</linearGradient>
	<polygon clip-path="url(#SVGID_32_)" fill="url(#SVGID_33_)" points="471.95,313.094 545.73,425.841 454.482,485.552 
		380.703,372.805 	"/>
</g>
<g>
	<defs>
		<path id="SVGID_34_" d="M179.313,493.245c-6.922,1.049-12.377,2.304-19.085,3.772c-10.064,2.518-19.496,6.708-26.623,14.682
			c-1.468,1.673-2.518,5.026-1.682,6.709c0.845,1.886,3.773,3.354,6.504,3.977c5.659,1.896,10.269-1.468,14.469-4.395
			c8.8-5.454,18.24-8.178,28.304-8.811c9.013-0.631,13.836,5.455,11.105,12.787c-1.255,3.568-2.51,6.922-4.192,10.064
			c-9.013,15.304-18.24,30.402-26.836,45.921c-6.291,10.9-11.949,22.433-18.027,33.546c-1.263,2.509-2.099,5.863-6.504,6.077
			c-1.886,0-4.396,3.978-5.027,6.496c-1.051,5.035,6.913,14.886,12.581,16.354c14.672,3.773,29.346,1.05,43.813-0.632
			c5.873-0.836,11.951-3.141,17.823-5.445c4.191-1.886,6.709-5.873,5.241-9.859c-1.468-4.608-5.659-5.659-10.277-4.822
			c-3.978,0.632-7.75,0.845-12.573,1.468c3.354-5.241,5.864-9.219,9.219-13.205c19.503-24.53,31.454-51.571,31.871-83.025
			c0.419-20.75-16.14-30.609-34.381-32.708c-0.948-0.135-1.993-0.191-3.098-0.191C187.909,492.004,183.091,492.755,179.313,493.245"
			/>
	</defs>
	<clipPath id="SVGID_35_">
		<use xlink:href="#SVGID_34_"  overflow="visible"/>
	</clipPath>
	
		<linearGradient id="SVGID_36_" gradientUnits="userSpaceOnUse" x1="0" y1="791.8867" x2="1" y2="791.8867" gradientTransform="matrix(383.8062 586.5173 586.5173 -383.8062 -464524.2188 304118.125)">
		<stop  offset="0" style="stop-color:#F7E43D"/>
		<stop  offset="0.1937" style="stop-color:#F2A631"/>
		<stop  offset="0.3552" style="stop-color:#F18E4F"/>
		<stop  offset="0.5181" style="stop-color:#EB4E30"/>
		<stop  offset="0.6934" style="stop-color:#E73143"/>
		<stop  offset="0.8546" style="stop-color:#E41761"/>
		<stop  offset="1" style="stop-color:#E41B7E"/>
	</linearGradient>
	<polygon clip-path="url(#SVGID_35_)" fill="url(#SVGID_36_)" points="200.103,446.567 299.568,598.566 160.401,689.635 
		60.936,537.636 	"/>
</g>
<g>
	<defs>
		<path id="SVGID_37_" d="M283.354,610.653c9.014-25.155,18.241-56.814,27.458-80.928h1.683c4.19,5.036,4.19,14.05,5.028,19.077
			c1.681,12.582-1.674,25.163-5.865,37.532c-2.519,7.545-6.708,22.646-15.099,26.836c-0.837,0.418-4.559,1.256-7.861,1.256
			C285.396,614.427,282.514,613.589,283.354,610.653 M269.936,542.939c5.865-10.695,10.9-22.44,22.432-28.305
			c1.673-0.845,2.518-0.845,4.191-0.845v3.354l-22.432,69.19c-0.837,0.836-2.518,6.708-3.354,8.381
			C262.382,577.32,262.382,558.867,269.936,542.939 M307.459,481.295c-1.673,6.708-3.354,13.418-5.028,18.453
			c-10.899,0-19.077-1.681-28.304-1.681c-7.545,0.837-14.254,2.518-19.29,7.341c-11.532,13.418-17.396,28.509-21.596,45.077
			c-2.509,13.418-1.673,26.835-0.836,40.04c2.518,17.609,11.745,29.985,26.631,40.05c-0.845,0.836-0.845,1.672-0.845,2.509
			c-0.836,7.554-2.518,15.1-2.518,23.482c-0.554,1.112,0.363,2.865,1.288,3.923h6.235c1.003-0.366,1.9-0.839,2.549-1.405
			c1.673-2.518,3.346-5.873,5.028-9.227c3.354-8.383,3.354-10.064,11.736-10.064c17.404,0,29.986-8.382,37.532-22.432
			c4.404-8.801,12.368-37.949,12.368-70.23c0-10.696,0-25.787-9.015-32.496c-5.026-3.354-5.026-6.709-3.354-12.376
			c1.681-6.71,1.681-13.419,1.681-20.964c0-5.028-5.872-5.028-9.227-5.873c-0.265-0.088-0.521-0.129-0.768-0.129
			C309.634,475.293,308.215,478.294,307.459,481.295"/>
	</defs>
	<clipPath id="SVGID_38_">
		<use xlink:href="#SVGID_37_"  overflow="visible"/>
	</clipPath>
	
		<linearGradient id="SVGID_39_" gradientUnits="userSpaceOnUse" x1="0" y1="791.877" x2="1" y2="791.877" gradientTransform="matrix(383.8062 586.5173 586.5173 -383.8062 -464447.2188 304067.75)">
		<stop  offset="0" style="stop-color:#F7E43D"/>
		<stop  offset="0.1937" style="stop-color:#F2A631"/>
		<stop  offset="0.3552" style="stop-color:#F18E4F"/>
		<stop  offset="0.5181" style="stop-color:#EB4E30"/>
		<stop  offset="0.6934" style="stop-color:#E73143"/>
		<stop  offset="0.8546" style="stop-color:#E41761"/>
		<stop  offset="1" style="stop-color:#E41B7E"/>
	</linearGradient>
	<polygon clip-path="url(#SVGID_38_)" fill="url(#SVGID_39_)" points="301.924,428.706 417.263,604.963 261.217,707.075 
		145.878,530.819 	"/>
</g>
<g>
	<defs>
		<path id="SVGID_40_" d="M373.575,493.011c-1.358,0-2.834,0.153-4.412,0.447c-0.845,0-2.313,0.418-3.149,0.418
			c-14.255,3.987-19.709,10.277-28.091,17.823c-3.354,2.723-2.1,6.077,2.304,6.496c4.61,0.417,9.433,0.213,14.469,0.213
			l-1.264,16.772c-0.836,10.481-1.673,20.749-2.305,31.239c-0.623,8.596,0,36.9,0,38.573c0,5.455-0.204,10.899-0.204,16.354
			c0,0.206,1.049,2.938,0.622,2.938c-7.545,1.673-14.459,3.977-16.977,12.368c3.142,4.404,9.432,6.496,15.304,5.026
			c15.092-4.189,30.823-6.076,45.282-12.572c3.985-1.682,7.127-3.149,5.455-7.128c-0.837-2.312-5.037-3.985-7.965-4.617
			c-2.731-0.836-6.086,0.214-9.44,0.419c0-23.27,0.214-45.7,0-68.132c0-15.1-1.255-30.19,0-45.29
			c0.521-7.954-3.237-11.348-9.627-11.348C373.576,493.011,373.576,493.011,373.575,493.011"/>
	</defs>
	<clipPath id="SVGID_41_">
		<use xlink:href="#SVGID_40_"  overflow="visible"/>
	</clipPath>
	
		<linearGradient id="SVGID_42_" gradientUnits="userSpaceOnUse" x1="0" y1="791.9199" x2="1" y2="791.9199" gradientTransform="matrix(383.8062 586.5173 586.5173 -383.8062 -464412.2188 304044.75)">
		<stop  offset="0" style="stop-color:#F7E43D"/>
		<stop  offset="0.1937" style="stop-color:#F2A631"/>
		<stop  offset="0.3552" style="stop-color:#F18E4F"/>
		<stop  offset="0.5181" style="stop-color:#EB4E30"/>
		<stop  offset="0.6934" style="stop-color:#E73143"/>
		<stop  offset="0.8546" style="stop-color:#E41761"/>
		<stop  offset="1" style="stop-color:#E41B7E"/>
	</linearGradient>
	<polygon clip-path="url(#SVGID_41_)" fill="url(#SVGID_42_)" points="381.979,461.986 471.071,598.133 354.87,674.173 
		265.778,538.026 	"/>
</g>
<g>
	<defs>
		<path id="SVGID_43_" d="M460.606,500.372c-2.52,14.886-5.037,29.771-7.342,44.454c-1.05,6.291-1.255,12.573-1.673,18.659
			c-3.354,0.622-8.177,2.935-10.695,3.354c0-16.567,0.214-32.504,0-48.431c0-5.036-0.418-9.859-1.468-14.683
			c-1.05-5.862-7.341-8.381-16.354-7.127c-1.186,0.141-2.44,0.117-3.665,0.097c-2.456-0.045-4.791-0.09-6.187,1.168
			c-2.518,1.885-3.985,6.077-4.403,9.636c-2.101,16.782-3.987,33.758-5.454,50.532c-1.255,12.581,5.24,20.126,18.036,21.808
			c2.935,0.205,5.872,0.418,9.013,0.418c5.659,0.205,14.886-1.468,20.127-1.886c0,5.027,0.205,9.432-0.214,13.836
			c-1.467,14.673-0.622,30.609,2.519,45.914c0.836,2.936,7.127,3.354,10.9,4.189c4.823,1.265,4.618-3.977,4.823-7.127
			c1.468-12.785,3.148-25.785,3.985-39c0.836-11.317,0.213-22.849,1.254-34.167c1.683-16.986,4.2-33.759,5.873-50.735
			c0.418-3.569,0.418-7.76-0.837-11.114c-1.681-6.086-7.341-7.127-12.786-7.546c-0.116-0.004-0.231-0.006-0.343-0.006
			C460.418,492.615,461.015,497.505,460.606,500.372"/>
	</defs>
	<clipPath id="SVGID_44_">
		<use xlink:href="#SVGID_43_"  overflow="visible"/>
	</clipPath>
	
		<linearGradient id="SVGID_45_" gradientUnits="userSpaceOnUse" x1="0" y1="791.8955" x2="1" y2="791.8955" gradientTransform="matrix(383.8062 586.5173 586.5173 -383.8062 -464346.7188 304001.75)">
		<stop  offset="0" style="stop-color:#F7E43D"/>
		<stop  offset="0.1937" style="stop-color:#F2A631"/>
		<stop  offset="0.3552" style="stop-color:#F18E4F"/>
		<stop  offset="0.5181" style="stop-color:#EB4E30"/>
		<stop  offset="0.6934" style="stop-color:#E73143"/>
		<stop  offset="0.8546" style="stop-color:#E41761"/>
		<stop  offset="1" style="stop-color:#E41B7E"/>
	</linearGradient>
	<polygon clip-path="url(#SVGID_44_)" fill="url(#SVGID_45_)" points="456.718,456.882 549.268,598.313 425.494,679.309 
		332.944,537.877 	"/>
</g>
<g>
	<defs>
		<path id="SVGID_46_" d="M122.188,43.015c-0.785,10.51,0,22.383,0,32.902c0.776,14.212,2.14,28.614,3.693,43.61
			c1.562,14.211,2.338,28.423,4.479,42.635c0.784,10.51,13.434,12.072,23.952,12.848c4.471,0,9.734-2.338,9.734-6.816
			c-2.14-15.765-4.479-30.761-6.619-45.75c-0.784-6.032-2.338-5.255,5.834-15.765c1.561,4.477,2.338,8.956,4.677,12.848
			c5.841,16.351,11.873,32.902,18.69,49.452c2.14,6.031,9.733,8.172,14.988,2.917c1.562-1.554,0.198-3.504-0.777-6.817
			c-6.031-16.352-8.956-29.977-16.55-44.973c-2.917-6.619-5.255-14.212-8.172-20.244c-1.561-3.701-2.338-5.842,0.777-9.733
			c12.65-14.212,24.722-29.209,28.424-47.899c0-2.33-4.479-5.255-6.032-3.694c-14.22,19.467-28.432,38.158-44.197,57.625
			c-0.777-15.766-1.561-29.978-2.139-44.974c0-5.255-0.785-9.734-5.264-11.874c-0.776-1.562-4.47-2.338-7.593-2.338
			C139.316,36.975,122.964,37.751,122.188,43.015"/>
	</defs>
	<clipPath id="SVGID_47_">
		<use xlink:href="#SVGID_46_"  overflow="visible"/>
	</clipPath>
	
		<linearGradient id="SVGID_48_" gradientUnits="userSpaceOnUse" x1="0" y1="791.8926" x2="1" y2="791.8926" gradientTransform="matrix(383.8062 586.5173 586.5173 -383.8062 -464328.7188 303990)">
		<stop  offset="0" style="stop-color:#F7E43D"/>
		<stop  offset="0.1937" style="stop-color:#F2A631"/>
		<stop  offset="0.3552" style="stop-color:#F18E4F"/>
		<stop  offset="0.5181" style="stop-color:#EB4E30"/>
		<stop  offset="0.6934" style="stop-color:#E73143"/>
		<stop  offset="0.8546" style="stop-color:#E41761"/>
		<stop  offset="1" style="stop-color:#E41B7E"/>
	</linearGradient>
	<polygon clip-path="url(#SVGID_47_)" fill="url(#SVGID_48_)" points="180.158,-1.473 269.544,135.123 146.563,215.599 
		57.177,79.003 	"/>
</g>
<g>
	<defs>
		<path id="SVGID_49_" d="M237.094,45.742c-7.006,4.668-14.41,15.376-17.129,21.805c-7.014,17.327-12.459,35.232-10.129,54.897
			c1.561,11.485,5.255,21.417,13.245,31.15c13.625,16.352,39.71,25.697,64.63,17.914c3.116-0.777,6.429-2.339,8.767-4.677
			c3.892-4.082,1.553-9.733-3.115-10.899c-1.561-0.389-4.288,1.554-8.767,1.554c-6.618,0-20.442-1.166-25.697-5.445
			c-11.484-9.544-18.69-21.227-20.243-36.802c-0.785-21.021,1.165-40.107,11.873-56.847c4.09-6.421,9.734-10.709,19.467-14.989
			c3.702-1.561,9.345-1.561,10.122-3.892c0-2.338-3.115-3.511-5.445-3.511C256.95,36,249.555,37.364,237.094,45.742"/>
	</defs>
	<clipPath id="SVGID_50_">
		<use xlink:href="#SVGID_49_"  overflow="visible"/>
	</clipPath>
	
		<linearGradient id="SVGID_51_" gradientUnits="userSpaceOnUse" x1="0" y1="791.9082" x2="1" y2="791.9082" gradientTransform="matrix(383.8062 586.5173 586.5173 -383.8062 -464274.7188 303954.875)">
		<stop  offset="0" style="stop-color:#F7E43D"/>
		<stop  offset="0.1937" style="stop-color:#F2A631"/>
		<stop  offset="0.3552" style="stop-color:#F18E4F"/>
		<stop  offset="0.5181" style="stop-color:#EB4E30"/>
		<stop  offset="0.6934" style="stop-color:#E73143"/>
		<stop  offset="0.8546" style="stop-color:#E41761"/>
		<stop  offset="1" style="stop-color:#E41B7E"/>
	</linearGradient>
	<polygon clip-path="url(#SVGID_50_)" fill="url(#SVGID_51_)" points="272.527,-6.548 366.023,136.329 235.349,221.84 
		141.853,78.962 	"/>
</g>
<g>
	<defs>
		<path id="SVGID_52_" d="M331.369,51.385c8.957-1.364,18.302-1.364,26.474,2.529c7.99,4.089,13.824,17.714,9.354,26.671
			c-5.065,11.882-14.798,20.252-28.621,24.73C336.434,87.014,333.707,69.488,331.369,51.385 M318.323,38.536
			c-3.115,1.364-10.899,4.281-12.461,5.842c-1.363,0.579-2.726,1.364-2.726,2.33c-2.33,13.245,0,27.069,1.363,40.306
			c2.148,17.517,4.867,35.818,7.205,53.145c0.777,9.543,1.562,18.302,2.925,26.87c0.579,1.95,3.694,4.479,6.032,5.255
			c4.478,0.587,8.567,0.587,13.046,1.364c7.982,1.362,10.709,0,10.709-7.982c-0.586-10.899-1.363-21.805-3.503-32.126
			c-1.174-7.593-0.587-11.485-0.587-15.963c0-2.528,4.866-2.917,12.072-6.032c11.097-4.089,19.077-10.708,24.92-20.83
			c6.42-9.932,3.891-21.227,0.775-31.348c-2.527-7.982-7.204-12.072-14.599-14.989c-11.882-5.453-25.118-7.791-34.853-5.842
			c-0.777,0-2.14,0.579-2.917,0.579c0,0-2.338-1.553-3.7-1.553C320.661,37.562,319.686,37.949,318.323,38.536"/>
	</defs>
	<clipPath id="SVGID_53_">
		<use xlink:href="#SVGID_52_"  overflow="visible"/>
	</clipPath>
	
		<linearGradient id="SVGID_54_" gradientUnits="userSpaceOnUse" x1="0" y1="791.9141" x2="1" y2="791.9141" gradientTransform="matrix(383.8062 586.5173 586.5173 -383.8062 -464214.7188 303915.375)">
		<stop  offset="0" style="stop-color:#F7E43D"/>
		<stop  offset="0.1937" style="stop-color:#F2A631"/>
		<stop  offset="0.3552" style="stop-color:#F18E4F"/>
		<stop  offset="0.5181" style="stop-color:#EB4E30"/>
		<stop  offset="0.6934" style="stop-color:#E73143"/>
		<stop  offset="0.8546" style="stop-color:#E41761"/>
		<stop  offset="1" style="stop-color:#E41B7E"/>
	</linearGradient>
	<polygon clip-path="url(#SVGID_53_)" fill="url(#SVGID_54_)" points="358.873,-1.411 447.161,133.507 325.671,213.008 
		237.383,78.09 	"/>
</g>
<g>
	<defs>
		<path id="SVGID_55_" d="M417.076,52.36c6.229,0,12.27-0.785,18.302,0c13.633,2.14,18.888,12.072,15.963,26.474
			c-3.115,14.41-12.848,24.143-24.92,33.1C423.306,91.682,420.191,72.603,417.076,52.36 M421.915,38.538
			c-1.805,0-3.615,0.064-5.418,0.188c-7.593,0.785-15.963,2.148-23.556,0.785c-4.479-1.562-8.181,2.14-7.594,7.396
			c0.776,11.295,2.33,22.781,3.114,34.266c1.363,14.41,2.917,28.622,4.479,43.023c1.553,14.41,3.891,28.622,6.031,43.032
			c0,3.892,1.562,4.669,8.37,6.23c3.115,1.553,12.849,2.331,17.524,2.331c1.554,0,2.141,0.784,2.917,0
			c6.04-1.554,5.255-6.231,5.255-9.924c-1.553-13.047-2.916-25.896-4.479-37.967c0-1.561,0-2.925,0.785-3.702
			c3.693-2.14,8.37-4.478,12.072-6.808c4.479,8.172,8.37,15.178,12.848,22.582c5.256,10.898,11.485,22.193,17.327,31.927
			c2.338,3.892,6.23,6.229,10.121,8.18c1.364,0.776,4.281-0.785,5.842-1.364c1.554-0.587,0.777-3.702,0.777-5.255
			c-1.554-3.115-2.338-5.453-3.892-8.378c-5.843-10.708-12.071-21.218-18.69-31.729c-4.677-7.791-9.147-15.186-13.625-22.003
			c2.14-2.917,5.255-6.032,7.396-9.931c7.007-8.172,8.567-18.104,7.782-29.59c-0.775-13.625-7.006-21.805-18.293-27.258
			c-8.183-4.248-17.596-6.03-27.089-6.03C421.919,38.538,421.917,38.538,421.915,38.538"/>
	</defs>
	<clipPath id="SVGID_56_">
		<use xlink:href="#SVGID_55_"  overflow="visible"/>
	</clipPath>
	
		<linearGradient id="SVGID_57_" gradientUnits="userSpaceOnUse" x1="0" y1="791.9199" x2="1" y2="791.9199" gradientTransform="matrix(383.8062 586.5173 586.5173 -383.8062 -464154.2188 303875.75)">
		<stop  offset="0" style="stop-color:#F7E43D"/>
		<stop  offset="0.1937" style="stop-color:#F2A631"/>
		<stop  offset="0.3552" style="stop-color:#F18E4F"/>
		<stop  offset="0.5181" style="stop-color:#EB4E30"/>
		<stop  offset="0.6934" style="stop-color:#E73143"/>
		<stop  offset="0.8546" style="stop-color:#E41761"/>
		<stop  offset="1" style="stop-color:#E41B7E"/>
	</linearGradient>
	<polygon clip-path="url(#SVGID_56_)" fill="url(#SVGID_57_)" points="457.823,-9.861 554.584,138.006 416.047,228.662 
		319.285,80.795 	"/>
</g>
<g>
	<defs>
		<rect id="SVGID_58_" width="612" height="792"/>
	</defs>
	<clipPath id="SVGID_59_">
		<use xlink:href="#SVGID_58_"  overflow="visible"/>
	</clipPath>
	<path clip-path="url(#SVGID_59_)" fill="#808285" d="M479.361,708.773l14.176-26.747h-17.385l-1.261,6.114h8.329l-10.889,20.633
		H479.361z M464.308,708.773l1.261-6.074h-5.311v-0.077c0,0,1.948-1.948,3.247-3.554l2.903-3.554
		c1.452-1.796,2.561-4.126,2.561-6.495c0-3.82-2.407-7.527-7.947-7.527c-4.203,0-6.534,2.406-8.75,5.731l5.043,4.241
		c0.994-2.216,2.026-3.745,3.517-3.745c1.909,0,2.521,1.949,1.146,3.592l-14.596,17.348v0.114H464.308z M429.308,708.773
		l1.299-6.113h-6.84l4.356-20.634h-6.457l-5.655,26.747H429.308z M406.268,708.773l5.655-26.747h-6.534l-5.655,26.747H406.268z
		 M383.189,694.636l1.375-6.572h0.955c1.491,0,2.675,0.879,2.675,2.676c0,2.062-1.527,3.896-4.012,3.896H383.189z M391.558,708.773
		l-2.178-9.36h-0.077c3.783-1.987,5.311-5.999,5.311-9.095c0-4.127-2.674-8.292-8.329-8.292h-6.916l-5.616,26.747h6.419l1.681-8.062
		h1.873h0.038l1.375,8.062H391.558z M358.507,695.248l1.489-7.185h0.955c1.49,0,2.676,0.917,2.676,2.6
		c0,2.178-1.644,4.585-4.127,4.585H358.507z M355.603,708.773l1.566-7.45h1.873c7.984,0,11.004-6.688,11.004-10.967
		c0-4.165-2.675-8.33-8.33-8.33H354.8l-5.616,26.747H355.603z M336.23,699.68h-2.751l2.063-6.189
		c0.726-2.217,1.566-5.196,1.566-5.196h0.076c0,0-0.306,2.979-0.497,5.311L336.23,699.68z M342.114,708.773l0.076-26.747h-7.489
		l-11.232,26.747h6.839l0.917-2.979h4.738l-0.268,2.979H342.114z M307.459,699.871l1.146-5.54h-11.081l-1.184,5.54H307.459z
		 M268.677,708.773l14.175-26.747h-17.385l-1.261,6.114h8.33l-10.89,20.633H268.677z M253.316,708.773l5.655-26.747h-8.33
		l-1.261,6.114h1.796l-4.394,20.633H253.316z M226.149,708.773l1.299-6.113h-6.84l4.356-20.634h-6.457l-5.655,26.747H226.149z
		 M203.109,708.773l5.655-26.747h-6.534l-5.655,26.747H203.109z M180.032,694.636l1.375-6.572h0.955
		c1.491,0,2.675,0.879,2.675,2.676c0,2.062-1.528,3.896-4.012,3.896H180.032z M188.399,708.773l-2.178-9.36h-0.077
		c3.783-1.987,5.311-5.999,5.311-9.095c0-4.127-2.674-8.292-8.329-8.292h-6.916l-5.617,26.747h6.419l1.681-8.062h1.873h0.038
		l1.375,8.062H188.399z M155.349,695.248l1.49-7.185h0.955c1.49,0,2.675,0.917,2.675,2.6c0,2.178-1.643,4.585-4.127,4.585H155.349z
		 M152.445,708.773l1.566-7.45h1.873c7.985,0,11.004-6.688,11.004-10.967c0-4.165-2.675-8.33-8.33-8.33h-6.916l-5.617,26.747
		H152.445z M133.073,699.68h-2.751l2.063-6.189c0.726-2.217,1.567-5.196,1.567-5.196h0.076c0,0-0.306,2.979-0.497,5.311
		L133.073,699.68z M138.957,708.773l0.076-26.747h-7.489l-11.233,26.747h6.839l0.917-2.979h4.738l-0.267,2.979H138.957z"/>
</g>
</svg>
