<?xml version="1.0" encoding="UTF-8" standalone="no"?>
<!-- Generator: Adobe Illustrator 15.1.0, SVG Export Plug-In . SVG Version: 6.00 Build 0)  -->

<svg
   xmlns:dc="http://purl.org/dc/elements/1.1/"
   xmlns:cc="http://creativecommons.org/ns#"
   xmlns:rdf="http://www.w3.org/1999/02/22-rdf-syntax-ns#"
   xmlns:svg="http://www.w3.org/2000/svg"
   xmlns="http://www.w3.org/2000/svg"
   xmlns:sodipodi="http://sodipodi.sourceforge.net/DTD/sodipodi-0.dtd"
   xmlns:inkscape="http://www.inkscape.org/namespaces/inkscape"
   version="1.1"
   id="Layer_1"
   x="0px"
   y="0px"
   width="490"
   height="100"
   viewBox="0 0 490 100"
   enable-background="new 0 0 550 156.16"
   xml:space="preserve"
   inkscape:version="0.48.4 r9939"
   sodipodi:docname="kcpr_final_logo_horiz_color_nobg.svg"><metadata
   id="metadata4233"><rdf:RDF><cc:Work
       rdf:about=""><dc:format>image/svg+xml</dc:format><dc:type
         rdf:resource="http://purl.org/dc/dcmitype/StillImage" /><dc:title></dc:title></cc:Work></rdf:RDF></metadata><defs
   id="defs4231" /><sodipodi:namedview
   pagecolor="#ffffff"
   bordercolor="#666666"
   borderopacity="1"
   objecttolerance="10"
   gridtolerance="10"
   guidetolerance="10"
   inkscape:pageopacity="0"
   inkscape:pageshadow="2"
   inkscape:window-width="1596"
   inkscape:window-height="881"
   id="namedview4229"
   showgrid="false"
   inkscape:zoom="4.7563636"
   inkscape:cx="207.72171"
   inkscape:cy="78.080002"
   inkscape:window-x="0"
   inkscape:window-y="15"
   inkscape:window-maximized="0"
   inkscape:current-layer="Layer_1" />
<path
   sodipodi:type="arc"
   style="fill:#000000;fill-opacity:1"
   id="path4317"
   sodipodi:cx="133.79887"
   sodipodi:cy="112.15504"
   sodipodi:rx="39.247669"
   sodipodi:ry="39.247669"
   d="m 173.04654,112.15504 a 39.247669,39.247669 0 1 1 -78.495335,0 39.247669,39.247669 0 1 1 78.495335,0 z"
   transform="matrix(0.93939394,0,0,0.93939394,-0.21624043,-53.525362)" /><path
   d="m 235.28194,5.3044177 c -0.557,0 -1.11,0.014 -1.661,0.043 h -33.272 -16.087 V 96.810422 h 16.087 V 68.787418 h 32.851 c 0.688,0.045 1.383,0.076 2.082,0.076 17.552,0 31.78,-14.229 31.78,-31.78 0,-17.551 -14.227,-31.7790003 -31.78,-31.7790003 z m 0,47.3390003 h -34.933 v -31.208 h 34.933 v 0.086 c 8.593,0 15.563,6.966 15.563,15.562 0,8.594 -6.969,15.56 -15.563,15.56 z"
   id="path4149"
   inkscape:connector-curvature="0"
   style="fill:#ffffff" />
<polygon
   points="63.199,85.914 101.056,123.772 123.807,123.772 74.573,74.539 116.763,32.349 94.012,32.349 48.434,77.929 48.434,32.349 32.344,32.349 32.344,123.813 48.434,123.813 48.434,100.68 "
   id="polygon4151"
   transform="translate(-31.517068,-27.021582)"
   style="fill:#ffffff" />
<path
   d="m 358.10794,37.082418 c 0,-17.551 -14.228,-31.7780003 -31.78,-31.7780003 -0.557,0 -1.111,0.014 -1.66,0.043 h -33.271 -16.088 V 96.810422 h 16.088 V 68.787418 h 20.607 l 28.022,28.023004 h 22.751 l -28.864,-28.866004 c 13.888,-3.402 24.195,-15.925 24.195,-30.862 z m -66.712,15.561 v -31.208 h 34.932 v 0.086 c 8.596,0 15.563,6.966 15.563,15.562 0,8.595 -6.968,15.561 -15.563,15.561 h -34.932 z"
   id="path4153"
   inkscape:connector-curvature="0"
   style="fill:#ffffff" />
<path
   d="m 376.43894,96.791422 h 109.7 V 53.675418 h -109.7 v 43.116004 z m 47.381,-5.917 v -2.572 -0.863 h 0.863 5.671 V 63.006418 h -5.671 -0.863 v -0.863 -2.548 -0.863 h 0.863 9.561 0.469 l 0.256,0.394 17.643,27.215004 17.353,-27.210004 0.254,-0.399 h 0.474 9.606 0.863 v 0.863 2.548 0.863 h -0.863 -5.669 v 24.432004 h 5.669 0.863 v 0.863 2.572 0.863 h -0.863 -15.889 -0.863 v -0.863 -2.572 -0.863 h 0.863 5.669 V 67.193418 l -15.575,24.148004 -0.255,0.396 h -0.471 -2.527 -0.472 l -0.255,-0.396 -15.597,-24.255004 v 20.353004 h 5.646 0.863 v 0.863 2.572 0.863 h -0.863 -15.89 -0.863 v -0.863 z m -41.858,0 v -2.572 -0.863 h 0.863 5.669 V 63.006418 h -5.669 -0.863 v -0.863 -2.548 -0.863 h 0.863 33.1 0.863 v 0.863 9.348 h -4.298 v -5.821 h -19.424 v 9.495 h 16.667 0.863 v 0.863 2.665 0.863 h -0.863 -16.667 v 10.430004 h 5.648 0.863 v 0.863 2.572 0.863 h -0.863 -15.89 -0.863 v -0.862 z"
   id="path4155"
   inkscape:connector-curvature="0"
   style="fill:#ffffff" />
<path
   d="m 446.13394,37.485418 c -0.317,-0.317 -0.691,-0.572 -1.114,-0.761 -0.442,-0.193 -0.908,-0.29 -1.39,-0.29 -0.498,0 -0.971,0.097 -1.405,0.288 -0.429,0.191 -0.802,0.449 -1.113,0.768 -0.316,0.33 -0.562,0.708 -0.736,1.128 -0.18,0.422 -0.271,0.892 -0.271,1.388 0,0.482 0.093,0.944 0.274,1.373 0.171,0.415 0.421,0.792 0.738,1.113 0.313,0.313 0.688,0.563 1.117,0.746 0.438,0.182 0.906,0.272 1.396,0.272 0.474,0 0.934,-0.09 1.367,-0.269 0.437,-0.186 0.812,-0.433 1.126,-0.739 0.323,-0.315 0.581,-0.69 0.768,-1.114 0.19,-0.432 0.288,-0.897 0.288,-1.382 0,-0.499 -0.098,-0.973 -0.289,-1.408 -0.184,-0.418 -0.439,-0.793 -0.756,-1.113 z"
   id="path4157"
   inkscape:connector-curvature="0"
   style="fill:#ffffff" />
<path
   d="m 408.71594,13.712418 c -1.534,-1.34 -3.377,-2.356 -5.477,-3.019 -2.075,-0.654 -4.364,-0.9850003 -6.805,-0.9850003 -2.43,0 -4.625,0.284 -6.526,0.8450003 -1.924,0.563 -3.575,1.352 -4.904,2.343 -1.352,1.005 -2.396,2.207 -3.106,3.571 -0.716,1.369 -1.078,2.856 -1.078,4.418 0,1.876 0.415,3.542 1.232,4.952 0.809,1.394 1.927,2.567 3.323,3.487 1.368,0.9 2.996,1.579 4.84,2.017 1.811,0.433 3.789,0.652 5.879,0.652 2.185,0 4.13,-0.216 5.782,-0.644 1.638,-0.422 3.054,-0.93 4.21,-1.509 1.144,-0.572 2.087,-1.161 2.805,-1.75 -0.104,1.125 -0.297,2.22 -0.577,3.271 -0.43,1.621 -1.142,3.066 -2.117,4.297 -0.965,1.212 -2.258,2.197 -3.84,2.926 -1.593,0.733 -3.601,1.104 -5.967,1.104 -1.668,0 -3.173,-0.153 -4.474,-0.456 -1.257,-0.293 -2.326,-0.728 -3.18,-1.291 -0.826,-0.547 -1.436,-1.205 -1.863,-2.007 -0.304,-0.569 -0.493,-1.219 -0.58,-1.926 h -0.876 -2.888 -0.866 l 0.006,0.068 c 0.12,1.527 0.528,2.869 1.212,3.989 0.826,1.355 1.945,2.483 3.327,3.354 1.353,0.854 2.935,1.49 4.7,1.887 1.728,0.393 3.572,0.592 5.481,0.592 2.843,0 5.373,-0.447 7.521,-1.328 2.16,-0.89 3.989,-2.151 5.435,-3.748 1.441,-1.596 2.532,-3.525 3.244,-5.735 0.699,-2.181 1.054,-4.609 1.054,-7.219 0,-2.686 -0.438,-5.067 -1.301,-7.078 -0.86,-2.017 -2.081,-3.726 -3.626,-5.078 z m -1.437,10.041 c -0.625,0.667 -1.434,1.307 -2.405,1.904 -0.975,0.598 -2.147,1.112 -3.482,1.529 -1.322,0.411 -2.867,0.62 -4.591,0.62 -2.063,0 -3.856,-0.172 -5.327,-0.512 -1.434,-0.333 -2.621,-0.808 -3.528,-1.414 -0.881,-0.586 -1.51,-1.277 -1.925,-2.113 -0.416,-0.842 -0.628,-1.812 -0.628,-2.883 0,-1.031 0.229,-1.977 0.683,-2.811 0.452,-0.833 1.133,-1.562 2.023,-2.167 0.918,-0.621 2.093,-1.112 3.49,-1.458 1.425,-0.353 3.102,-0.531 4.982,-0.531 1.999,0 3.739,0.262 5.171,0.779 1.428,0.516 2.636,1.191 3.591,2.007 0.952,0.813 1.704,1.735 2.234,2.741 0.48,0.912 0.816,1.833 1.001,2.741 -0.322,0.473 -0.755,1 -1.289,1.568 z"
   id="path4159"
   inkscape:connector-curvature="0"
   style="fill:#ffffff" />
<polygon
   points="449.914,43.839 456.75,41.822 456.75,66.007 450.604,66.007 450.601,66.007 450.601,70.304 450.604,70.304 467.403,70.304 467.403,66.007 461.255,66.007 461.255,38.162 461.255,37.299 460.392,37.299 457.613,37.299 457.489,37.299 457.371,37.333 449.67,39.584 449.67,43.911 "
   id="polygon4161"
   transform="translate(-31.517068,-27.021582)"
   style="fill:#ffffff" />
<path
   d="m 481.01194,28.507418 c -0.352,-0.755 -0.864,-1.503 -1.521,-2.22 -0.66,-0.719 -1.537,-1.385 -2.606,-1.98 -1.044,-0.583 -2.342,-1.088 -3.857,-1.503 -0.938,-0.254 -1.999,-0.464 -3.169,-0.626 l 11.299,-8.386 0.349,-0.259 v -0.435 -1.958 -0.863 h -0.863 -27.66 -0.863 v 0.863 8.414 h 4.299 v -4.956 h 16.765 l -9.923,7.368 -0.349,0.259 v 0.434 2.457 0.858 l 0.858,0.005 c 2.758,0.016 5.062,0.207 6.846,0.565 1.743,0.349 3.13,0.836 4.121,1.448 0.934,0.573 1.588,1.255 1.948,2.03 0.376,0.817 0.567,1.741 0.567,2.744 0,0.898 -0.219,1.765 -0.65,2.576 -0.432,0.813 -1.11,1.546 -2.02,2.18 -0.935,0.651 -2.149,1.179 -3.61,1.569 -1.479,0.396 -3.264,0.597 -5.309,0.597 -1.788,0 -3.405,-0.158 -4.808,-0.47 -1.371,-0.301 -2.546,-0.769 -3.495,-1.392 -0.923,-0.606 -1.614,-1.355 -2.114,-2.292 -0.491,-0.923 -0.74,-2.047 -0.74,-3.337 v -0.011 h -4.616 v 0.011 c 0,2.123 0.445,3.959 1.324,5.458 0.869,1.484 2.051,2.712 3.512,3.647 1.424,0.913 3.088,1.583 4.946,1.994 1.812,0.399 3.721,0.601 5.673,0.601 2.341,0 4.533,-0.238 6.516,-0.707 2.005,-0.474 3.764,-1.186 5.228,-2.115 1.497,-0.947 2.679,-2.135 3.511,-3.531 0.845,-1.41 1.273,-3.033 1.273,-4.823 0,-0.592 -0.054,-1.251 -0.16,-1.961 -0.113,-0.745 -0.349,-1.503 -0.702,-2.253 z"
   id="path4163"
   inkscape:connector-curvature="0"
   style="fill:#ffffff" />
<path
   d="m 128.47594,-2.0215823 c -0.065,0 -0.128,0.005 -0.193,0.005 h 0.386 c -0.065,0 -0.128,-0.005 -0.193,-0.005 z"
   id="path4165"
   inkscape:connector-curvature="0" />
<path
   d="m 128.49394,99.911422 c 16.5,0 31.085,-8.178 39.934,-20.704004 l -14.024,-8.097 c -5.996,7.735 -15.366,12.716004 -25.908,12.716004 -18.099,0 -32.771008,-14.672004 -32.771008,-32.774004 0,-18.1 14.671008,-32.771 32.771008,-32.771 10.552,0 19.932,4.993 25.926,12.739 l 14.022,-8.096 c -8.846,-12.539 -23.439,-20.7290003 -39.95,-20.7290003 -26.982,0 -48.856008,21.8760003 -48.856008,48.8560003 0,26.984 21.874008,48.860004 48.856008,48.860004 z"
   id="path4167"
   inkscape:connector-curvature="0"
   style="fill:#ffffff" />
<g
   id="g4169"
   transform="translate(-31.517068,-27.021582)">
	<path
   d="m 200.878,101.671 0.427,0.251 1.034,0.596 c 4.132,-7.168 6.53,-15.461 6.53,-24.33 0,-8.934 -2.441,-17.289 -6.633,-24.497 l -0.931,0.538 -0.532,0.309 c 4.05,6.961 6.405,15.021 6.405,23.65 0,8.56 -2.316,16.566 -6.3,23.483 z"
   id="path4171"
   inkscape:connector-curvature="0"
   style="fill:#00928f" />
</g>
<g
   id="g4173"
   transform="translate(-31.517068,-27.021582)">
	<path
   d="m 204.04,78.188 c 0,-8.055 -2.201,-15.588 -5.983,-22.085 l -1.457,0.843 c 3.635,6.25 5.753,13.492 5.753,21.242 0,7.682 -2.075,14.861 -5.651,21.075 l 1.461,0.842 c 3.717,-6.457 5.877,-13.928 5.877,-21.917 z"
   id="path4175"
   inkscape:connector-curvature="0"
   style="fill:#00928f" />
</g>
<g
   id="g4177"
   transform="translate(-31.517068,-27.021582)">
	<path
   d="m 199.211,78.188 c 0,-7.18 -1.962,-13.886 -5.331,-19.673 l -1.385,0.798 c 3.234,5.556 5.119,11.987 5.119,18.875 0,6.818 -1.841,13.192 -5.012,18.708 l 1.379,0.797 c 3.311,-5.746 5.23,-12.395 5.23,-19.505 z"
   id="path4179"
   inkscape:connector-curvature="0"
   style="fill:#00928f" />
</g>
<g
   id="g4181"
   transform="translate(-31.517068,-27.021582)">
	<path
   d="m 194.477,78.188 c 0,-6.312 -1.73,-12.218 -4.695,-17.306 l -1.461,0.847 c 2.821,4.842 4.465,10.455 4.465,16.459 0,5.939 -1.603,11.491 -4.365,16.291 l 1.465,0.847 c 2.906,-5.052 4.591,-10.891 4.591,-17.138 z"
   id="path4183"
   inkscape:connector-curvature="0"
   style="fill:#00928f" />
</g>
<g
   id="g4185"
   transform="translate(-31.517068,-27.021582)">
	<path
   d="m 189.648,78.188 c 0,-5.433 -1.488,-10.517 -4.046,-14.893 l -1.461,0.846 c 2.413,4.131 3.814,8.923 3.814,14.047 0,5.056 -1.36,9.79 -3.711,13.883 l 1.465,0.843 c 2.49,-4.341 3.939,-9.359 3.939,-14.726 z"
   id="path4187"
   inkscape:connector-curvature="0"
   style="fill:#00928f" />
</g>
<g
   id="g4189"
   transform="translate(-31.517068,-27.021582)">
	<path
   d="m 181.423,90.439 c 2.069,-3.613 3.271,-7.788 3.271,-12.252 0,-4.532 -1.243,-8.766 -3.376,-12.415 l -1.356,0.781 c 2.001,3.419 3.167,7.389 3.167,11.634 0,4.18 -1.124,8.088 -3.062,11.467 l 1.356,0.785 z"
   id="path4191"
   inkscape:connector-curvature="0"
   style="fill:#00928f" />
</g>
<g
   id="g4193"
   transform="translate(-31.517068,-27.021582)">
	<path
   d="m 177.35,88.088 c 1.672,-2.922 2.64,-6.296 2.64,-9.9 0,-3.674 -1.009,-7.105 -2.743,-10.068 l -1.496,0.863 c 1.586,2.704 2.511,5.844 2.511,9.205 0,3.292 -0.883,6.37 -2.408,9.037 l 1.496,0.863 z"
   id="path4195"
   inkscape:connector-curvature="0"
   style="fill:#00928f" />
</g>
<g
   id="g4197"
   transform="translate(-31.517068,-27.021582)">
	<path
   d="m 173.072,70.531 -1.502,0.867 c 1.179,2.002 1.903,4.303 1.903,6.789 0,2.421 -0.69,4.656 -1.809,6.617 l 1.508,0.875 c 1.26,-2.215 1.989,-4.763 1.989,-7.492 0.001,-2.793 -0.768,-5.404 -2.089,-7.656 z"
   id="path4199"
   inkscape:connector-curvature="0"
   style="fill:#00928f" />
</g>
<path
   d="m 128.49394,61.494418 c 3.791,0 7.1,-2.043 8.896,-5.088 0.908,-1.537 1.43,-3.324 1.43,-5.24 0,-1.98 -0.561,-3.834 -1.531,-5.408 -1.816,-2.95 -5.075,-4.915 -8.794,-4.915 -5.702,0 -10.324,4.624 -10.324,10.323 0,5.705 4.621,10.328 10.323,10.328 z m 0,-13.702 c 1.808,0 3.261,1.458 3.261,3.259 0,1.8 -1.453,3.263 -3.261,3.263 -1.804,0 -3.259,-1.463 -3.259,-3.263 0,-1.801 1.455,-3.259 3.259,-3.259 z"
   id="path4201"
   inkscape:connector-curvature="0"
   style="fill:#e8573f" />
<circle
   cx="160.011"
   cy="78.074997"
   r="1.568"
   id="circle4203"
   sodipodi:cx="160.011"
   sodipodi:cy="78.074997"
   sodipodi:rx="1.568"
   sodipodi:ry="1.568"
   transform="translate(-31.517068,-27.021582)"
   style="fill:#ffffff" />
<path
   d="m 128.46194,22.250418 c -5.261,0 -10.046,1.923 -13.735,5.092 4.028,-2.363 8.707,-3.735 13.729,-3.735 5.053,0 9.763,1.389 13.814,3.768 -3.705,-3.189 -8.519,-5.125 -13.808,-5.125 z"
   id="path4205"
   inkscape:connector-curvature="0"
   style="fill:#676767" />
<path
   d="m 128.46494,25.037418 c -4.743,0 -9.045,1.788 -12.317,4.705 3.613,-2.111 7.809,-3.345 12.309,-3.345 4.535,0 8.758,1.245 12.391,3.374 -3.288,-2.935 -7.613,-4.734 -12.383,-4.734 z"
   id="path4207"
   inkscape:connector-curvature="0"
   style="fill:#676767" />
<path
   d="m 117.67294,32.081418 c 3.177,-1.829 6.851,-2.894 10.788,-2.894 3.966,0 7.67,1.077 10.864,2.922 -2.842,-2.65 -6.647,-4.281 -10.856,-4.281 -4.183,0 -7.964,1.623 -10.796,4.253 z"
   id="path4209"
   inkscape:connector-curvature="0"
   style="fill:#676767" />
<path
   d="m 128.47394,30.622418 c -3.656,0 -6.954,1.468 -9.354,3.843 2.754,-1.574 5.937,-2.486 9.346,-2.486 3.438,0 6.646,0.925 9.413,2.515 -2.407,-2.397 -5.729,-3.872 -9.405,-3.872 z"
   id="path4211"
   inkscape:connector-curvature="0"
   style="fill:#676767" />
<path
   d="m 128.47594,33.413418 c -3.156,0 -5.969,1.344 -7.964,3.473 2.344,-1.34 5.057,-2.117 7.958,-2.117 2.92,0 5.649,0.781 8.008,2.133 -2.002,-2.138 -4.828,-3.489 -8.002,-3.489 z"
   id="path4213"
   inkscape:connector-curvature="0"
   style="fill:#676767" />
<path
   d="m 121.90194,39.305418 c 1.936,-1.105 4.175,-1.746 6.571,-1.746 2.412,0 4.665,0.646 6.612,1.763 -1.58,-1.895 -3.935,-3.123 -6.606,-3.123 -2.658,0 -4.998,1.22 -6.577,3.106 z"
   id="path4215"
   inkscape:connector-curvature="0"
   style="fill:#676767" />
<path
   d="m 128.46194,79.827418 c 5.289,0 10.104,-1.939 13.808,-5.124 -4.052,2.375 -8.762,3.764 -13.814,3.764 -5.022,0 -9.701,-1.372 -13.729,-3.735 3.688,3.168 8.474,5.095 13.735,5.095 z"
   id="path4217"
   inkscape:connector-curvature="0"
   style="fill:#333333" />
<path
   d="m 128.46494,77.037418 c 4.77,0 9.095,-1.796 12.382,-4.734 -3.633,2.133 -7.855,3.374 -12.391,3.374 -4.5,0 -8.696,-1.229 -12.309,-3.341 3.273,2.913 7.576,4.701 12.318,4.701 z"
   id="path4219"
   inkscape:connector-curvature="0"
   style="fill:#333333" />
<path
   d="m 128.46894,74.246418 c 4.208,0 8.014,-1.627 10.856,-4.282 -3.193,1.85 -6.898,2.922 -10.864,2.922 -3.938,0 -7.611,-1.06 -10.788,-2.893 2.832,2.633 6.613,4.253 10.796,4.253 z"
   id="path4221"
   inkscape:connector-curvature="0"
   style="fill:#333333" />
<path
   d="m 128.47394,71.456418 c 3.676,0 6.999,-1.479 9.405,-3.871 -2.768,1.59 -5.976,2.515 -9.413,2.515 -3.409,0 -6.592,-0.916 -9.346,-2.49 2.4,2.378 5.698,3.846 9.354,3.846 z"
   id="path4223"
   inkscape:connector-curvature="0"
   style="fill:#333333" />
<path
   d="m 128.47594,68.666418 c 3.175,0 6,-1.356 8.001,-3.489 -2.359,1.348 -5.088,2.133 -8.008,2.133 -2.901,0 -5.614,-0.777 -7.958,-2.116 1.995,2.123 4.808,3.472 7.965,3.472 z"
   id="path4225"
   inkscape:connector-curvature="0"
   style="fill:#333333" />
<path
   d="m 135.08594,62.755418 c -1.948,1.113 -4.2,1.759 -6.612,1.759 -2.396,0 -4.636,-0.637 -6.571,-1.747 1.578,1.887 3.918,3.111 6.577,3.111 2.671,0 5.026,-1.228 6.606,-3.123 z"
   id="path4227"
   inkscape:connector-curvature="0"
   style="fill:#676767" />
<path
   style="fill:#ffffff"
   inkscape:connector-curvature="0"
   id="path4235"
   d="m 235.28194,5.3044177 c -0.557,0 -1.11,0.014 -1.661,0.043 h -33.272 -16.087 V 96.810422 h 16.087 V 68.787418 h 32.851 c 0.688,0.045 1.383,0.076 2.082,0.076 17.552,0 31.78,-14.229 31.78,-31.78 0,-17.551 -14.227,-31.7790003 -31.78,-31.7790003 z m 0,47.3390003 h -34.933 v -31.208 h 34.933 v 0.086 c 8.593,0 15.563,6.966 15.563,15.562 0,8.594 -6.969,15.56 -15.563,15.56 z" /><polygon
   style="fill:#ffffff"
   transform="translate(-31.517068,-27.021582)"
   id="polygon4237"
   points="63.199,85.914 101.056,123.772 123.807,123.772 74.573,74.539 116.763,32.349 94.012,32.349 48.434,77.929 48.434,32.349 32.344,32.349 32.344,123.813 48.434,123.813 48.434,100.68 " /><path
   style="fill:#ffffff"
   inkscape:connector-curvature="0"
   id="path4239"
   d="m 358.10794,37.082418 c 0,-17.551 -14.228,-31.7780003 -31.78,-31.7780003 -0.557,0 -1.111,0.014 -1.66,0.043 h -33.271 -16.088 V 96.810422 h 16.088 V 68.787418 h 20.607 l 28.022,28.023004 h 22.751 l -28.864,-28.866004 c 13.888,-3.402 24.195,-15.925 24.195,-30.862 z m -66.712,15.561 v -31.208 h 34.932 v 0.086 c 8.596,0 15.563,6.966 15.563,15.562 0,8.595 -6.968,15.561 -15.563,15.561 h -34.932 z" /><path
   style="fill:#ffffff"
   inkscape:connector-curvature="0"
   id="path4241"
   d="m 376.43894,96.791422 h 109.7 V 53.675418 h -109.7 v 43.116004 z m 47.381,-5.917 v -2.572 -0.863 h 0.863 5.671 V 63.006418 h -5.671 -0.863 v -0.863 -2.548 -0.863 h 0.863 9.561 0.469 l 0.256,0.394 17.643,27.215004 17.353,-27.210004 0.254,-0.399 h 0.474 9.606 0.863 v 0.863 2.548 0.863 h -0.863 -5.669 v 24.432004 h 5.669 0.863 v 0.863 2.572 0.863 h -0.863 -15.889 -0.863 v -0.863 -2.572 -0.863 h 0.863 5.669 V 67.193418 l -15.575,24.148004 -0.255,0.396 h -0.471 -2.527 -0.472 l -0.255,-0.396 -15.597,-24.255004 v 20.353004 h 5.646 0.863 v 0.863 2.572 0.863 h -0.863 -15.89 -0.863 v -0.863 z m -41.858,0 v -2.572 -0.863 h 0.863 5.669 V 63.006418 h -5.669 -0.863 v -0.863 -2.548 -0.863 h 0.863 33.1 0.863 v 0.863 9.348 h -4.298 v -5.821 h -19.424 v 9.495 h 16.667 0.863 v 0.863 2.665 0.863 h -0.863 -16.667 v 10.430004 h 5.648 0.863 v 0.863 2.572 0.863 h -0.863 -15.89 -0.863 v -0.862 z" /><path
   style="fill:#ffffff"
   inkscape:connector-curvature="0"
   id="path4243"
   d="m 446.13394,37.485418 c -0.317,-0.317 -0.691,-0.572 -1.114,-0.761 -0.442,-0.193 -0.908,-0.29 -1.39,-0.29 -0.498,0 -0.971,0.097 -1.405,0.288 -0.429,0.191 -0.802,0.449 -1.113,0.768 -0.316,0.33 -0.562,0.708 -0.736,1.128 -0.18,0.422 -0.271,0.892 -0.271,1.388 0,0.482 0.093,0.944 0.274,1.373 0.171,0.415 0.421,0.792 0.738,1.113 0.313,0.313 0.688,0.563 1.117,0.746 0.438,0.182 0.906,0.272 1.396,0.272 0.474,0 0.934,-0.09 1.367,-0.269 0.437,-0.186 0.812,-0.433 1.126,-0.739 0.323,-0.315 0.581,-0.69 0.768,-1.114 0.19,-0.432 0.288,-0.897 0.288,-1.382 0,-0.499 -0.098,-0.973 -0.289,-1.408 -0.184,-0.418 -0.439,-0.793 -0.756,-1.113 z" /><path
   style="fill:#ffffff"
   inkscape:connector-curvature="0"
   id="path4245"
   d="m 408.71594,13.712418 c -1.534,-1.34 -3.377,-2.356 -5.477,-3.019 -2.075,-0.654 -4.364,-0.9850003 -6.805,-0.9850003 -2.43,0 -4.625,0.284 -6.526,0.8450003 -1.924,0.563 -3.575,1.352 -4.904,2.343 -1.352,1.005 -2.396,2.207 -3.106,3.571 -0.716,1.369 -1.078,2.856 -1.078,4.418 0,1.876 0.415,3.542 1.232,4.952 0.809,1.394 1.927,2.567 3.323,3.487 1.368,0.9 2.996,1.579 4.84,2.017 1.811,0.433 3.789,0.652 5.879,0.652 2.185,0 4.13,-0.216 5.782,-0.644 1.638,-0.422 3.054,-0.93 4.21,-1.509 1.144,-0.572 2.087,-1.161 2.805,-1.75 -0.104,1.125 -0.297,2.22 -0.577,3.271 -0.43,1.621 -1.142,3.066 -2.117,4.297 -0.965,1.212 -2.258,2.197 -3.84,2.926 -1.593,0.733 -3.601,1.104 -5.967,1.104 -1.668,0 -3.173,-0.153 -4.474,-0.456 -1.257,-0.293 -2.326,-0.728 -3.18,-1.291 -0.826,-0.547 -1.436,-1.205 -1.863,-2.007 -0.304,-0.569 -0.493,-1.219 -0.58,-1.926 h -0.876 -2.888 -0.866 l 0.006,0.068 c 0.12,1.527 0.528,2.869 1.212,3.989 0.826,1.355 1.945,2.483 3.327,3.354 1.353,0.854 2.935,1.49 4.7,1.887 1.728,0.393 3.572,0.592 5.481,0.592 2.843,0 5.373,-0.447 7.521,-1.328 2.16,-0.89 3.989,-2.151 5.435,-3.748 1.441,-1.596 2.532,-3.525 3.244,-5.735 0.699,-2.181 1.054,-4.609 1.054,-7.219 0,-2.686 -0.438,-5.067 -1.301,-7.078 -0.86,-2.017 -2.081,-3.726 -3.626,-5.078 z m -1.437,10.041 c -0.625,0.667 -1.434,1.307 -2.405,1.904 -0.975,0.598 -2.147,1.112 -3.482,1.529 -1.322,0.411 -2.867,0.62 -4.591,0.62 -2.063,0 -3.856,-0.172 -5.327,-0.512 -1.434,-0.333 -2.621,-0.808 -3.528,-1.414 -0.881,-0.586 -1.51,-1.277 -1.925,-2.113 -0.416,-0.842 -0.628,-1.812 -0.628,-2.883 0,-1.031 0.229,-1.977 0.683,-2.811 0.452,-0.833 1.133,-1.562 2.023,-2.167 0.918,-0.621 2.093,-1.112 3.49,-1.458 1.425,-0.353 3.102,-0.531 4.982,-0.531 1.999,0 3.739,0.262 5.171,0.779 1.428,0.516 2.636,1.191 3.591,2.007 0.952,0.813 1.704,1.735 2.234,2.741 0.48,0.912 0.816,1.833 1.001,2.741 -0.322,0.473 -0.755,1 -1.289,1.568 z" /><polygon
   style="fill:#ffffff"
   transform="translate(-31.517068,-27.021582)"
   id="polygon4247"
   points="449.914,43.839 456.75,41.822 456.75,66.007 450.604,66.007 450.601,66.007 450.601,70.304 450.604,70.304 467.403,70.304 467.403,66.007 461.255,66.007 461.255,38.162 461.255,37.299 460.392,37.299 457.613,37.299 457.489,37.299 457.371,37.333 449.67,39.584 449.67,43.911 " /><path
   style="fill:#ffffff"
   inkscape:connector-curvature="0"
   id="path4249"
   d="m 481.01194,28.507418 c -0.352,-0.755 -0.864,-1.503 -1.521,-2.22 -0.66,-0.719 -1.537,-1.385 -2.606,-1.98 -1.044,-0.583 -2.342,-1.088 -3.857,-1.503 -0.938,-0.254 -1.999,-0.464 -3.169,-0.626 l 11.299,-8.386 0.349,-0.259 v -0.435 -1.958 -0.863 h -0.863 -27.66 -0.863 v 0.863 8.414 h 4.299 v -4.956 h 16.765 l -9.923,7.368 -0.349,0.259 v 0.434 2.457 0.858 l 0.858,0.005 c 2.758,0.016 5.062,0.207 6.846,0.565 1.743,0.349 3.13,0.836 4.121,1.448 0.934,0.573 1.588,1.255 1.948,2.03 0.376,0.817 0.567,1.741 0.567,2.744 0,0.898 -0.219,1.765 -0.65,2.576 -0.432,0.813 -1.11,1.546 -2.02,2.18 -0.935,0.651 -2.149,1.179 -3.61,1.569 -1.479,0.396 -3.264,0.597 -5.309,0.597 -1.788,0 -3.405,-0.158 -4.808,-0.47 -1.371,-0.301 -2.546,-0.769 -3.495,-1.392 -0.923,-0.606 -1.614,-1.355 -2.114,-2.292 -0.491,-0.923 -0.74,-2.047 -0.74,-3.337 v -0.011 h -4.616 v 0.011 c 0,2.123 0.445,3.959 1.324,5.458 0.869,1.484 2.051,2.712 3.512,3.647 1.424,0.913 3.088,1.583 4.946,1.994 1.812,0.399 3.721,0.601 5.673,0.601 2.341,0 4.533,-0.238 6.516,-0.707 2.005,-0.474 3.764,-1.186 5.228,-2.115 1.497,-0.947 2.679,-2.135 3.511,-3.531 0.845,-1.41 1.273,-3.033 1.273,-4.823 0,-0.592 -0.054,-1.251 -0.16,-1.961 -0.113,-0.745 -0.349,-1.503 -0.702,-2.253 z" /><path
   inkscape:connector-curvature="0"
   id="path4251"
   d="m 128.47594,-2.0215823 c -0.065,0 -0.128,0.005 -0.193,0.005 h 0.386 c -0.065,0 -0.128,-0.005 -0.193,-0.005 z" /><path
   style="fill:#ffffff"
   inkscape:connector-curvature="0"
   id="path4253"
   d="m 128.49394,99.911422 c 16.5,0 31.085,-8.178 39.934,-20.704004 l -14.024,-8.097 c -5.996,7.735 -15.366,12.716004 -25.908,12.716004 -18.099,0 -32.771008,-14.672004 -32.771008,-32.774004 0,-18.1 14.671008,-32.771 32.771008,-32.771 10.552,0 19.932,4.993 25.926,12.739 l 14.022,-8.096 c -8.846,-12.539 -23.439,-20.7290003 -39.95,-20.7290003 -26.982,0 -48.856008,21.8760003 -48.856008,48.8560003 0,26.984 21.874008,48.860004 48.856008,48.860004 z" /><g
   transform="translate(-31.517068,-27.021582)"
   id="g4255">
	<path
   style="fill:#00928f"
   inkscape:connector-curvature="0"
   id="path4257"
   d="m 200.878,101.671 0.427,0.251 1.034,0.596 c 4.132,-7.168 6.53,-15.461 6.53,-24.33 0,-8.934 -2.441,-17.289 -6.633,-24.497 l -0.931,0.538 -0.532,0.309 c 4.05,6.961 6.405,15.021 6.405,23.65 0,8.56 -2.316,16.566 -6.3,23.483 z" />
</g><g
   transform="translate(-31.517068,-27.021582)"
   id="g4259">
	<path
   style="fill:#00928f"
   inkscape:connector-curvature="0"
   id="path4261"
   d="m 204.04,78.188 c 0,-8.055 -2.201,-15.588 -5.983,-22.085 l -1.457,0.843 c 3.635,6.25 5.753,13.492 5.753,21.242 0,7.682 -2.075,14.861 -5.651,21.075 l 1.461,0.842 c 3.717,-6.457 5.877,-13.928 5.877,-21.917 z" />
</g><g
   transform="translate(-31.517068,-27.021582)"
   id="g4263">
	<path
   style="fill:#00928f"
   inkscape:connector-curvature="0"
   id="path4265"
   d="m 199.211,78.188 c 0,-7.18 -1.962,-13.886 -5.331,-19.673 l -1.385,0.798 c 3.234,5.556 5.119,11.987 5.119,18.875 0,6.818 -1.841,13.192 -5.012,18.708 l 1.379,0.797 c 3.311,-5.746 5.23,-12.395 5.23,-19.505 z" />
</g><g
   transform="translate(-31.517068,-27.021582)"
   id="g4267">
	<path
   style="fill:#00928f"
   inkscape:connector-curvature="0"
   id="path4269"
   d="m 194.477,78.188 c 0,-6.312 -1.73,-12.218 -4.695,-17.306 l -1.461,0.847 c 2.821,4.842 4.465,10.455 4.465,16.459 0,5.939 -1.603,11.491 -4.365,16.291 l 1.465,0.847 c 2.906,-5.052 4.591,-10.891 4.591,-17.138 z" />
</g><g
   transform="translate(-31.517068,-27.021582)"
   id="g4271">
	<path
   style="fill:#00928f"
   inkscape:connector-curvature="0"
   id="path4273"
   d="m 189.648,78.188 c 0,-5.433 -1.488,-10.517 -4.046,-14.893 l -1.461,0.846 c 2.413,4.131 3.814,8.923 3.814,14.047 0,5.056 -1.36,9.79 -3.711,13.883 l 1.465,0.843 c 2.49,-4.341 3.939,-9.359 3.939,-14.726 z" />
</g><g
   transform="translate(-31.517068,-27.021582)"
   id="g4275">
	<path
   style="fill:#00928f"
   inkscape:connector-curvature="0"
   id="path4277"
   d="m 181.423,90.439 c 2.069,-3.613 3.271,-7.788 3.271,-12.252 0,-4.532 -1.243,-8.766 -3.376,-12.415 l -1.356,0.781 c 2.001,3.419 3.167,7.389 3.167,11.634 0,4.18 -1.124,8.088 -3.062,11.467 l 1.356,0.785 z" />
</g><g
   transform="translate(-31.517068,-27.021582)"
   id="g4279">
	<path
   style="fill:#00928f"
   inkscape:connector-curvature="0"
   id="path4281"
   d="m 177.35,88.088 c 1.672,-2.922 2.64,-6.296 2.64,-9.9 0,-3.674 -1.009,-7.105 -2.743,-10.068 l -1.496,0.863 c 1.586,2.704 2.511,5.844 2.511,9.205 0,3.292 -0.883,6.37 -2.408,9.037 l 1.496,0.863 z" />
</g><g
   transform="translate(-31.517068,-27.021582)"
   id="g4283">
	<path
   style="fill:#00928f"
   inkscape:connector-curvature="0"
   id="path4285"
   d="m 173.072,70.531 -1.502,0.867 c 1.179,2.002 1.903,4.303 1.903,6.789 0,2.421 -0.69,4.656 -1.809,6.617 l 1.508,0.875 c 1.26,-2.215 1.989,-4.763 1.989,-7.492 0.001,-2.793 -0.768,-5.404 -2.089,-7.656 z" />
</g><path
   style="fill:#e8573f"
   inkscape:connector-curvature="0"
   id="path4287"
   d="m 128.49394,61.494418 c 3.791,0 7.1,-2.043 8.896,-5.088 0.908,-1.537 1.43,-3.324 1.43,-5.24 0,-1.98 -0.561,-3.834 -1.531,-5.408 -1.816,-2.95 -5.075,-4.915 -8.794,-4.915 -5.702,0 -10.324,4.624 -10.324,10.323 0,5.705 4.621,10.328 10.323,10.328 z m 0,-13.702 c 1.808,0 3.261,1.458 3.261,3.259 0,1.8 -1.453,3.263 -3.261,3.263 -1.804,0 -3.259,-1.463 -3.259,-3.263 0,-1.801 1.455,-3.259 3.259,-3.259 z" /><circle
   style="fill:#ffffff"
   transform="translate(-31.517068,-27.021582)"
   sodipodi:ry="1.568"
   sodipodi:rx="1.568"
   sodipodi:cy="78.074997"
   sodipodi:cx="160.011"
   id="circle4289"
   r="1.568"
   cy="78.074997"
   cx="160.011" /><path
   style="fill:#333333"
   inkscape:connector-curvature="0"
   id="path4291"
   d="m 128.46194,22.250418 c -5.261,0 -10.046,1.923 -13.735,5.092 4.028,-2.363 8.707,-3.735 13.729,-3.735 5.053,0 9.763,1.389 13.814,3.768 -3.705,-3.189 -8.519,-5.125 -13.808,-5.125 z" /><path
   style="fill:#333333"
   inkscape:connector-curvature="0"
   id="path4293"
   d="m 128.46494,25.037418 c -4.743,0 -9.045,1.788 -12.317,4.705 3.613,-2.111 7.809,-3.345 12.309,-3.345 4.535,0 8.758,1.245 12.391,3.374 -3.288,-2.935 -7.613,-4.734 -12.383,-4.734 z" /><path
   style="fill:#333333"
   inkscape:connector-curvature="0"
   id="path4295"
   d="m 117.67294,32.081418 c 3.177,-1.829 6.851,-2.894 10.788,-2.894 3.966,0 7.67,1.077 10.864,2.922 -2.842,-2.65 -6.647,-4.281 -10.856,-4.281 -4.183,0 -7.964,1.623 -10.796,4.253 z" /><path
   style="fill:#333333"
   inkscape:connector-curvature="0"
   id="path4297"
   d="m 128.47394,30.622418 c -3.656,0 -6.954,1.468 -9.354,3.843 2.754,-1.574 5.937,-2.486 9.346,-2.486 3.438,0 6.646,0.925 9.413,2.515 -2.407,-2.397 -5.729,-3.872 -9.405,-3.872 z" /><path
   style="fill:#333333"
   inkscape:connector-curvature="0"
   id="path4299"
   d="m 128.47594,33.413418 c -3.156,0 -5.969,1.344 -7.964,3.473 2.344,-1.34 5.057,-2.117 7.958,-2.117 2.92,0 5.649,0.781 8.008,2.133 -2.002,-2.138 -4.828,-3.489 -8.002,-3.489 z" /><path
   style="fill:#333333"
   inkscape:connector-curvature="0"
   id="path4301"
   d="m 121.90194,39.305418 c 1.936,-1.105 4.175,-1.746 6.571,-1.746 2.412,0 4.665,0.646 6.612,1.763 -1.58,-1.895 -3.935,-3.123 -6.606,-3.123 -2.658,0 -4.998,1.22 -6.577,3.106 z" /><path
   style="fill:#333333"
   inkscape:connector-curvature="0"
   id="path4303"
   d="m 128.46194,79.827418 c 5.289,0 10.104,-1.939 13.808,-5.124 -4.052,2.375 -8.762,3.764 -13.814,3.764 -5.022,0 -9.701,-1.372 -13.729,-3.735 3.688,3.168 8.474,5.095 13.735,5.095 z" /><path
   style="fill:#333333"
   inkscape:connector-curvature="0"
   id="path4305"
   d="m 128.46494,77.037418 c 4.77,0 9.095,-1.796 12.382,-4.734 -3.633,2.133 -7.855,3.374 -12.391,3.374 -4.5,0 -8.696,-1.229 -12.309,-3.341 3.273,2.913 7.576,4.701 12.318,4.701 z" /><path
   style="fill:#333333"
   inkscape:connector-curvature="0"
   id="path4307"
   d="m 128.46894,74.246418 c 4.208,0 8.014,-1.627 10.856,-4.282 -3.193,1.85 -6.898,2.922 -10.864,2.922 -3.938,0 -7.611,-1.06 -10.788,-2.893 2.832,2.633 6.613,4.253 10.796,4.253 z" /><path
   style="fill:#333333"
   inkscape:connector-curvature="0"
   id="path4309"
   d="m 128.47394,71.456418 c 3.676,0 6.999,-1.479 9.405,-3.871 -2.768,1.59 -5.976,2.515 -9.413,2.515 -3.409,0 -6.592,-0.916 -9.346,-2.49 2.4,2.378 5.698,3.846 9.354,3.846 z" /><path
   style="fill:#333333"
   inkscape:connector-curvature="0"
   id="path4311"
   d="m 128.47594,68.666418 c 3.175,0 6,-1.356 8.001,-3.489 -2.359,1.348 -5.088,2.133 -8.008,2.133 -2.901,0 -5.614,-0.777 -7.958,-2.116 1.995,2.123 4.808,3.472 7.965,3.472 z" /><path
   style="fill:#333333"
   inkscape:connector-curvature="0"
   id="path4313"
   d="m 135.08594,62.755418 c -1.948,1.113 -4.2,1.759 -6.612,1.759 -2.396,0 -4.636,-0.637 -6.571,-1.747 1.578,1.887 3.918,3.111 6.577,3.111 2.671,0 5.026,-1.228 6.606,-3.123 z" /></svg>