<?xml version="1.0" standalone="no"?>
<!DOCTYPE svg PUBLIC "-//W3C//DTD SVG 1.1//EN" "http://www.w3.org/Graphics/SVG/1.1/DTD/svg11.dtd" >
<svg xmlns="http://www.w3.org/2000/svg">
<metadata>
This is a custom SVG webfont generated by Font Squirrel.
Copyright   : Copyright c 2008 by Tyler Finck  All rights reserved
Designer    : Tyler Finck
Foundry     : Sursly
Foundry URL : httpwwwsurslycom
</metadata>
<defs>
<font id="webfontrf6r2qgV" horiz-adv-x="903" >
<font-face units-per-em="2048" ascent="1536" descent="-512" />
<missing-glyph horiz-adv-x="1024" />
<glyph unicode=" "  horiz-adv-x="1024" />
<glyph unicode="&#x09;" horiz-adv-x="1024" />
<glyph unicode="&#xa0;" horiz-adv-x="1024" />
<glyph unicode="!" horiz-adv-x="423" d="M-16 1720h456v-1720h-456v1720zM72 1491v-852h276v852h-276zM348 264v277h-274v-277h274z" />
<glyph unicode="$" horiz-adv-x="806" d="M821 1720v-1720h-831v1720h831zM393 1026q-18 4 -31.5 19.5t-13.5 35.5q0 23 16.5 40.5t38.5 17.5q25 0 41.5 -17.5t16.5 -40.5h274q0 96 -49 174t-127 119v127h-276v-112q-92 -37 -150.5 -120t-58.5 -188q0 -68 25.5 -128t70.5 -105t105.5 -70.5t127.5 -25.5h11 q20 -4 33.5 -19.5t13.5 -36.5q0 -23 -16.5 -40t-41.5 -17q-23 0 -39 17.5t-16 39.5h-274q0 -104 58 -187t151 -120v-125h276v139q78 41 127 119t49 174q0 68 -26.5 128.5t-71.5 105.5t-105.5 70.5t-128.5 25.5h-10z" />
<glyph unicode="%" horiz-adv-x="1292" d="M1298 1720v-1720h-1316v1720h1316zM59 1092q0 -41 15.5 -78t43 -64.5t63.5 -43t77 -15.5q84 0 142.5 58.5t58.5 142.5q0 41 -15.5 76.5t-43 63.5t-64.5 43t-78 15t-77 -15t-63.5 -43t-43 -63.5t-15.5 -76.5zM408 264l720 1227h-276l-721 -1227h277zM1010 487 q41 0 76.5 15.5t63.5 43t43 64.5t15 78t-15 77t-43 63.5t-63.5 43t-76.5 15.5t-78 -15.5t-64.5 -43t-43 -63.5t-15.5 -77q0 -84 58.5 -142.5t142.5 -58.5z" />
<glyph unicode="&#x26;" horiz-adv-x="1187" d="M1208 1720v-1720h-1226v1720h1226zM975 590l162 160l-166 165l-160 -161l-186 188q72 35 114.5 102.5t42.5 153.5q0 59 -22.5 111.5t-61.5 91.5t-91 61.5t-111 22.5t-111.5 -22.5t-91.5 -61.5t-61.5 -91.5t-22.5 -111.5q0 -49 15.5 -94t43.5 -80q-82 -55 -132 -144 t-50 -196q0 -86 33 -160.5t88 -130t130 -87.5t159 -32q94 0 174 39t137 105l149 -152l172 172z" />
<glyph unicode="'" horiz-adv-x="428" d="M-14 1720h456v-1720h-456v1720zM352 1212v277h-274v-277h106l-88 -153h168z" />
<glyph unicode="*" horiz-adv-x="778" d="M-18 1720h809v-1720h-809v1720zM676 1202l-117 117l164 43l-47 176l-191 -51v174h-182v-174l-188 51l-45 -176l163 -43l-120 -121l129 -127l155 154l150 -150z" />
<glyph unicode="+" horiz-adv-x="1032" d="M-20 1720h1071v-1720h-1071v1720zM942 752v276h-289v289h-276v-289h-289v-276h289v-289h276v289h289z" />
<glyph unicode="," horiz-adv-x="432" d="M-14 1720h456v-1720h-456v1720zM354 264v277h-276v-277h106l-86 -153h168z" />
<glyph unicode="-" horiz-adv-x="1005" d="M-39 1720h1071v-1720h-1071v1720zM920 752v276h-852v-276h852z" />
<glyph unicode="." horiz-adv-x="428" d="M-14 1720h456v-1720h-456v1720zM352 264v277h-274v-277h274z" />
<glyph unicode="0" horiz-adv-x="894" d="M915 1720v-1720h-933v1720h933zM836 1071v39v2q0 82 -31 152.5t-83 124t-124 84t-152 30.5q-82 0 -152.5 -30.5t-123.5 -84t-85 -124t-32 -152.5v-506q0 -72 32 -139.5t86 -119.5t125 -83t150 -31q80 0 152 31t124 84t83 125t31 152v2v41v403z" />
<glyph unicode="1" horiz-adv-x="647" d="M-18 1720h688v-1720h-688v1720zM563 233v1272h-287l-249 -262l202 -203l47 47v-854h287z" />
<glyph unicode="2" horiz-adv-x="909" d="M920 1720v-1720h-940v1720h940zM446 522l285 318q53 57 84 123.5t31 146.5q0 61 -19 117q-18 61 -54 112.5t-85 88t-109.5 57t-125.5 20.5q-82 0 -154 -31.5t-125 -85t-84 -125t-31 -153.5h287q0 45 32 76t75 31q35 0 62.5 -20.5t37.5 -53.5q6 -16 6 -31q0 -29 -16 -55 l-463 -535v-286h762v286h-396z" />
<glyph unicode="3" horiz-adv-x="884" d="M899 1720v-1720h-922v1720h922zM834 629q0 70 -23 130t-63 109q41 49 63.5 110.5t22.5 131.5q0 61 -19 117q-18 61 -54 112.5t-85 88t-109.5 57t-126.5 20.5q-80 0 -151.5 -31.5t-124.5 -85t-84 -125t-31 -153.5h287q0 45 30.5 76t73.5 31q35 0 63.5 -20.5t39.5 -53.5 q4 -20 4 -31q0 -45 -31 -72.5t-76 -27.5h-180v-287h180q45 0 76 -27.5t31 -70.5q0 -10 -4 -31q-10 -33 -39 -53.5t-64 -20.5q-43 0 -73.5 31t-30.5 76h-287q0 -82 31 -154t84 -126t124.5 -85t151.5 -31q66 0 126.5 20.5t109.5 57.5t85 88.5t54 112.5q19 56 19 117z" />
<glyph unicode="4" horiz-adv-x="978" d="M-20 1720h1017v-1720h-1017v1720zM922 725v287h-156v493h-285v-4l-420 -489v-287h420v-492h285v492h156z" />
<glyph unicode="5" horiz-adv-x="909" d="M934 1720v-1720h-959v1720h959zM459 236q80 0 151.5 30.5t124.5 83.5t84 125t31 154v98v4v47q0 61 -26.5 123t-77 110t-123 77.5t-164.5 29.5q-57 0 -107 -14v110h475v287h-761v-287v-487h286q0 43 31 73.5t76 30.5q53 0 82.5 -32.5t29.5 -73.5v-96q0 -43 -34.5 -75 t-77.5 -32q-45 0 -76 31t-31 76h-286q0 -82 30.5 -154t83.5 -125t125 -83.5t154 -30.5z" />
<glyph unicode="6" horiz-adv-x="917" d="M930 1720v-1720h-948v1720h948zM360 1118q0 43 31 74t76 31q43 0 74.5 -31t31.5 -74h285q0 80 -30.5 151.5t-84 125t-124 84t-152.5 30.5q-80 0 -150.5 -30.5t-125 -81.5t-86 -119t-31.5 -141v-521q0 -80 31.5 -148.5t85 -120.5t125 -81.5t151.5 -29.5t151.5 30.5 t125 83.5t84 125t30.5 152v2q0 80 -30.5 151.5t-84 124.5t-125 84t-151.5 31q-29 0 -55.5 -4t-51.5 -10v112z" />
<glyph unicode="7" horiz-adv-x="921" d="M-16 1720h948v-1720h-948v1720zM868 1219v284h-116v2h-19v-2h-672v-284h519l-529 -986h287z" />
<glyph unicode="8" d="M920 1720v-1720h-947v1720h947zM838 627q0 72 -23.5 133t-64.5 108q41 49 64.5 110.5t23.5 131.5v2q0 82 -31 152.5t-84 124t-125 84t-152 30.5q-82 0 -152.5 -30.5t-123.5 -84t-85 -124t-32 -152.5v-2q0 -70 24.5 -131t65.5 -111q-41 -47 -65.5 -108.5t-24.5 -132.5v-2 q0 -80 32 -152t85 -125t124 -84t152 -31q80 0 152 31t125 84t84 125t31 152v2z" />
<glyph unicode="9" d="M924 1720v-1720h-949v1720h949zM449 236q78 0 149.5 30.5t125.5 81.5t86 119t32 141v522q0 78 -32 148t-85 121t-125 80.5t-151 29.5q-82 0 -153 -30.5t-124 -84t-85 -124t-32 -152.5t32 -153.5t85 -125t124 -84t153 -30.5q51 0 106 16v-112q0 -45 -31.5 -76t-74.5 -31 q-45 0 -76 31t-31 76h-287q0 -82 31 -154t84 -125t125 -83.5t154 -30.5z" />
<glyph unicode=":" horiz-adv-x="434" d="M-12 1720h456v-1720h-456v1720zM352 264v277h-274v-277h274zM352 813v277h-274v-277h274z" />
<glyph unicode=";" horiz-adv-x="436" d="M-10 1720h456v-1720h-456v1720zM358 264v277h-274v-277h106l-88 -153h168zM358 813v277h-274v-277h274z" />
<glyph unicode="=" horiz-adv-x="1024" d="M-20 1720h1071v-1720h-1071v1720zM942 469v276h-854v-276h854zM942 1042v279h-854v-279h854z" />
<glyph unicode="?" horiz-adv-x="946" d="M961 1720v-1720h-981v1720h981zM526 541h-274v-277h274v277zM612 756q37 23 79 53.5t79 72.5t61.5 98t24.5 130q0 78 -29.5 147.5t-81 121t-121 81t-147.5 29.5q-82 0 -152.5 -29.5t-124 -81t-84 -121t-30.5 -147.5h274q0 43 34 73.5t83 30.5q43 0 74 -30.5t31 -73.5 q0 -31 -25 -55.5t-90 -65.5l-71 -46q-38 -26 -69.5 -61.5t-53 -81.5t-21.5 -106v-51h274v23q0 10 2 20t7 19q10 16 32 27z" />
<glyph unicode="@" horiz-adv-x="1370" d="M1382 1720v-1720h-1400v1720h1400zM1200 643q47 47 72.5 107.5t25.5 130.5q0 127 -47 237.5t-133 194.5q-84 84 -193.5 132t-238.5 48q-127 0 -237.5 -48t-194.5 -132t-132 -194.5t-48 -237.5q0 -115 41 -215q37 -98 106 -183q4 -4 8 -9t9 -9l16 -16q23 -23 45.5 -41.5 t46.5 -34.5q51 -35 103 -56h2v-2q4 0 4 -2h4q27 -10 54.5 -19t55.5 -13q55 -12 117 -13q80 0 160 23q84 23 151 63l-108 109l-109 108q-29 -8 -55.5 -12t-54.5 -2q-29 2 -56.5 9t-54.5 18h-2l-2 2h-2q-41 20 -77 50t-60 69q-25 37 -39.5 81.5t-14.5 94.5q0 68 26 126t71 103 q43 43 102.5 68.5t124.5 25.5q68 0 126 -25.5t103 -68.5q43 -45 69 -103.5t26 -125.5q0 -20 -13 -35q-14 -14 -34 -15q-8 0 -15.5 9.5t-7.5 25.5q0 4 1 7.5t1 7.5q0 53 -20.5 99t-55.5 81t-81 54.5t-99 19.5t-99 -19.5t-80 -54.5t-54.5 -81t-20.5 -99t20.5 -99.5t54.5 -81 t80 -54t99 -19.5q16 0 37.5 3t38.5 7q43 -43 92 -67.5t109 -24.5q70 0 130 26.5t107 71.5z" />
<glyph unicode="A" horiz-adv-x="1267" d="M-16 1718h1298v-1718h-1298v1718zM909 233h310l-441 1270h-313l-440 -1270h307l172 492h235z" />
<glyph unicode="B" horiz-adv-x="849" d="M872 1718v-1718h-884v1718h884zM797 569q0 98 -50.5 177t-130.5 122q80 41 130.5 121t50.5 178q0 70 -27 130.5t-72 106.5t-106.5 72.5t-130.5 26.5h-8h-390v-1270h390h8q70 0 131 27t106 72t72 106t27 131z" />
<glyph unicode="C" horiz-adv-x="1083" d="M1100 1718v-1718h-1118v1718h1118zM547 520q-43 0 -80 17.5t-64.5 48t-44 70.5t-16.5 87v250q0 45 16.5 86t44 72t64.5 48.5t80 17.5t81 -17.5t65.5 -48.5t44 -72t16.5 -86h286q0 102 -36.5 194.5t-104.5 164.5q-145 152 -350 151h-2q-205 0 -350 -151q-68 -72 -104 -163 t-38 -192v-262q2 -100 39 -189t103 -161q145 -152 350 -152h2q100 0 189 39t161 113q68 72 104.5 164t36.5 194h-286q0 -47 -16.5 -87t-44 -70.5t-65.5 -48t-81 -17.5z" />
<glyph unicode="D" horiz-adv-x="1087" d="M1104 1716v-1718h-1108v1718h1108zM827 416q92 92 139.5 206.5t47.5 243.5t-47 244t-140 205q-92 92 -208.5 139t-245.5 47h-256v-1270h256h39q117 6 223 53.5t192 131.5z" />
<glyph unicode="E" d="M-16 1718h938v-1718h-938v1718zM838 1217v286h-779v-1270h779v287h-492v205h363v287h-363v205h492z" />
<glyph unicode="F" horiz-adv-x="937" d="M-6 1718h962v-1718h-962v1718zM879 1217v286h-779v-1270h287v492h363v287h-363v205h492z" />
<glyph unicode="G" horiz-adv-x="1069" d="M1075 1718v-1718h-1085v1718h1085zM1012 866h-494v-264h160q-29 -39 -70 -60.5t-90 -21.5q-43 0 -80 17.5t-64.5 48t-44 70.5t-16.5 87v250q0 45 16.5 86t44 72t64.5 48.5t80 17.5t81 -17.5t65.5 -48.5t44 -72t16.5 -86h287q0 102 -37 194.5t-105 164.5 q-72 74 -162 112.5t-188 38.5h-2q-205 0 -350 -151q-68 -72 -103.5 -163t-37.5 -192v-262q2 -100 38.5 -189t102.5 -161q145 -152 350 -152h2q59 0 115.5 17.5t109.5 48.5v-66h265v478q0 10 1 17t1 15v123z" />
<glyph unicode="H" horiz-adv-x="1056" d="M-12 1718h1081v-1718h-1081v1718zM971 233v1270h-287v-491h-340v491h-287v-1270h287v492h340v-492h287z" />
<glyph unicode="I" horiz-adv-x="450" d="M-27 1718h490v-1718h-490v1718zM358 233v1270h-286v-1270h286z" />
<glyph unicode="J" horiz-adv-x="878" d="M895 1718v-1718h-911v1718h911zM819 1503h-287v-876q0 -45 -31.5 -76t-74.5 -31q-45 0 -76 31t-31 76h-286q0 -82 30.5 -154t84 -125t125 -84t153.5 -31q80 0 150.5 31t124 83t85 123t33.5 151v882z" />
<glyph unicode="K" horiz-adv-x="978" d="M-12 1718h1013v-1718h-1013v1718zM956 233l-540 633l542 637h-286l-326 -364v364h-287v-1270h287v359l324 -359h286z" />
<glyph unicode="L" horiz-adv-x="835" d="M-16 1718h876v-1718h-876v1718zM778 233v287h-405v983h-287v-1270h692z" />
<glyph unicode="M" horiz-adv-x="1339" d="M-16 1718h1368v-1718h-1368v1718zM1249 1501l2 2h-288v-2l-297 -856l-297 858h-291v-1270h287v457l157 -457h287l154 443v-443h286v1268z" />
<glyph unicode="N" horiz-adv-x="1062" d="M-18 1718h1103v-1718h-1103v1718zM1001 233v1270h-286v-708l-357 708h-292v-1270h286v709l359 -709h290z" />
<glyph unicode="O" horiz-adv-x="1110" d="M1126 1718v-1718h-1140v1718h1140zM1053 737v103v157v39q-8 90 -45 170t-99 144q-70 74 -160 113.5t-188 39.5h-2q-100 0 -190 -40t-160 -113q-61 -66 -97 -146t-44 -170v-297q2 -100 37.5 -191t103.5 -163q72 -72 161 -112t189 -40h2q98 0 188.5 40t159.5 112 q68 72 105 163t37 191h2z" />
<glyph unicode="P" horiz-adv-x="907" d="M922 1718v-1718h-930v1718h930zM459 715q82 0 153.5 30.5t126 84t85 125t30.5 153.5t-30.5 153.5t-85 126t-126 85t-153.5 30.5h-2h-385v-1270h286v482h99h2z" />
<glyph unicode="Q" horiz-adv-x="1181" d="M1188 1718v-1718h-1202v1718h1202zM1143 233l-158 291q47 100 47 213v103v157v39q-6 90 -43 170t-98 144q-70 74 -160 113.5t-190 39.5t-190.5 -40t-160.5 -113q-61 -66 -98 -146t-43 -170v-297q0 -100 37 -191t104 -163q70 -72 160 -112t191 -40q70 0 133 19.5t121 54.5 l41 -72h307z" />
<glyph unicode="R" horiz-adv-x="925" d="M934 1718v-1718h-961v1718h961zM868 233l-241 525q98 47 157.5 140t59.5 210q0 82 -32 153.5t-85 126t-125 85t-153 30.5h-3h-385v-1270h287v482h2l221 -482h297z" />
<glyph unicode="S" horiz-adv-x="892" d="M924 1716v-1718h-951v1718h951zM815 625q0 80 -30.5 150.5t-84 122.5t-125 82t-151.5 30q-45 0 -76 27.5t-31 70.5q0 10 5 31q10 33 38.5 53t63.5 20q43 0 73.5 -30.5t30.5 -73.5h287q0 80 -30.5 151.5t-84 126t-125 85t-151.5 30.5q-66 0 -126 -20.5t-109.5 -57.5 t-85 -88t-54.5 -110q-18 -55 -18 -117q0 -82 31.5 -151.5t85 -122t124 -82t152.5 -29.5q43 0 73.5 -27.5t30.5 -72.5q0 -10 -4 -31q-10 -33 -37.5 -53.5t-62.5 -20.5q-45 0 -76 31t-31 76h-286q0 -82 30.5 -154t84 -125t125 -84t153.5 -31q66 0 126 20.5t109.5 57.5t85 88.5 t54.5 110.5q16 60 16 117z" />
<glyph unicode="T" horiz-adv-x="972" d="M-27 1716h1010v-1718h-1010v1718zM907 1214v287h-864v-287h289v-983h286v983h289z" />
<glyph unicode="U" horiz-adv-x="1087" d="M1120 1716v-1718h-1145v1718h1145zM1038 1501h-286v-760q0 -47 -16.5 -88t-44 -71.5t-64.5 -48t-80 -17.5t-81 17.5t-65.5 48t-44 71.5t-16.5 88v760h-287v-766q2 -100 38 -191t104 -163q72 -72 160.5 -112t189.5 -40h2q100 0 189 40t161 112q68 72 103.5 163t37.5 191 v766z" />
<glyph unicode="V" horiz-adv-x="1249" d="M-16 1718h1288v-1718h-1288v1718zM768 233l440 1270h-286l-299 -864l-299 864h-287l440 -1270h291z" />
<glyph unicode="W" horiz-adv-x="1613" d="M-8 1718h1632v-1718h-1632v1718zM1264 233l309 1270h-287l-168 -690l-168 690h-291l-167 -690l-168 690h-287l309 -1270h291l168 689l168 -689h291z" />
<glyph unicode="X" horiz-adv-x="1099" d="M-18 1718h1130v-1718h-1130v1718zM1032 233l-340 635l340 635h-287l-196 -368l-199 368h-287l343 -635l-343 -635h287l199 369l196 -369h287z" />
<glyph unicode="Y" horiz-adv-x="1081" d="M-23 1718h1123v-1718h-1123v1718zM680 866l342 637h-287l-198 -368l-199 368h-287l342 -635v-635h287v633z" />
<glyph unicode="Z" horiz-adv-x="950" d="M-18 1718h983v-1718h-983v1718zM881 1217v286h-826v-286h492l-492 -697v-287h826v287h-496z" />
<glyph unicode="_" horiz-adv-x="1030" d="M1051 1720v-1720h-1071v1720h1071z" />
<glyph unicode="`" horiz-adv-x="428" d="M-14 1720h456v-1720h-456v1720zM352 1212v277h-274v-277h106l-88 -153h168z" />
<glyph unicode="a" horiz-adv-x="1267" d="M-16 1718h1298v-1718h-1298v1718zM909 233h310l-441 1270h-313l-440 -1270h307l172 492h235z" />
<glyph unicode="b" horiz-adv-x="849" d="M872 1718v-1718h-884v1718h884zM797 569q0 98 -50.5 177t-130.5 122q80 41 130.5 121t50.5 178q0 70 -27 130.5t-72 106.5t-106.5 72.5t-130.5 26.5h-8h-390v-1270h390h8q70 0 131 27t106 72t72 106t27 131z" />
<glyph unicode="c" horiz-adv-x="1083" d="M1100 1718v-1718h-1118v1718h1118zM547 520q-43 0 -80 17.5t-64.5 48t-44 70.5t-16.5 87v250q0 45 16.5 86t44 72t64.5 48.5t80 17.5t81 -17.5t65.5 -48.5t44 -72t16.5 -86h286q0 102 -36.5 194.5t-104.5 164.5q-145 152 -350 151h-2q-205 0 -350 -151q-68 -72 -104 -163 t-38 -192v-262q2 -100 39 -189t103 -161q145 -152 350 -152h2q100 0 189 39t161 113q68 72 104.5 164t36.5 194h-286q0 -47 -16.5 -87t-44 -70.5t-65.5 -48t-81 -17.5z" />
<glyph unicode="d" horiz-adv-x="1087" d="M1104 1716v-1718h-1108v1718h1108zM827 416q92 92 139.5 206.5t47.5 243.5t-47 244t-140 205q-92 92 -208.5 139t-245.5 47h-256v-1270h256h39q117 6 223 53.5t192 131.5z" />
<glyph unicode="e" d="M-16 1718h938v-1718h-938v1718zM838 1217v286h-779v-1270h779v287h-492v205h363v287h-363v205h492z" />
<glyph unicode="f" horiz-adv-x="937" d="M-6 1718h962v-1718h-962v1718zM879 1217v286h-779v-1270h287v492h363v287h-363v205h492z" />
<glyph unicode="g" horiz-adv-x="1069" d="M1075 1718v-1718h-1085v1718h1085zM1012 866h-494v-264h160q-29 -39 -70 -60.5t-90 -21.5q-43 0 -80 17.5t-64.5 48t-44 70.5t-16.5 87v250q0 45 16.5 86t44 72t64.5 48.5t80 17.5t81 -17.5t65.5 -48.5t44 -72t16.5 -86h287q0 102 -37 194.5t-105 164.5 q-72 74 -162 112.5t-188 38.5h-2q-205 0 -350 -151q-68 -72 -103.5 -163t-37.5 -192v-262q2 -100 38.5 -189t102.5 -161q145 -152 350 -152h2q59 0 115.5 17.5t109.5 48.5v-66h265v478q0 10 1 17t1 15v123z" />
<glyph unicode="h" horiz-adv-x="1056" d="M-12 1718h1081v-1718h-1081v1718zM971 233v1270h-287v-491h-340v491h-287v-1270h287v492h340v-492h287z" />
<glyph unicode="i" horiz-adv-x="450" d="M-27 1718h490v-1718h-490v1718zM358 233v1270h-286v-1270h286z" />
<glyph unicode="j" horiz-adv-x="878" d="M895 1718v-1718h-911v1718h911zM819 1503h-287v-876q0 -45 -31.5 -76t-74.5 -31q-45 0 -76 31t-31 76h-286q0 -82 30.5 -154t84 -125t125 -84t153.5 -31q80 0 150.5 31t124 83t85 123t33.5 151v882z" />
<glyph unicode="k" horiz-adv-x="978" d="M-12 1718h1013v-1718h-1013v1718zM956 233l-540 633l542 637h-286l-326 -364v364h-287v-1270h287v359l324 -359h286z" />
<glyph unicode="l" horiz-adv-x="835" d="M-16 1718h876v-1718h-876v1718zM778 233v287h-405v983h-287v-1270h692z" />
<glyph unicode="m" horiz-adv-x="1339" d="M-16 1718h1368v-1718h-1368v1718zM1249 1501l2 2h-288v-2l-297 -856l-297 858h-291v-1270h287v457l157 -457h287l154 443v-443h286v1268z" />
<glyph unicode="n" horiz-adv-x="1062" d="M-18 1718h1103v-1718h-1103v1718zM1001 233v1270h-286v-708l-357 708h-292v-1270h286v709l359 -709h290z" />
<glyph unicode="o" horiz-adv-x="1110" d="M1126 1718v-1718h-1140v1718h1140zM1053 737v103v157v39q-8 90 -45 170t-99 144q-70 74 -160 113.5t-188 39.5h-2q-100 0 -190 -40t-160 -113q-61 -66 -97 -146t-44 -170v-297q2 -100 37.5 -191t103.5 -163q72 -72 161 -112t189 -40h2q98 0 188.5 40t159.5 112 q68 72 105 163t37 191h2z" />
<glyph unicode="p" horiz-adv-x="907" d="M922 1718v-1718h-930v1718h930zM459 715q82 0 153.5 30.5t126 84t85 125t30.5 153.5t-30.5 153.5t-85 126t-126 85t-153.5 30.5h-2h-385v-1270h286v482h99h2z" />
<glyph unicode="q" horiz-adv-x="1181" d="M1188 1718v-1718h-1202v1718h1202zM1143 233l-158 291q47 100 47 213v103v157v39q-6 90 -43 170t-98 144q-70 74 -160 113.5t-190 39.5t-190.5 -40t-160.5 -113q-61 -66 -98 -146t-43 -170v-297q0 -100 37 -191t104 -163q70 -72 160 -112t191 -40q70 0 133 19.5t121 54.5 l41 -72h307z" />
<glyph unicode="r" horiz-adv-x="925" d="M934 1718v-1718h-961v1718h961zM868 233l-241 525q98 47 157.5 140t59.5 210q0 82 -32 153.5t-85 126t-125 85t-153 30.5h-3h-385v-1270h287v482h2l221 -482h297z" />
<glyph unicode="s" horiz-adv-x="892" d="M924 1716v-1718h-951v1718h951zM815 625q0 80 -30.5 150.5t-84 122.5t-125 82t-151.5 30q-45 0 -76 27.5t-31 70.5q0 10 5 31q10 33 38.5 53t63.5 20q43 0 73.5 -30.5t30.5 -73.5h287q0 80 -30.5 151.5t-84 126t-125 85t-151.5 30.5q-66 0 -126 -20.5t-109.5 -57.5 t-85 -88t-54.5 -110q-18 -55 -18 -117q0 -82 31.5 -151.5t85 -122t124 -82t152.5 -29.5q43 0 73.5 -27.5t30.5 -72.5q0 -10 -4 -31q-10 -33 -37.5 -53.5t-62.5 -20.5q-45 0 -76 31t-31 76h-286q0 -82 30.5 -154t84 -125t125 -84t153.5 -31q66 0 126 20.5t109.5 57.5t85 88.5 t54.5 110.5q16 60 16 117z" />
<glyph unicode="t" horiz-adv-x="972" d="M-27 1716h1010v-1718h-1010v1718zM907 1214v287h-864v-287h289v-983h286v983h289z" />
<glyph unicode="u" horiz-adv-x="1087" d="M1120 1716v-1718h-1145v1718h1145zM1038 1501h-286v-760q0 -47 -16.5 -88t-44 -71.5t-64.5 -48t-80 -17.5t-81 17.5t-65.5 48t-44 71.5t-16.5 88v760h-287v-766q2 -100 38 -191t104 -163q72 -72 160.5 -112t189.5 -40h2q100 0 189 40t161 112q68 72 103.5 163t37.5 191 v766z" />
<glyph unicode="v" horiz-adv-x="1249" d="M-16 1718h1288v-1718h-1288v1718zM768 233l440 1270h-286l-299 -864l-299 864h-287l440 -1270h291z" />
<glyph unicode="w" horiz-adv-x="1613" d="M-8 1718h1632v-1718h-1632v1718zM1264 233l309 1270h-287l-168 -690l-168 690h-291l-167 -690l-168 690h-287l309 -1270h291l168 689l168 -689h291z" />
<glyph unicode="x" horiz-adv-x="1099" d="M-18 1718h1130v-1718h-1130v1718zM1032 233l-340 635l340 635h-287l-196 -368l-199 368h-287l343 -635l-343 -635h287l199 369l196 -369h287z" />
<glyph unicode="y" horiz-adv-x="1081" d="M-23 1718h1123v-1718h-1123v1718zM680 866l342 637h-287l-198 -368l-199 368h-287l342 -635v-635h287v633z" />
<glyph unicode="z" horiz-adv-x="950" d="M-18 1718h983v-1718h-983v1718zM881 1217v286h-826v-286h492l-492 -697v-287h826v287h-496z" />
<glyph unicode="&#xaa;" horiz-adv-x="1267" d="M-16 1718h1298v-1718h-1298v1718zM909 233h310l-441 1270h-313l-440 -1270h307l172 492h235z" />
<glyph unicode="&#xad;" horiz-adv-x="1005" d="M-39 1720h1071v-1720h-1071v1720zM920 752v276h-852v-276h852z" />
<glyph unicode="&#xb2;" horiz-adv-x="909" d="M920 1720v-1720h-940v1720h940zM446 522l285 318q53 57 84 123.5t31 146.5q0 61 -19 117q-18 61 -54 112.5t-85 88t-109.5 57t-125.5 20.5q-82 0 -154 -31.5t-125 -85t-84 -125t-31 -153.5h287q0 45 32 76t75 31q35 0 62.5 -20.5t37.5 -53.5q6 -16 6 -31q0 -29 -16 -55 l-463 -535v-286h762v286h-396z" />
<glyph unicode="&#xb3;" horiz-adv-x="884" d="M899 1720v-1720h-922v1720h922zM834 629q0 70 -23 130t-63 109q41 49 63.5 110.5t22.5 131.5q0 61 -19 117q-18 61 -54 112.5t-85 88t-109.5 57t-126.5 20.5q-80 0 -151.5 -31.5t-124.5 -85t-84 -125t-31 -153.5h287q0 45 30.5 76t73.5 31q35 0 63.5 -20.5t39.5 -53.5 q4 -20 4 -31q0 -45 -31 -72.5t-76 -27.5h-180v-287h180q45 0 76 -27.5t31 -70.5q0 -10 -4 -31q-10 -33 -39 -53.5t-64 -20.5q-43 0 -73.5 31t-30.5 76h-287q0 -82 31 -154t84 -126t124.5 -85t151.5 -31q66 0 126.5 20.5t109.5 57.5t85 88.5t54 112.5q19 56 19 117z" />
<glyph unicode="&#xb9;" horiz-adv-x="647" d="M-18 1720h688v-1720h-688v1720zM563 233v1272h-287l-249 -262l202 -203l47 47v-854h287z" />
<glyph unicode="&#xba;" horiz-adv-x="1110" d="M1126 1718v-1718h-1140v1718h1140zM1053 737v103v157v39q-8 90 -45 170t-99 144q-70 74 -160 113.5t-188 39.5h-2q-100 0 -190 -40t-160 -113q-61 -66 -97 -146t-44 -170v-297q2 -100 37.5 -191t103.5 -163q72 -72 161 -112t189 -40h2q98 0 188.5 40t159.5 112 q68 72 105 163t37 191h2z" />
<glyph unicode="&#xc0;" horiz-adv-x="1267" d="M404 3561h456v-1720h-456v1720zM770 3053v277h-274v-277h106l-88 -153h168zM-16 1718h1298v-1718h-1298v1718zM909 233h310l-441 1270h-313l-440 -1270h307l172 492h235z" />
<glyph unicode="&#xc8;" d="M224 3561h456v-1720h-456v1720zM590 3053v277h-274v-277h106l-88 -153h168zM-16 1718h938v-1718h-938v1718zM838 1217v286h-779v-1270h779v287h-492v205h363v287h-363v205h492z" />
<glyph unicode="&#xcc;" horiz-adv-x="450" d="M-10 3561h456v-1720h-456v1720zM356 3053v277h-274v-277h106l-88 -153h168zM-27 1718h490v-1718h-490v1718zM358 233v1270h-286v-1270h286z" />
<glyph unicode="&#xd2;" horiz-adv-x="1110" d="M328 3561h456v-1720h-456v1720zM694 3053v277h-274v-277h106l-88 -153h168zM1126 1718v-1718h-1140v1718h1140zM1053 737v103v157v39q-8 90 -45 170t-99 144q-70 74 -160 113.5t-188 39.5h-2q-100 0 -190 -40t-160 -113q-61 -66 -97 -146t-44 -170v-297q2 -100 37.5 -191 t103.5 -163q72 -72 161 -112t189 -40h2q98 0 188.5 40t159.5 112q68 72 105 163t37 191h2z" />
<glyph unicode="&#xd9;" horiz-adv-x="1087" d="M320 3561h456v-1720h-456v1720zM686 3053v277h-274v-277h106l-88 -153h168zM1120 1716v-1718h-1145v1718h1145zM1038 1501h-286v-760q0 -47 -16.5 -88t-44 -71.5t-64.5 -48t-80 -17.5t-81 17.5t-65.5 48t-44 71.5t-16.5 88v760h-287v-766q2 -100 38 -191t104 -163 q72 -72 160.5 -112t189.5 -40h2q100 0 189 40t161 112q68 72 103.5 163t37.5 191v766z" />
<glyph unicode="&#xe0;" horiz-adv-x="1267" d="M404 3561h456v-1720h-456v1720zM770 3053v277h-274v-277h106l-88 -153h168zM-16 1718h1298v-1718h-1298v1718zM909 233h310l-441 1270h-313l-440 -1270h307l172 492h235z" />
<glyph unicode="&#xe8;" d="M224 3561h456v-1720h-456v1720zM590 3053v277h-274v-277h106l-88 -153h168zM-16 1718h938v-1718h-938v1718zM838 1217v286h-779v-1270h779v287h-492v205h363v287h-363v205h492z" />
<glyph unicode="&#xec;" horiz-adv-x="450" d="M-10 3561h456v-1720h-456v1720zM356 3053v277h-274v-277h106l-88 -153h168zM-27 1718h490v-1718h-490v1718zM358 233v1270h-286v-1270h286z" />
<glyph unicode="&#xf2;" horiz-adv-x="1110" d="M328 3561h456v-1720h-456v1720zM694 3053v277h-274v-277h106l-88 -153h168zM1126 1718v-1718h-1140v1718h1140zM1053 737v103v157v39q-8 90 -45 170t-99 144q-70 74 -160 113.5t-188 39.5h-2q-100 0 -190 -40t-160 -113q-61 -66 -97 -146t-44 -170v-297q2 -100 37.5 -191 t103.5 -163q72 -72 161 -112t189 -40h2q98 0 188.5 40t159.5 112q68 72 105 163t37 191h2z" />
<glyph unicode="&#xf9;" horiz-adv-x="1087" d="M320 3561h456v-1720h-456v1720zM686 3053v277h-274v-277h106l-88 -153h168zM1120 1716v-1718h-1145v1718h1145zM1038 1501h-286v-760q0 -47 -16.5 -88t-44 -71.5t-64.5 -48t-80 -17.5t-81 17.5t-65.5 48t-44 71.5t-16.5 88v760h-287v-766q2 -100 38 -191t104 -163 q72 -72 160.5 -112t189.5 -40h2q100 0 189 40t161 112q68 72 103.5 163t37.5 191v766z" />
<glyph unicode="&#x152;" horiz-adv-x="2013" d="M1094 1718h938v-1718h-938v1718zM1948 1217v286h-779v-1270h779v287h-492v205h363v287h-363v205h492zM1126 1718v-1718h-1140v1718h1140zM1053 737v103v157v39q-8 90 -45 170t-99 144q-70 74 -160 113.5t-188 39.5h-2q-100 0 -190 -40t-160 -113q-61 -66 -97 -146 t-44 -170v-297q2 -100 37.5 -191t103.5 -163q72 -72 161 -112t189 -40h2q98 0 188.5 40t159.5 112q68 72 105 163t37 191h2z" />
<glyph unicode="&#x153;" horiz-adv-x="2013" d="M1094 1718h938v-1718h-938v1718zM1948 1217v286h-779v-1270h779v287h-492v205h363v287h-363v205h492zM1126 1718v-1718h-1140v1718h1140zM1053 737v103v157v39q-8 90 -45 170t-99 144q-70 74 -160 113.5t-188 39.5h-2q-100 0 -190 -40t-160 -113q-61 -66 -97 -146 t-44 -170v-297q2 -100 37.5 -191t103.5 -163q72 -72 161 -112t189 -40h2q98 0 188.5 40t159.5 112q68 72 105 163t37 191h2z" />
<glyph unicode="&#x2000;" horiz-adv-x="1779" />
<glyph unicode="&#x2001;" horiz-adv-x="3561" />
<glyph unicode="&#x2002;" horiz-adv-x="1779" />
<glyph unicode="&#x2003;" horiz-adv-x="3561" />
<glyph unicode="&#x2004;" horiz-adv-x="1185" />
<glyph unicode="&#x2005;" horiz-adv-x="888" />
<glyph unicode="&#x2006;" horiz-adv-x="591" />
<glyph unicode="&#x2007;" horiz-adv-x="591" />
<glyph unicode="&#x2008;" horiz-adv-x="444" />
<glyph unicode="&#x2009;" horiz-adv-x="710" />
<glyph unicode="&#x200a;" horiz-adv-x="196" />
<glyph unicode="&#x2010;" horiz-adv-x="1005" d="M-39 1720h1071v-1720h-1071v1720zM920 752v276h-852v-276h852z" />
<glyph unicode="&#x2011;" horiz-adv-x="1005" d="M-39 1720h1071v-1720h-1071v1720zM920 752v276h-852v-276h852z" />
<glyph unicode="&#x2012;" horiz-adv-x="1005" d="M-39 1720h1071v-1720h-1071v1720zM920 752v276h-852v-276h852z" />
<glyph unicode="&#x2013;" horiz-adv-x="1024" d="M-39 0v1720h1090v-1720h-1090z" />
<glyph unicode="&#x2014;" horiz-adv-x="2048" d="M-39 0v1720h2114v-1720h-2114z" />
<glyph unicode="&#x2018;" horiz-adv-x="428" d="M-14 1720h456v-1720h-456v1720zM352 1212v277h-274v-277h106l-88 -153h168z" />
<glyph unicode="&#x2019;" horiz-adv-x="428" d="M-14 1720h456v-1720h-456v1720zM352 1212v277h-274v-277h106l-88 -153h168z" />
<glyph unicode="&#x2026;" horiz-adv-x="1284" d="M842 1720h456v-1720h-456v1720zM1208 264v277h-274v-277h274zM414 1720h456v-1720h-456v1720zM780 264v277h-274v-277h274zM-14 1720h456v-1720h-456v1720zM352 264v277h-274v-277h274z" />
<glyph unicode="&#x202f;" horiz-adv-x="710" />
<glyph unicode="&#x205f;" horiz-adv-x="888" />
<glyph unicode="&#x2122;" horiz-adv-x="2312" d="M957 1718h1368v-1718h-1368v1718zM2222 1501l2 2h-288v-2l-297 -856l-297 858h-291v-1270h287v457l157 -457h287l154 443v-443h286v1268zM-27 1716h1010v-1718h-1010v1718zM907 1214v287h-864v-287h289v-983h286v983h289z" />
<glyph unicode="&#xe000;" horiz-adv-x="1720" d="M0 1720h1720v-1720h-1720v1720z" />
<glyph unicode="&#xfb01;" horiz-adv-x="1388" d="M911 1718h490v-1718h-490v1718zM1296 233v1270h-286v-1270h286zM-6 1718h962v-1718h-962v1718zM879 1217v286h-779v-1270h287v492h363v287h-363v205h492z" />
<glyph unicode="&#xfb02;" horiz-adv-x="1773" d="M922 1718h876v-1718h-876v1718zM1716 233v287h-405v983h-287v-1270h692zM-6 1718h962v-1718h-962v1718zM879 1217v286h-779v-1270h287v492h363v287h-363v205h492z" />
<glyph unicode="&#xfb03;" horiz-adv-x="2326" d="M1849 1718h490v-1718h-490v1718zM2234 233v1270h-286v-1270h286zM932 1718h962v-1718h-962v1718zM1817 1217v286h-779v-1270h287v492h363v287h-363v205h492zM-6 1718h962v-1718h-962v1718zM879 1217v286h-779v-1270h287v492h363v287h-363v205h492z" />
<glyph unicode="&#xfb04;" horiz-adv-x="2711" d="M1860 1718h876v-1718h-876v1718zM2654 233v287h-405v983h-287v-1270h692zM932 1718h962v-1718h-962v1718zM1817 1217v286h-779v-1270h287v492h363v287h-363v205h492zM-6 1718h962v-1718h-962v1718zM879 1217v286h-779v-1270h287v492h363v287h-363v205h492z" />
</font>
</defs>
</svg>
